<?xml version="1.0" encoding="iso-8859-1"?>
<!-- Generator: Adobe Illustrator 19.0.0, SVG Export Plug-In . SVG Version: 6.00 Build 0)  -->
<svg version="1.1" id="Capa_1" xmlns="http://www.w3.org/2000/svg" xmlns:xlink="http://www.w3.org/1999/xlink" x="0px" y="0px"
	 viewBox="0 0 512.002 512.002" style="enable-background:new 0 0 512.002 512.002;" xml:space="preserve">
<path style="fill:#F0F0F0;" d="M385.657,278.604c-9.882-12.294-24.806-19.445-40.579-19.445h-14.039
	c-13.551,0-24.536,10.985-24.536,24.536l0,0l40.436,12.246l42.809-12.246L385.657,278.604z"/>
<path style="fill:#D9D9D9;" d="M336.503,283.694L336.503,283.694c0-11.296,7.636-20.803,18.026-23.656
	c-3.093-0.571-6.253-0.88-9.451-0.88h-14.039c-13.551,0-24.536,10.985-24.536,24.536l0,0l40.436,12.246l15.428-4.413
	L336.503,283.694z"/>
<path style="fill:#FF5E6B;" d="M399.237,283.694h-92.733c-13.551,0-24.536,10.985-24.536,24.536l0,0l64.972,19.128l52.704-19.128
	c6.852,0,12.392-5.617,12.266-12.498C411.786,288.979,405.991,283.694,399.237,283.694z"/>
<path style="fill:#E63E4C;" d="M311.967,308.23L311.967,308.23c0-13.551,10.985-24.536,24.536-24.536h-30
	c-13.551,0-24.536,10.985-24.536,24.536l0,0l64.972,19.128l13.436-4.876L311.967,308.23z"/>
<g>
	<path style="fill:#3B484A;" d="M155.194,118.852c-12.291-36.767-46.597-61.471-85.364-61.471L50.56,74.639l19.27,17.257
		c23.902,0,45.052,15.231,52.631,37.899l59.65,178.435l32.733-10.942L155.194,118.852z"/>
	<rect x="281.97" y="308.231" style="fill:#3B484A;" width="117.68" height="56.33"/>
</g>
<rect x="281.97" y="308.231" style="fill:#333E40;" width="30" height="56.33"/>
<path style="fill:#F0F0F0;" d="M460.579,385.099l-60.935-20.544H178.097l-21.842,20.544l9.467,31.063h295.39v-24.318
	C461.111,389.497,460.934,387.249,460.579,385.099z"/>
<polygon style="fill:#333E40;" points="200.931,255.67 164.54,255.67 182.11,308.23 214.843,297.288 "/>
<path style="fill:#FF5E6B;" d="M460.579,385.099H156.255l-24.72-83.915c-2.051-7.847,3.87-15.514,11.981-15.514h58.022
	c12.444,0,24.109,5.752,31.963,15.404c5.141,6.318,11.018,11.962,17.48,16.812c11.35,8.52,24.515,14.614,38.715,17.642
	c14.299,3.057,30.836,5.364,48.152,5.364C408.226,340.892,455.125,351.868,460.579,385.099z"/>
<circle style="fill:#3B484A;" cx="162.81" cy="385.101" r="69.52"/>
<circle style="fill:#B3B3B3;" cx="162.81" cy="385.101" r="31.06"/>
<circle style="fill:#3B484A;" cx="461.11" cy="411.231" r="43.39"/>
<circle style="fill:#B3B3B3;" cx="461.11" cy="411.231" r="19.387"/>
<path style="fill:#FF5E6B;" d="M24.757,57.382c-9.531,0-17.257,7.726-17.257,17.257l0,0c0,9.531,7.726,17.257,17.257,17.257H69.83
	V57.382H24.757z"/>
<path d="M162.813,346.537c-21.264,0-38.563,17.299-38.563,38.563s17.299,38.563,38.563,38.563s38.563-17.299,38.563-38.563
	S184.076,346.537,162.813,346.537z M162.813,408.662c-12.992,0-23.563-10.57-23.563-23.563s10.57-23.563,23.563-23.563
	s23.563,10.57,23.563,23.563S175.805,408.662,162.813,408.662z"/>
<path d="M461.111,384.345c-14.825,0-26.887,12.062-26.887,26.887s12.062,26.886,26.887,26.886s26.886-12.061,26.886-26.886
	S475.937,384.345,461.111,384.345z M461.111,423.118c-6.554,0-11.887-5.332-11.887-11.886s5.333-11.887,11.887-11.887
	s11.886,5.333,11.886,11.887S467.666,423.118,461.111,423.118z"/>
<path d="M461.111,360.343c-1.702,0-3.384,0.088-5.043,0.252c-10.042-10.24-26.084-17.465-48.925-21.882v-24.454
	c2.448-1.003,4.693-2.498,6.606-4.446c3.747-3.816,5.756-8.865,5.658-14.216c-0.195-10.698-9.244-19.401-20.171-19.401h-5.894
	l-1.84-2.289c-11.365-14.138-28.286-22.247-46.425-22.247h-14.039c-15.341,0-28.191,10.841-31.309,25.263
	c-14.422,3.117-25.263,15.968-25.263,31.308v14.647c-6.697-2.861-13.045-6.531-18.985-10.99
	c-5.989-4.494-11.428-9.725-16.165-15.546c-5.917-7.272-13.57-12.586-22.074-15.528l-54.937-164.339
	c-3.427-10.25-8.5-19.805-15.079-28.397c-2.519-3.29-7.226-3.914-10.515-1.396s-3.914,7.226-1.396,10.515
	c5.569,7.273,9.863,15.359,12.763,24.034l52.464,156.94h-20.575l-50.396-150.753c-7.8-23.333-28.267-39.723-52.244-42.578V65.22
	c13.56,1.225,26.563,5.764,37.987,13.309c3.457,2.283,8.109,1.332,10.392-2.124c2.283-3.457,1.332-8.109-2.124-10.392
	C107.613,55.463,89.03,49.885,69.83,49.882H24.757C11.106,49.882,0,60.988,0,74.639s11.106,24.757,24.757,24.757H69.83
	c20.672,0,38.964,13.172,45.518,32.777l48.806,145.997c0,0-20.616,0-20.637,0c-12.834,0-22.482,12.493-19.237,24.911
	c0.02,0.075,0.04,0.149,0.062,0.223l3.839,13.034c-25.117,12.702-42.388,38.745-42.388,68.762c0,42.47,34.551,77.021,77.021,77.021
	c28.424,0,53.283-15.489,66.629-38.458h182.323c5.562,22.07,25.574,38.458,49.347,38.458c28.06,0,50.889-22.829,50.889-50.889
	C512,383.171,489.171,360.343,461.111,360.343z M15,74.639c0-5.38,4.377-9.757,9.757-9.757H62.33v19.514H24.757
	C19.377,84.396,15,80.019,15,74.639z M331.039,266.658h14.039c10.154,0,19.797,3.396,27.571,9.536h-56.904
	C318.523,270.551,324.335,266.658,331.039,266.658z M306.503,291.195h92.733c2.758,0,5.127,2.141,5.174,4.675
	c0.048,2.63-2.139,4.86-4.767,4.86H291.209C293.988,295.086,299.799,291.195,306.503,291.195z M289.468,315.73h102.676v20.57
	c-13.798-1.751-29.591-2.697-47.857-2.875c-8.021-0.078-16.055-0.122-24.051-0.831c-10.325-0.906-20.671-2.446-30.768-4.809V315.73z
	 M162.813,447.12c-34.199,0-62.021-27.822-62.021-62.021c0-33.502,28.578-62.021,62.021-62.021c33.794,0,62.021,28.29,62.021,62.025
	C224.834,418.89,196.537,447.12,162.813,447.12z M236.573,407.249c1.315-4.364,2.233-8.829,2.747-13.38
	c0.038-0.33,0.147-1.175,0.156-1.27h110.711c4.142,0,7.5-3.358,7.5-7.5s-3.358-7.5-7.5-7.5H239.471
	c-0.006-0.062-0.016-0.123-0.022-0.185c-1.676-16.375-8.64-32.005-19.739-44.171c-14.451-15.839-35.443-25.165-56.897-25.165
	c-6.946,0-13.911,0.941-20.603,2.803l-3.442-11.685c-0.741-3.05,1.629-6.027,4.748-6.027c0,0,58.015,0,58.022,0
	c10.118,0,19.785,4.82,26.145,12.638c5.507,6.769,11.831,12.851,18.795,18.076c22.904,17.195,51.309,22.561,79.336,24.16
	c24.267,1.384,48.544,0.411,72.629,4.316c0.077,0.012,0.154,0.009,0.231,0.019c17.585,2.85,30.849,7.236,39.93,13.204
	c-5.927,2.92-11.255,6.989-15.681,12.017h-42.815c-4.142,0-7.5,3.358-7.5,7.5s3.358,7.5,7.5,7.5h33.625
	c-1.363,3.456-2.327,7.058-2.899,10.754c-0.147,0.937-0.508,4.475-0.549,5.309H236.158
	C236.217,408.48,236.486,407.536,236.573,407.249z M461.111,447.12c-19.36,0-35.889-16.521-35.889-35.889
	c0-19.373,16.487-35.889,35.889-35.889c19.789,0,35.889,16.1,35.889,35.889C497,431.021,480.9,447.12,461.111,447.12z"/>
<g>
</g>
<g>
</g>
<g>
</g>
<g>
</g>
<g>
</g>
<g>
</g>
<g>
</g>
<g>
</g>
<g>
</g>
<g>
</g>
<g>
</g>
<g>
</g>
<g>
</g>
<g>
</g>
<g>
</g>
</svg>
