<?xml version="1.0" encoding="iso-8859-1"?>
<!-- Generator: Adobe Illustrator 19.0.0, SVG Export Plug-In . SVG Version: 6.00 Build 0)  -->
<svg version="1.1" id="Capa_1" xmlns="http://www.w3.org/2000/svg" xmlns:xlink="http://www.w3.org/1999/xlink" x="0px" y="0px"
	 viewBox="0 0 512 512" style="enable-background:new 0 0 512 512;" xml:space="preserve">
<g>
	<polygon style="fill:#FAA330;" points="402.287,286.53 369.19,307.048 369.191,307.049 369.191,307.049 369.19,307.048 
		346.621,356.414 369.19,405.779 369.191,405.778 370.326,405.778 400.779,427.091 431.233,405.778 432.368,405.778 
		432.368,307.049 	"/>
	<polygon style="fill:#FAA330;" points="142.81,307.048 142.81,307.049 142.809,307.049 142.81,307.048 109.712,286.53 
		79.631,307.049 79.631,405.778 80.766,405.778 111.22,427.091 141.674,405.778 142.81,405.778 142.81,405.779 165.378,356.414 	"/>
	<polygon style="fill:#FAA330;" points="256,43.799 79.631,180.912 79.631,208.319 256,253.549 432.368,208.319 432.368,180.912 	
		"/>
</g>
<path style="fill:#FF5E6B;" d="M445.158,218.119L256,73.169L66.841,218.119l-35.355-46.139L238.322,13.485
	c10.43-7.992,24.926-7.992,35.355,0l206.836,158.496L445.158,218.119z"/>
<g>
	<polygon style="fill:#F09318;" points="142.81,208.317 142.809,208.319 79.631,208.319 79.631,307.049 142.81,307.049 
		165.378,257.684 	"/>
	<polygon style="fill:#F09318;" points="165.378,455.144 142.81,405.778 79.631,405.778 79.631,504.507 142.809,504.507 
		142.81,504.508 	"/>
	<polygon style="fill:#F09318;" points="369.191,208.319 369.19,208.317 346.621,257.684 369.19,307.049 432.368,307.049 
		432.368,208.319 	"/>
	<polygon style="fill:#F09318;" points="432.368,405.778 369.19,405.778 346.621,455.144 369.19,504.508 369.191,504.507 
		432.368,504.507 	"/>
</g>
<polygon style="fill:#D9D9D9;" points="256,208.319 226.935,343.688 256,504.507 369.193,504.507 369.193,208.319 "/>
<rect x="142.805" y="208.317" style="fill:#F0F0F0;" width="113.194" height="296.19"/>
<circle cx="223.627" cy="376.183" r="12.519"/>
<circle cx="288.38" cy="376.183" r="12.519"/>
<path d="M192.509,148.1c-4.142,0-7.5,3.358-7.5,7.5v11.49c0,4.142,3.358,7.5,7.5,7.5c4.142,0,7.5-3.358,7.5-7.5V155.6
	C200.01,151.458,196.651,148.1,192.509,148.1z"/>
<path d="M319.491,148.1c-4.142,0-7.5,3.358-7.5,7.5v11.49c0,4.142,3.358,7.5,7.5,7.5c4.142,0,7.5-3.358,7.5-7.5V155.6
	C326.991,151.458,323.633,148.1,319.491,148.1z"/>
<path d="M276.605,160.644c-3.119-2.726-7.856-2.408-10.583,0.711c-2.426,2.776-6.08,4.368-10.023,4.368
	c-3.943,0-7.596-1.592-10.023-4.369c-2.726-3.119-7.465-3.437-10.583-0.711c-3.119,2.726-3.438,7.464-0.711,10.583
	c5.275,6.036,13.045,9.498,21.318,9.498s16.043-3.461,21.318-9.497C280.043,168.109,279.725,163.37,276.605,160.644z"/>
<path d="M72.132,504.499c0,4.142,3.358,7.5,7.5,7.5h352.735c4.142,0,7.5-3.358,7.5-7.5V223.508l0.729,0.558
	c3.245,2.486,8.032,1.848,10.515-1.391l35.355-46.139c2.52-3.288,1.896-7.996-1.391-10.515L278.239,7.525
	c-13.093-10.033-31.384-10.033-44.48,0L110.705,101.82c-3.288,2.52-3.911,7.227-1.391,10.515c2.52,3.287,7.228,3.911,10.515,1.391
	l123.054-94.295c7.722-5.917,18.509-5.917,26.231,0l200.883,153.934l-26.231,34.231L260.562,67.21c-2.691-2.063-6.433-2.063-9.124,0
	L68.233,207.597l-26.232-34.231l53.807-41.231c3.288-2.52,3.911-7.227,1.391-10.515c-2.519-3.288-7.227-3.911-10.515-1.391
	l-59.76,45.794c-3.288,2.52-3.911,7.227-1.391,10.515c0,0,35.331,46.108,35.355,46.139c1.349,1.76,3.487,2.795,5.691,2.882
	c2.158,0.086,3.886-0.772,5.553-2.049C72.132,223.509,72.132,504.499,72.132,504.499z M87.133,215.812h48.174v83.729H87.133V215.812
	z M256,82.612l154.249,118.2l-308.498-0.001L256,82.612z M248.499,496.999h-98.192V215.812h98.192V496.999z M87.133,314.542h48.174
	v83.729H87.133V314.542z M376.693,314.542h48.174v83.729h-48.174V314.542z M424.867,299.541h-48.175v-83.729h48.174v83.729H424.867z
	 M87.133,413.271h48.174V497H87.133V413.271z M263.5,215.812h98.192v91.229v98.729V497H263.5V215.812z M424.867,496.999h-48.175
	V413.27h48.174v83.729H424.867z"/>
<g>
</g>
<g>
</g>
<g>
</g>
<g>
</g>
<g>
</g>
<g>
</g>
<g>
</g>
<g>
</g>
<g>
</g>
<g>
</g>
<g>
</g>
<g>
</g>
<g>
</g>
<g>
</g>
<g>
</g>
</svg>
