<?xml version="1.0" encoding="iso-8859-1"?>
<!-- Generator: Adobe Illustrator 19.0.0, SVG Export Plug-In . SVG Version: 6.00 Build 0)  -->
<svg version="1.1" id="Capa_1" xmlns="http://www.w3.org/2000/svg" xmlns:xlink="http://www.w3.org/1999/xlink" x="0px" y="0px"
	 viewBox="0 0 512 512" style="enable-background:new 0 0 512 512;" xml:space="preserve">
<path style="fill:#999999;" d="M499.169,176.744l4.945-18.794c2.266-8.611-5.592-16.47-14.204-14.204l-18.793,4.945
	c-1.991,0.524-3.807,1.567-5.262,3.023L349.383,268.188c-7.018,7.018-18.397,7.018-25.415,0l-12.224-12.224
	c-7.018-7.018-7.018-18.397,0-25.415l116.471-116.471c1.456-1.456,2.499-3.272,3.023-5.263l4.945-18.793
	c2.266-8.611-5.592-16.47-14.204-14.204l-18.794,4.945c-1.991,0.524-3.807,1.567-5.262,3.023l-116.471,116.47
	c-7.018,7.018-18.397,7.018-25.415,0l-12.224-12.224c-7.018-7.018-7.018-18.397,0-25.415L360.284,46.144
	c1.456-1.456,2.499-3.272,3.023-5.262l4.945-18.794c2.266-8.611-5.592-16.47-14.204-14.204l-18.793,4.945
	c-1.991,0.524-3.807,1.567-5.262,3.023L191.852,153.994c-16.164,16.164-16.164,42.369,0,58.532l0,0
	c13.29,13.29,15.957,33.869,6.491,50.108l-18.663,32.019l5.758,31.907l31.907,5.758l32.019-18.663
	c16.239-9.465,36.817-6.799,50.108,6.491l0,0c16.164,16.164,42.369,16.164,58.532,0l138.141-138.141
	C497.602,180.55,498.645,178.734,499.169,176.744z"/>
<path style="fill:#B3B3B3;" d="M226.049,341.022l-55.073-55.073c-7.221-7.221-18.929-7.221-26.15,0
	c-7.221,7.221-7.221,18.929,0,26.15l11.827,42.114l43.246,12.959c7.221,7.221,18.929,7.221,26.15,0S233.271,348.243,226.049,341.022
	z"/>
<path style="fill:#999999;" d="M211.907,326.88c7.221,7.221,7.221,18.929,0,26.15c-7.221,7.221-18.929,7.221-26.15,0l-32.14-9.631
	l3.037,10.814l43.246,12.96c7.221,7.221,18.929,7.221,26.15,0s7.221-18.929,0-26.15L211.907,326.88z"/>
<path style="fill:#C86D5C;" d="M105.237,486.241c65.532-71.383,94.664-119.068,94.664-119.068l-55.073-55.073
	c0,0-47.686,29.131-119.068,94.664c-23.608,21.673-24.467,58.622-1.806,81.284l0,0C46.614,510.708,83.563,509.849,105.237,486.241z
	 M60.695,451.304c-8.457-8.457-8.457-22.17,0-30.627c8.457-8.457,22.17-8.457,30.627,0c8.457,8.457,8.457,22.17,0,30.627
	C82.864,459.762,69.153,459.762,60.695,451.304z"/>
<path style="fill:#B24D40;" d="M105.237,486.241c65.532-71.383,94.664-119.068,94.664-119.068l-14.143-14.143
	c0,0-29.131,47.686-94.664,119.068c-19.362,21.09-50.907,24.009-73.574,8.238c1.883,2.706,4.015,5.293,6.432,7.71l0,0
	C46.614,510.708,83.563,509.849,105.237,486.241z"/>
<path d="M55.482,415.444c-5.304,5.304-8.62,12.594-8.62,20.537c0,15.878,13.29,29.142,29.156,29.142
	c15.892,0,29.156-13.277,29.157-29.142c0-15.894-13.284-29.157-29.156-29.157C68.073,406.824,60.784,410.142,55.482,415.444z
	 M90.174,435.981c0,12.375-15.448,18.726-24.166,10.01c-8.704-8.702-2.306-24.159,10.008-24.16
	C83.737,421.831,90.173,428.266,90.174,435.981z"/>
<path d="M506.432,178.642c0,0,4.942-18.78,4.945-18.794c3.665-13.927-9.456-27.029-23.365-23.366l-18.793,4.946
	c-3.272,0.861-6.266,2.58-8.658,4.972c0,0-116.325,116.325-116.472,116.472c-4.046,4.046-10.767,4.041-14.808,0l-12.224-12.224
	c-4.083-4.083-4.083-10.726,0-14.809l116.471-116.471c2.393-2.393,4.112-5.386,4.973-8.657c0,0,4.941-18.779,4.945-18.793
	c3.666-13.932-9.456-27.024-23.366-23.366l-18.792,4.945c-3.272,0.86-6.267,2.58-8.658,4.973l-116.472,116.47
	c-4.083,4.083-10.726,4.082-14.809,0l-12.224-12.225c-4.083-4.083-4.083-10.725,0-14.809l116.472-116.47
	c2.392-2.392,4.111-5.385,4.972-8.657c0,0,4.942-18.779,4.946-18.793c3.665-13.928-9.472-27.023-23.366-23.366l-18.793,4.945
	c-3.272,0.861-6.266,2.581-8.657,4.972l-21.349,21.349c-2.929,2.929-2.929,7.678,0,10.606c2.929,2.929,7.678,2.929,10.606,0
	l21.348-21.349c0.516-0.516,1.162-0.887,1.868-1.073l18.795-4.946c3.024-0.794,5.831,2.036,5.04,5.042l-4.946,18.793
	c-0.186,0.706-0.557,1.352-1.073,1.868l-116.47,116.473c-9.931,9.931-9.931,26.09,0,36.022l12.225,12.225
	c9.931,9.93,26.091,9.93,36.022,0L403.239,89.077c0.516-0.516,1.161-0.886,1.867-1.072l18.795-4.946
	c3.022-0.793,5.831,2.038,5.04,5.042l-4.945,18.794c-0.186,0.706-0.557,1.351-1.073,1.868l-116.473,116.47
	c-9.931,9.931-9.931,26.09,0,36.022c0,0,12.214,12.214,12.224,12.224c9.813,9.813,26.225,9.798,36.022,0l116.472-116.472
	c0.516-0.516,1.162-0.887,1.868-1.073c0,0,18.787-4.944,18.793-4.946c2.952-0.777,5.847,1.98,5.042,5.042l-4.945,18.794
	c-0.186,0.706-0.557,1.352-1.073,1.868L352.711,314.834c-13.212,13.212-34.711,13.212-47.925,0
	c-15.685-15.686-40.023-18.838-59.188-7.668l-27.025,15.753l-29.491-29.491l15.752-27.026c11.17-19.164,8.017-43.504-7.667-59.188
	c-13.048-13.048-13.026-34.899,0-47.926l95.731-95.731c2.929-2.929,2.929-7.678,0-10.606c-2.929-2.929-7.678-2.929-10.606,0
	l-95.731,95.731c-19.062,19.062-19.062,50.077,0,69.139c10.872,10.872,13.057,27.743,5.315,41.028l-13.762,23.611l-1.822-1.822
	c-4.909-4.909-11.436-7.612-18.378-7.612s-13.469,2.704-18.378,7.612c-7.908,7.908-9.644,19.688-5.209,29.295
	c-15.49,10.244-56.949,39.263-113.628,91.296c-12.963,11.899-20.308,28.13-20.684,45.704c-0.375,17.53,6.247,34.011,18.645,46.409
	C30.724,505.405,46.657,512,63.66,512c0.468,0,0.938-0.005,1.408-0.015c17.573-0.375,33.804-7.72,45.704-20.682
	c19.133-20.842,37.043-41.709,53.234-62.021c2.582-3.239,2.049-7.958-1.19-10.54s-7.958-2.048-10.54,1.19
	c-15.975,20.042-33.656,40.642-52.554,61.226c-9.107,9.92-21.528,15.543-34.974,15.83c-13.386,0.288-26.003-4.776-35.481-14.254
	c-9.478-9.478-14.541-22.079-14.254-35.481c0.287-13.446,5.908-25.866,15.83-34.973c56.971-52.302,99.083-81.457,112.968-90.609
	l46.525,46.525c-3.577,5.437-10.204,15.185-20.031,28.374c-2.475,3.322-1.788,8.021,1.533,10.495
	c3.322,2.474,8.021,1.788,10.495-1.533c9.387-12.6,15.879-22.058,19.721-27.852c3.382,1.569,7.092,2.4,10.932,2.4
	c6.942,0,13.469-2.704,18.378-7.613c10.133-10.133,10.133-26.623,0-36.756l-1.821-1.821l23.61-13.763
	c13.285-7.742,30.155-5.556,41.028,5.315c19.062,19.062,50.078,19.062,69.139,0L501.46,187.299
	C503.852,184.907,505.571,181.914,506.432,178.642z M220.756,361.858c-4.183,4.184-11.278,4.263-15.543,0l-55.073-55.072
	c-4.285-4.285-4.285-11.257,0-15.543c4.239-4.239,11.308-4.234,15.543,0l55.073,55.073
	C225.041,350.601,225.041,357.573,220.756,361.858z"/>
<g>
</g>
<g>
</g>
<g>
</g>
<g>
</g>
<g>
</g>
<g>
</g>
<g>
</g>
<g>
</g>
<g>
</g>
<g>
</g>
<g>
</g>
<g>
</g>
<g>
</g>
<g>
</g>
<g>
</g>
</svg>
