<?xml version="1.0" encoding="iso-8859-1"?>
<!-- Generator: Adobe Illustrator 19.0.0, SVG Export Plug-In . SVG Version: 6.00 Build 0)  -->
<svg version="1.1" id="Capa_1" xmlns="http://www.w3.org/2000/svg" xmlns:xlink="http://www.w3.org/1999/xlink" x="0px" y="0px"
	 viewBox="0 0 512 512" style="enable-background:new 0 0 512 512;" xml:space="preserve">
<path style="fill:#333E40;" d="M313.109,408.311c4.63,43.41-10.418,63.885-10.418,63.885h-71.772v-29.157
	c-50.356,33.571-90.484,28.94-118.489,28.94H7.5v-37.043l38.78-31.834l188.111-35.307L313.109,408.311z"/>
<path style="fill:#FAA330;" d="M348.995,117.751l-98.011-30.322l-99.94,30.322c0,0,12.734,115.761-9.261,179.429
	S7.5,298.338,7.5,434.936h104.929c28.006,0,55.83-4.495,82.411-13.313l0,0c26.581-8.818,54.405-13.313,82.411-13.313h35.858
	c4.823-23.514,3.052-45.458,0.248-61.088c-2.886-16.085-1.43-32.631,4.345-47.919C349.956,213.908,348.995,117.751,348.995,117.751z
	"/>
<path style="fill:#F09318;" d="M348.994,117.752L250.983,87.43l-99.94,30.322c0,0,1.3,11.833,2.352,30H347.93
	C349.108,129.222,348.994,117.752,348.994,117.752z"/>
<path style="fill:#FAA330;" d="M355.474,37.925c-2.971-12.47-14.097-21.272-26.916-21.272h-155.15
	c-12.819,0-23.944,8.802-26.916,21.272c-4.596,19.288-10.113,39.303-10.113,79.826h229.207
	C365.587,77.229,360.07,57.214,355.474,37.925z"/>
<path style="fill:#3B484A;" d="M452.022,431.463c4.63,43.41-10.418,63.885-10.418,63.885h-71.772v-29.157
	c-50.356,33.571-90.484,28.94-118.489,28.94h-104.93v-37.043l38.78-31.834l188.111-35.307L452.022,431.463z"/>
<path style="fill:#FFCE1C;" d="M487.908,140.904l-98.011-30.322l-99.94,30.322c0,0,12.734,115.761-9.261,179.429
	s-134.283,1.158-134.283,137.755h104.929c28.006,0,55.83-4.495,82.411-13.313l0,0c26.581-8.818,54.405-13.313,82.411-13.313h35.858
	c4.823-23.514,3.052-45.458,0.248-61.088c-2.886-16.085-1.43-32.631,4.345-47.919C488.869,237.06,487.908,140.904,487.908,140.904z"
	/>
<path style="fill:#FAA330;" d="M487.908,140.904l-98.011-30.322l-99.94,30.322c0,0,1.3,11.833,2.352,30h194.535
	C488.022,152.374,487.908,140.904,487.908,140.904z"/>
<path style="fill:#FFCE1C;" d="M494.387,61.078c-2.971-12.47-14.097-21.272-26.916-21.272h-155.15
	c-12.819,0-23.944,8.802-26.916,21.272c-4.596,19.288-10.113,39.303-10.113,79.826H504.5
	C504.5,100.381,498.983,80.366,494.387,61.078z"/>
<path d="M7.5,479.479c0,0,104.856,0,104.929,0c6.6,0,13.197,0.214,19.797,0.214c2.359,0,4.565-0.024,6.687-0.071v15.509
	c0,4.142,3.358,7.5,7.5,7.5c0,0,104.91,0,104.929,0c6.663,0,13.324,0.218,19.988,0.218c24.267,0,54.902-2.416,91.001-23.18v15.678
	c0,4.142,3.358,7.5,7.5,7.5h71.772c2.386,0,4.63-1.136,6.043-3.058c0.679-0.924,16.433-22.981,11.94-67.979
	c4.88-24.813,2.753-47.776,0.065-62.761c-2.659-14.818-1.283-30.014,3.979-43.944c27.527-72.878,31.245-152.13,31.717-176.703h9.153
	c4.142,0,7.5-3.358,7.5-7.5c0-38.718-4.991-59.438-9.394-77.719c-4.131-17.211-16.277-30.879-35.134-30.879H361.604
	c-4.998-13.812-18.06-23.152-33.044-23.152c0,0-155.02,0-155.15,0c-18.732,0-31.035,13.798-35.134,30.879
	c-4.403,18.281-9.394,39-9.394,77.719c0,4.142,3.358,7.5,7.5,7.5h7.848c2.247,25.348,8.687,116.732-9.535,169.48
	c-7.353,21.284-26.423,25.838-50.567,31.604C46.646,335.286,0,346.426,0,434.935v37.043C0,476.121,3.358,479.479,7.5,479.479z
	 M112.429,464.479H15v-22.043c0,0,97.428,0,97.429,0c8.892,0,17.789-0.454,26.637-1.335c0.158-0.016,0.317-0.026,0.476-0.042
	c-0.02,0.252-0.032,0.513-0.051,0.766c-0.551,7.522-0.578,15.197-0.578,22.795C136.803,464.669,119.028,464.479,112.429,464.479z
	 M449.598,319.805c-6.219,16.465-7.848,34.41-4.711,51.894c2.279,12.703,4.137,31.635,0.875,52.264h-26.349
	c-4.142,0-7.5,3.358-7.5,7.5c0,4.142,3.358,7.5,7.5,7.5h25.717c1.636,26.475-4.653,42.582-7.833,48.885h-59.965v-21.657
	c0-2.766-1.522-5.308-3.961-6.613c-2.438-1.305-5.398-1.163-7.699,0.373c-43.197,28.798-77.533,28.234-105.119,27.783
	c-3.214-0.053-6.249-0.103-9.21-0.103h-97.429v-22.043h97.429c28.859,0,57.381-4.607,84.772-13.694
	c17.593-5.836,35.872-9.747,54.327-11.624c4.121-0.419,7.122-4.099,6.703-8.22c-0.412-4.055-4.169-7.119-8.22-6.703
	c-17.101,1.739-34.058,5.127-50.513,10.087c-2.351,0.709-4.691,1.449-7.02,2.222c-25.865,8.581-52.798,12.931-80.049,12.931h-97.3
	c0.203-6,0.649-11.695,1.342-16.99c0.009-0.066,0.015-0.132,0.022-0.198c7.144-54.039,38.219-61.463,71.119-69.322
	c21.072-5.033,42.737-10.219,55.132-28.806c12.312-18.461,14.467-43.095,16.79-64.555c3.809-35.191,3.23-70.787,1.026-106.065
	c-0.343-5.215-0.74-10.426-1.198-15.632c-0.018-0.206-0.037-0.419-0.054-0.619H480.32
	C479.762,172.379,475.897,250.177,449.598,319.805z M487.092,62.815l0.932,3.881c4.104,17.04,8.338,34.618,8.911,66.706H282.862
	c0.096-5.199,0.293-10.22,0.59-15.009l0.011-0.195c1.175-18.765,4.86-37.137,9.239-55.382c2.149-8.954,10.407-15.511,19.62-15.511
	h155.15C476.848,47.305,484.916,53.683,487.092,62.815z M87.611,340.925c25.182-6.014,51.221-12.233,61.261-41.296
	c19.088-55.254,12.93-146.342,10.437-174.378h25.363c4.142,0,7.5-3.358,7.5-7.5s-3.358-7.5-7.5-7.5h-40.725
	c0.573-32.088,4.807-49.667,8.911-66.707l0.932-3.881c2.176-9.132,10.244-15.51,19.62-15.51h155.15c6.571,0,12.5,3.133,16.208,8.152
	h-32.445c-16.158,0-30.469,11.331-34.211,27.033c-3.448,14.371-6.78,28.744-8.358,43.467c-0.006,0.053-0.012,0.107-0.018,0.16
	c-0.253,2.253-0.487,4.587-0.698,7.015c-0.008,0.092-0.017,0.178-0.025,0.27h-54.341c-4.142,0-7.5,3.358-7.5,7.5s3.358,7.5,7.5,7.5
	h53.418c-0.202,5.215-0.295,10.433-0.295,15.652c0,4.142,3.358,7.5,7.5,7.5h7.847c4.854,54.828,8.746,116.566-9.534,169.481
	c-7.353,21.283-26.423,25.838-50.567,31.604c-24.216,5.783-52.253,12.489-69.069,40.376c-6.573,10.901-10.435,23.351-12.579,35.901
	c-0.23,0.026-0.46,0.051-0.69,0.077c-9.388,1.047-18.826,1.594-28.273,1.594H15.118C17.375,357.705,51.526,349.543,87.611,340.925z"
	/>
<g>
</g>
<g>
</g>
<g>
</g>
<g>
</g>
<g>
</g>
<g>
</g>
<g>
</g>
<g>
</g>
<g>
</g>
<g>
</g>
<g>
</g>
<g>
</g>
<g>
</g>
<g>
</g>
<g>
</g>
</svg>
