<?xml version="1.0" encoding="iso-8859-1"?>
<!-- Generator: Adobe Illustrator 19.0.0, SVG Export Plug-In . SVG Version: 6.00 Build 0)  -->
<svg version="1.1" id="Capa_1" xmlns="http://www.w3.org/2000/svg" xmlns:xlink="http://www.w3.org/1999/xlink" x="0px" y="0px"
	 viewBox="0 0 512 512" style="enable-background:new 0 0 512 512;" xml:space="preserve">
<g>
	<path style="fill:#FF5E6B;" d="M304.798,131.835L256,117.411l-48.798,14.423c-0.731,4.035-0.951,8.231-0.631,12.517l0.951,12.517
		L256,175.492l48.478-18.623l0.951-12.517C305.749,140.066,305.529,135.87,304.798,131.835z"/>
	<path style="fill:#FF5E6B;" d="M112.129,194.592l-13.368-3.725c-9.723-2.714-19.337,4.596-19.337,14.68v54.887
		c0,10.084,9.613,17.395,19.337,14.68l13.368-3.725l19.055-35.841L112.129,194.592z"/>
	<path style="fill:#FF5E6B;" d="M399.87,194.592l13.368-3.725c9.723-2.714,19.337,4.596,19.337,14.68v54.887
		c0,10.084-9.613,17.395-19.337,14.68l-13.368-3.725l-19.055-35.841L399.87,194.592z"/>
</g>
<rect x="217.897" y="236.907" style="fill:#B3B3B3;" width="76.213" height="154.215"/>
<path style="fill:#999999;" d="M294.105,310.384c-15.413,4.787-28.141,10.826-38.106,18.109
	c-9.965-7.282-22.694-13.321-38.106-18.109v80.743h76.213V310.384z"/>
<path style="fill:#2FC8B4;" d="M487.032,346.786c-19.55,1.093-48.713,7.267-75.518,30.722c0,0,2.406-16.841,14.197-33.945
	c5.113-7.417-1.073-17.362-9.949-15.822c-25.62,4.445-63.28,15.864-87.721,45.193c0,0,1.535-15.858,8.367-30.124
	c3.603-7.523-2.74-15.954-10.937-14.407c-25.302,4.772-61.475,15.556-69.469,38.814c-7.994-23.257-44.167-34.042-69.469-38.814
	c-8.197-1.546-14.54,6.884-10.937,14.407c6.832,14.266,8.367,30.124,8.367,30.124c-24.441-29.329-62.102-40.747-87.721-45.193
	c-8.876-1.54-15.063,8.403-9.949,15.822c11.79,17.106,14.196,33.945,14.196,33.945c-26.806-23.455-55.968-29.63-75.519-30.722
	c-8.547-0.478-13.806,9.142-8.765,16.063c7.143,9.805,13.209,21.439,17.869,31.711c7.291,16.078,23.306,26.402,40.959,26.402h361.94
	c17.654,0,33.668-10.324,40.959-26.402c4.659-10.272,10.725-21.906,17.869-31.711C500.838,355.929,495.58,346.309,487.032,346.786z"
	/>
<path style="fill:#00AE95;" d="M64.072,394.56c-4.659-10.272-10.725-21.906-17.869-31.711c-3.111-4.27-2.296-9.565,0.79-12.885
	c-8.098-1.899-15.586-2.817-22.026-3.177c-8.547-0.478-13.806,9.142-8.765,16.063c7.143,9.805,13.209,21.439,17.869,31.711
	c7.291,16.078,23.306,26.401,40.959,26.401h30.001C87.378,420.961,71.363,410.637,64.072,394.56z"/>
<g>
	<polygon style="fill:#B3B3B3;" points="304.477,156.87 298.339,237.912 213.661,237.912 207.523,156.87 	"/>
	<polygon style="fill:#B3B3B3;" points="187.134,215.512 187.134,250.47 112.129,271.389 112.129,194.592 	"/>
</g>
<path style="fill:#42C3E2;" d="M10.985,177.797c-11.429,11.429,5.683,36.169,44.055,44.055
	C47.154,183.481,22.414,166.368,10.985,177.797z"/>
<path style="fill:#00A6C8;" d="M10.985,288.182c-11.429-11.429,5.683-36.17,44.055-44.055
	C47.154,282.499,22.414,299.611,10.985,288.182z"/>
<polygon style="fill:#B3B3B3;" points="324.865,215.512 324.865,250.47 399.87,271.389 399.87,194.592 "/>
<path style="fill:#42C3E2;" d="M501.014,177.797c11.429,11.429-5.683,36.169-44.055,44.055
	C464.845,183.481,489.585,166.368,501.014,177.797z"/>
<path style="fill:#00A6C8;" d="M501.014,288.182c11.429-11.429-5.683-36.17-44.055-44.055
	C464.845,282.499,489.585,299.611,501.014,288.182z"/>
<g>
	<path style="fill:#D9D9D9;" d="M310.21,190.065H201.789c-23.707,0-42.925,19.219-42.925,42.925l0,0
		c0,23.707,19.219,42.925,42.925,42.925H310.21c23.707,0,42.925-19.219,42.925-42.925l0,0
		C353.135,209.282,333.917,190.065,310.21,190.065z"/>
	<path style="fill:#D9D9D9;" d="M304.798,131.835h-97.596c4.106-23.022,24.244-40.797,48.798-40.797
		S300.692,108.813,304.798,131.835z"/>
</g>
<path d="M200.545,218.71c-4.142,0-7.5,3.358-7.5,7.5v10.036c0,4.142,3.358,7.5,7.5,7.5s7.5-3.358,7.5-7.5V226.21
	C208.046,222.069,204.687,218.71,200.545,218.71z"/>
<path d="M311.454,243.747c4.142,0,7.5-3.358,7.5-7.5V226.21c0-4.142-3.358-7.5-7.5-7.5c-4.142,0-7.5,3.358-7.5,7.5v10.036
	C303.954,240.389,307.312,243.747,311.454,243.747z"/>
<path d="M255.999,249.104c7.499,0,14.545-3.142,19.334-8.619c2.726-3.119,2.408-7.857-0.711-10.583
	c-3.118-2.727-7.856-2.408-10.583,0.711c-1.939,2.218-4.87,3.491-8.04,3.491s-6.1-1.273-8.04-3.492
	c-2.727-3.118-7.464-3.437-10.583-0.71c-3.118,2.727-3.436,7.464-0.71,10.583C241.455,245.963,248.501,249.104,255.999,249.104z"/>
<path d="M53.531,229.2c2.45,0.503,5.044-0.275,6.813-2.043c1.783-1.783,2.551-4.343,2.043-6.813
	c-7.224-35.149-27.063-53.54-42.926-53.54c-5.292,0-10.057,1.968-13.779,5.69c-5.286,5.286-6.987,12.754-4.667,20.492
	C5.95,209.443,26.564,223.658,53.531,229.2z M16.288,183.102c0.897-0.897,1.875-1.297,3.173-1.297
	c5.823,0,17.733,8.767,24.899,29.342c-16.373-5.766-26.734-14.986-28.978-22.469C14.305,185.085,15.746,183.644,16.288,183.102z"/>
<path d="M19.461,299.175c15.864,0,35.702-18.391,42.926-53.54c0.507-2.47-0.26-5.03-2.043-6.813s-4.343-2.551-6.813-2.043
	c-26.967,5.542-47.582,19.757-52.517,36.214c-2.32,7.736-0.619,15.206,4.667,20.492C9.404,297.208,14.169,299.175,19.461,299.175z
	 M15.382,277.303c2.244-7.482,12.605-16.703,28.978-22.47c-7.166,20.575-19.077,29.342-24.899,29.342
	c-1.297,0-2.276-0.399-3.173-1.297C15.746,282.336,14.305,280.896,15.382,277.303z"/>
<path d="M506.317,172.494c-3.722-3.723-8.487-5.69-13.779-5.69c-15.864,0-35.702,18.391-42.926,53.54
	c-0.507,2.47,0.26,5.03,2.043,6.813c1.421,1.421,3.334,2.197,5.303,2.197c0.502,0,1.008-0.051,1.51-0.154
	c26.967-5.542,47.582-19.757,52.517-36.214C513.306,185.249,511.605,177.78,506.317,172.494z M496.617,188.678
	c-2.244,7.482-12.605,16.703-28.978,22.469c7.166-20.575,19.077-29.342,24.899-29.342c1.297,0,2.276,0.4,3.173,1.297
	C496.253,183.644,497.694,185.085,496.617,188.678z"/>
<path d="M510.985,272.995c-4.935-16.458-25.549-30.672-52.517-36.214c-2.47-0.508-5.03,0.26-6.813,2.043s-2.551,4.343-2.043,6.813
	c7.223,35.148,27.063,53.539,42.925,53.54h0.001c5.292,0,10.057-1.967,13.779-5.689C511.605,288.2,513.306,280.731,510.985,272.995z
	 M495.711,282.879c-0.897,0.897-1.875,1.296-3.172,1.296c-5.823,0-17.734-8.767-24.9-29.342
	c16.373,5.767,26.734,14.988,28.978,22.47C497.694,280.896,496.253,282.336,495.711,282.879z"/>
<path d="M484.76,397.658c5.516-12.162,11.269-22.388,17.101-30.393c4.051-5.562,4.528-12.763,1.245-18.796
	c-3.289-6.042-9.608-9.557-16.491-9.171c-16.133,0.902-38.219,5.05-60.51,18.349c1.581-3.171,3.488-6.498,5.782-9.826
	c8.686-12.6-2.294-30.085-17.408-27.467c-21.59,3.746-49.593,11.897-73.013,29.584c0.524-1.302,1.093-2.603,1.707-3.885
	c6.114-12.769-5.122-27.654-19.092-25.018c-8.353,1.575-15.811,3.381-22.474,5.359v-42.977h8.604
	c15.651,0,29.659-7.167,38.914-18.393c0,0,62.09,17.314,62.098,17.316c14.265,3.975,28.853-7.15,28.853-21.905c0,0,0-54.82,0-54.887
	c0-14.723-14.688-25.858-28.851-21.905l-62.099,17.316c-9.256-11.225-23.264-18.395-38.916-18.395h-0.158l2.855-37.651
	c0.351-4.691,0.131-9.355-0.641-13.875c-0.04-0.379-0.1-0.753-0.194-1.113c-5.091-26.914-28.576-46.387-56.072-46.387
	c-27.684,0-51.3,19.737-56.182,46.983c-0.846,4.682-1.091,9.523-0.726,14.4l2.854,37.643h-0.158
	c-15.652,0-29.66,7.168-38.916,18.395l-62.096-17.315c-14.283-3.988-28.854,7.081-28.854,21.904c0,0,0,54.842,0,54.887
	c0,14.693,14.699,25.857,28.85,21.906l62.101-17.317c9.256,11.224,23.264,18.393,38.914,18.393h8.604v42.977
	c-6.663-1.978-14.12-3.784-22.473-5.359c-13.996-2.639-25.213,12.239-19.092,25.018c0.614,1.282,1.182,2.582,1.707,3.885
	c-23.421-17.685-51.424-25.838-73.013-29.583c-15.151-2.629-26.087,14.874-17.408,27.467c2.294,3.328,4.201,6.655,5.782,9.826
	c-22.29-13.297-44.376-17.447-60.509-18.349c-14.549-0.813-23.841,16.17-15.247,27.967c5.831,8.005,11.584,18.231,17.101,30.393
	c8.486,18.713,27.245,30.804,47.791,30.804h52.7c4.142,0,7.5-3.358,7.5-7.5c0-4.142-3.358-7.5-7.5-7.5H75.03
	c-14.671,0-28.068-8.635-34.128-21.999c-5.936-13.089-12.206-24.202-18.637-33.029c-1.247-1.712-0.002-4.276,2.284-4.158
	c18.516,1.035,45.862,6.885,70.997,28.878c5.143,4.5,13.326,0.034,12.364-6.705c-0.108-0.759-2.801-18.796-15.447-37.141
	c-1.298-1.884,0.145-4.581,2.492-4.174c46.125,8.002,70.725,27.585,83.241,42.603c4.631,5.558,13.922,1.653,13.227-5.523
	c-0.068-0.701-1.747-17.354-9.07-32.644c-0.925-1.937,0.613-4.204,2.784-3.794c11.222,2.116,21.148,4.745,29.651,7.818
	c13.173,4.761,29.185,11.716,34.116,26.063c2.274,6.613,11.917,6.6,14.186,0.001c4.892-14.23,21.089-21.355,34.116-26.063
	c8.503-3.073,18.429-5.702,29.651-7.818c2.088-0.394,3.712,1.857,2.783,3.797c-7.32,15.285-9,31.936-9.068,32.64
	c-0.694,7.165,8.614,11.059,13.227,5.524c12.515-15.018,37.116-34.601,83.241-42.603c2.302-0.399,3.807,2.267,2.492,4.174
	c-12.643,18.344-15.337,36.378-15.446,37.14c-0.962,6.733,7.247,11.183,12.363,6.705c25.136-21.993,52.483-27.843,70.997-28.878
	c2.135-0.119,3.61,2.338,2.285,4.157c-6.43,8.827-12.701,19.94-18.637,33.029c-6.061,13.364-19.458,22-34.129,22H157.731
	c-4.142,0-7.5,3.358-7.5,7.5c0,4.142,3.358,7.5,7.5,7.5h279.238C457.514,428.462,476.272,416.371,484.76,397.658z M415.255,198.091
	c4.866-1.357,9.82,2.392,9.82,7.456c0,0,0,54.848,0,54.887c0,5.057-4.951,8.814-9.823,7.456l-7.882-2.197v-65.404L415.255,198.091z
	 M357.056,214.321l35.314-9.849v57.041l-35.315-9.85c2.362-5.915,3.581-12.304,3.581-18.672
	C360.636,226.629,359.418,220.227,357.056,214.321z M213.946,139.335h84.109c0.042,1.473-0.529,10.034-0.529,10.034h-83.051
	C214.474,149.369,213.904,140.81,213.946,139.335z M256,98.538c17.285,0,32.417,10.431,38.826,25.797h-77.654
	C223.582,108.969,238.716,98.538,256,98.538z M215.612,164.37h80.776l-1.378,18.195h-78.019L215.612,164.37z M96.744,267.89
	c-4.867,1.358-9.82-2.395-9.82-7.456c0,0,0-54.781,0-54.887c0-5.033,4.993-8.804,9.823-7.455l7.882,2.197v65.404L96.744,267.89z
	 M154.945,251.661l-35.315,9.85V204.47l35.314,9.849c-0.105,0.262-0.195,0.53-0.295,0.794c-2.161,5.69-3.284,11.792-3.284,17.88
	c0,6.096,1.12,12.19,3.29,17.888C154.753,251.14,154.842,251.404,154.945,251.661z M171.864,251.912
	c-3.569-5.63-5.499-12.254-5.499-18.922c0-6.672,1.927-13.293,5.502-18.927c6.287-9.905,17.346-16.499,29.922-16.499H310.21
	c12.577,0,23.636,6.594,29.924,16.501c3.567,5.621,5.5,12.265,5.5,18.924c0,6.654-1.937,13.305-5.501,18.925
	c-6.287,9.906-17.347,16.501-29.923,16.501H201.789C189.211,268.414,178.152,261.82,171.864,251.912z M225.394,283.415h61.211
	v48.238c-0.837,0.346-5.225,2.3-5.687,2.513c-10.895,5.137-19.228,11.189-24.919,18.115c-5.689-6.922-14.017-12.973-24.907-18.109
	c-0.128-0.061-4.86-2.172-5.699-2.519v-48.238H225.394z"/>
<g>
</g>
<g>
</g>
<g>
</g>
<g>
</g>
<g>
</g>
<g>
</g>
<g>
</g>
<g>
</g>
<g>
</g>
<g>
</g>
<g>
</g>
<g>
</g>
<g>
</g>
<g>
</g>
<g>
</g>
</svg>
