<?xml version="1.0" encoding="iso-8859-1"?>
<!-- Generator: Adobe Illustrator 19.0.0, SVG Export Plug-In . SVG Version: 6.00 Build 0)  -->
<svg version="1.1" id="Capa_1" xmlns="http://www.w3.org/2000/svg" xmlns:xlink="http://www.w3.org/1999/xlink" x="0px" y="0px"
	 viewBox="0 0 512 512" style="enable-background:new 0 0 512 512;" xml:space="preserve">
<path style="fill:#B3B3B3;" d="M418.574,252.304l-27.085,126.811c-3.39,15.865-15.916,27.85-31.913,30.537l-29.584,4.969
	c-2.201,0.369-4.4,0.549-6.57,0.549c-15.483,0-29.725-9.137-36.019-23.757l-35.613-82.715l29.592-12.74l35.612,82.715
	c1.292,2.998,4.445,4.721,7.662,4.175l29.584-4.968c2.878-0.484,5.132-2.641,5.742-5.495l27.084-126.811L418.574,252.304z"/>
<path style="fill:#B24D40;" d="M348.817,189.26c26.435,0,47.866-15.385,47.866-34.365s-21.43-34.366-47.866-34.366
	c-2.72,0-5.384,0.172-7.981,0.485c-6.336-13.651-24.265-23.497-45.408-23.497c-3.949,0-7.781,0.35-11.452,0.997
	c-8.377-9.975-23.611-16.646-41.017-16.646s-32.639,6.671-41.017,16.646c-3.671-0.647-7.503-0.997-11.452-0.997
	c-21.143,0-39.072,9.847-45.408,23.497c-2.596-0.313-5.26-0.485-7.981-0.485c-26.435,0-47.866,15.385-47.866,34.366
	s21.43,34.365,47.866,34.365H348.817z"/>
<circle style="fill:#3B484A;" cx="117.529" cy="351.957" r="78.173"/>
<circle style="fill:#D9D9D9;" cx="117.529" cy="351.957" r="35.832"/>
<polygon style="fill:#FF5E6B;" points="242.96,163.793 74.201,180.056 229.044,311.448 392.951,252.7 411.718,180.056 "/>
<polygon style="fill:#E63E4C;" points="411.718,180.056 242.96,163.793 74.201,180.056 109.561,210.06 403.967,210.06 "/>
<path style="fill:#FF5E6B;" d="M411.718,147.531H74.201c-8.981,0-16.263,7.281-16.263,16.263l0,0
	c0,8.981,7.281,16.263,16.263,16.263h337.517c8.981,0,16.263-7.281,16.263-16.263l0,0
	C427.981,154.812,420.699,147.531,411.718,147.531z"/>
<g>
	<polygon style="fill:#999999;" points="281.381,295.959 251.79,308.698 268.248,346.924 298.635,336.034 	"/>
	<polygon style="fill:#999999;" points="418.574,252.305 387.066,245.575 373.475,309.209 409.151,296.423 	"/>
</g>
<path style="fill:#B3B3B3;" d="M23.574,401.748c-6.609,0-12.807-4.099-15.164-10.679c-3.001-8.374,1.354-17.598,9.73-20.599
	l464.853-166.611c8.375-3.003,17.598,1.354,20.599,9.73c3.001,8.375-1.354,17.598-9.73,20.599L29.009,400.798
	C27.212,401.442,25.378,401.748,23.574,401.748z"/>
<path d="M480.464,196.798l-71.987,25.8l9.253-35.814c10.203-2.668,17.755-11.964,17.755-22.992
	c0-13.103-10.661-23.764-23.764-23.764h-11.086c-7.974-16.142-28.347-27.001-51.815-27.001c-1.263,0-2.537,0.034-3.817,0.101
	c-9.22-14.007-28.372-23.114-49.572-23.114c-2.889,0-5.784,0.17-8.646,0.507c-10.405-10.183-26.437-16.156-43.822-16.156
	c-17.386,0-33.418,5.974-43.823,16.156c-2.862-0.337-5.756-0.507-8.646-0.507c-21.199,0-40.351,9.106-49.572,23.114
	c-1.279-0.067-2.554-0.101-3.817-0.101c-23.469,0-43.841,10.86-51.815,27.001H74.203c-13.103,0-23.763,10.661-23.763,23.764
	c0,12.093,9.081,22.098,20.781,23.569l129.344,109.757l-13.472,4.829c-16.098-22.44-41.668-35.665-69.558-35.665
	c-47.242,0-85.676,38.434-85.676,85.676c0,1.826,0.067,3.685,0.192,5.559c0,0-16.431,5.889-16.441,5.893
	C3.505,367.748-2.992,381.484,1.35,393.6c4.325,12.065,18.136,18.583,30.191,14.259l16.436-5.891
	c16.098,22.44,41.668,35.666,69.558,35.666c47.242,0,85.677-38.434,85.677-85.677c0-1.826-0.066-3.685-0.192-5.559l49.24-17.649
	c0,0,28.245,65.603,28.257,65.63c8.4,19.512,29.792,31.145,50.722,27.639l29.583-4.97c19.05-3.198,33.968-17.474,38.006-36.367
	l24.162-113.124c0,0,73.356-26.292,73.407-26.31c12.091-4.334,18.594-18.097,14.259-30.191
	C506.316,198.952,492.585,192.451,480.464,196.798z M74.203,155.033h86.51c4.143,0,7.501-3.359,7.501-7.501
	c0-4.143-3.359-7.501-7.501-7.501h-57.12c7.346-7.299,19.794-11.999,33.512-11.999c5.2,0,11.989,2.162,14.784-3.858
	c5.235-11.278,21.109-19.154,38.604-19.154c5.31,0,13.169,3.114,17.196-1.679c7.237-8.616,20.753-13.969,35.273-13.969
	s28.034,5.352,35.272,13.968c4.011,4.775,11.905,1.68,17.197,1.68c17.495,0,33.369,7.876,38.604,19.154
	c2.786,6.004,9.611,3.859,14.784,3.859c13.717,0,26.166,4.7,33.511,11.999H190.578c-4.143,0-7.501,3.359-7.501,7.501
	c0,4.143,3.359,7.501,7.501,7.501H411.72c4.831,0,8.761,3.931,8.761,8.761s-3.931,8.76-8.761,8.76H74.203
	c-4.831,0-8.76-3.931-8.76-8.76C65.443,158.962,69.372,155.033,74.203,155.033z M94.829,335.015
	c5.196-6.95,13.49-11.389,22.706-11.389c2.311,0,4.585,0.278,6.783,0.819L94.829,335.015z M117.535,281.285
	c21.537,0,41.403,9.56,54.749,25.97l-28.526,10.225c-7.516-5.733-16.663-8.854-26.222-8.854c-20.266,0-37.614,14.045-42.158,33.362
	l-28.515,10.221c0-0.083,0-0.167,0-0.25C46.862,312.989,78.565,281.285,117.535,281.285z M140.241,368.9
	c-5.196,6.95-13.49,11.389-22.706,11.389c-2.31,0-4.585-0.278-6.782-0.819L140.241,368.9z M188.208,351.958
	c0,38.969-31.704,70.674-70.674,70.674c-21.536,0-41.402-9.56-54.748-25.97l28.527-10.225c7.516,5.733,16.663,8.854,26.222,8.854
	c20.267,0,37.615-14.045,42.159-33.362l28.515-10.221C188.208,351.791,188.208,351.875,188.208,351.958z M384.156,377.549
	c-2.743,12.835-12.877,22.533-25.82,24.706l-29.582,4.97c-14.301,2.396-28.723-5.452-34.46-18.776l-27.885-64.768l16.237-5.819
	c0,0,27.432,63.717,27.46,63.781c2.611,6.065,9.284,9.71,15.795,8.604l29.584-4.968c5.932-0.996,10.578-5.441,11.836-11.326
	l19.993-93.607l19.063-6.833L384.156,377.549z M296.797,312.788l73.905-26.488l-17.991,84.232l-28.957,4.868L296.797,312.788z
	 M496.131,222.661c-0.943,2.007-2.614,3.683-4.797,4.465c0,0-464.843,166.607-464.854,166.611
	c-4.358,1.561-9.412-0.751-11.006-5.199c-1.585-4.422,0.789-9.426,5.199-11.006l321.853-115.358c3.9-1.398,5.929-5.693,4.531-9.593
	c-1.364-3.811-5.774-5.898-9.593-4.531l-120.595,43.224L94.637,187.557h307.398l-10.635,41.163c0,0-25.993,9.316-26.024,9.327
	c-3.793,1.359-5.892,5.79-4.531,9.593c1.397,3.9,5.691,5.929,9.593,4.531c0,0,114.965-41.207,115.088-41.251
	c4.424-1.585,9.426,0.794,11.005,5.198C497.296,218.249,497.088,220.625,496.131,222.661z"/>
<g>
</g>
<g>
</g>
<g>
</g>
<g>
</g>
<g>
</g>
<g>
</g>
<g>
</g>
<g>
</g>
<g>
</g>
<g>
</g>
<g>
</g>
<g>
</g>
<g>
</g>
<g>
</g>
<g>
</g>
</svg>
