<?xml version="1.0" encoding="iso-8859-1"?>
<!-- Generator: Adobe Illustrator 19.0.0, SVG Export Plug-In . SVG Version: 6.00 Build 0)  -->
<svg version="1.1" id="Capa_1" xmlns="http://www.w3.org/2000/svg" xmlns:xlink="http://www.w3.org/1999/xlink" x="0px" y="0px"
	 viewBox="0 0 512 512" style="enable-background:new 0 0 512 512;" xml:space="preserve">
<path style="fill:#FF5E6B;" d="M301.598,301.2c7.431-27.658-10.133-52.096-10.133-52.096l-35.466-17.545l-35.466,17.544
	c0,0-17.564,24.438-10.133,52.096l45.599,17.545L301.598,301.2z"/>
<path style="fill:#E63E4C;" d="M240.399,301.2c-7.431-27.658,10.133-52.096,10.133-52.096l20.467-10.125l-15-7.42l-35.466,17.545
	c0,0-17.564,24.438-10.133,52.096l45.599,17.544l15-5.771L240.399,301.2z"/>
<path style="fill:#FF5E6B;" d="M255.999,416.659L77.972,434.203v37.839c0,17.926,14.532,32.457,32.457,32.457h291.139
	c17.926,0,32.457-14.532,32.457-32.457v-37.839L255.999,416.659z"/>
<path style="fill:#E63E4C;" d="M117.972,472.043v-37.839l158.027-15.574l-20-1.971L77.972,434.203v37.839
	c0,17.926,14.531,32.458,32.457,32.458h40C132.504,504.5,117.972,489.968,117.972,472.043z"/>
<path style="fill:#FF5E6B;" d="M301.598,336.289l-45.599-17.545l-45.6,17.545c0,0-54.719,16.213-54.719,62.826l100.319,17.544
	l100.319-17.544C356.318,352.502,301.598,336.289,301.598,336.289z"/>
<path style="fill:#E63E4C;" d="M185.68,399.114c0-46.613,54.719-62.826,54.719-62.826l30.6-11.773l-15-5.771l-45.6,17.545
	c0,0-54.719,16.213-54.719,62.826l100.319,17.544l15-2.624L185.68,399.114z"/>
<path style="fill:#FF5E6B;" d="M255.999,126.849l-107.094,17.544c0,0,12.18,54.759,71.628,69.621l35.466,17.545l35.466-17.544
	c59.448-14.862,71.628-69.621,71.628-69.621L255.999,126.849z"/>
<path style="fill:#E63E4C;" d="M250.533,214.014c-59.448-14.862-71.628-69.621-71.628-69.621l92.094-15.087l-15-2.458
	l-107.094,17.545c0,0,12.18,54.759,71.628,69.621l35.466,17.545l15-7.42L250.533,214.014z"/>
<path style="fill:#D9D9D9;" d="M434.026,399.115H77.972c-9.69,0-17.544,7.855-17.544,17.544l0,0c0,9.69,7.855,17.544,17.544,17.544
	h356.053c9.69,0,17.544-7.855,17.544-17.544l0,0C451.57,406.97,443.715,399.115,434.026,399.115z"/>
<path style="fill:#B3B3B3;" d="M100.428,416.659L100.428,416.659c0-9.69,7.855-17.545,17.544-17.545h-40
	c-9.69,0-17.544,7.855-17.544,17.544l0,0c0,9.689,7.855,17.544,17.544,17.544h40C108.283,434.204,100.428,426.349,100.428,416.659z"
	/>
<path style="fill:#D9D9D9;" d="M291.465,214.014h-70.933c-9.69,0-17.544,7.855-17.544,17.544l0,0c0,9.69,7.855,17.544,17.544,17.544
	h70.933c9.69,0,17.544-7.855,17.544-17.544l0,0C309.01,221.869,301.155,214.014,291.465,214.014z"/>
<path style="fill:#B3B3B3;" d="M232.988,231.559L232.988,231.559c0-9.689,7.855-17.544,17.544-17.544h-30
	c-9.689,0-17.544,7.855-17.544,17.544l0,0c0,9.69,7.855,17.545,17.544,17.545h30C240.843,249.104,232.988,241.249,232.988,231.559z"
	/>
<path style="fill:#D9D9D9;" d="M301.598,301.2h-91.199c-9.69,0-17.544,7.855-17.544,17.544l0,0c0,9.69,7.855,17.544,17.544,17.544
	h91.199c9.69,0,17.544-7.855,17.544-17.544l0,0C319.143,309.055,311.288,301.2,301.598,301.2z"/>
<path style="fill:#B3B3B3;" d="M222.855,318.744L222.855,318.744c0-9.689,7.855-17.544,17.544-17.544h-30
	c-9.69,0-17.544,7.855-17.544,17.544l0,0c0,9.689,7.855,17.544,17.544,17.544h30C230.71,336.289,222.855,328.434,222.855,318.744z"
	/>
<path style="fill:#FF5E6B;" d="M259.792,76.878h-7.585c-10.317,0-18.681,8.364-18.681,18.681v34.971h44.947V95.559
	C278.473,85.242,270.109,76.878,259.792,76.878z"/>
<path style="fill:#D9D9D9;" d="M363.093,109.304H148.905c-9.69,0-17.544,7.855-17.544,17.544l0,0c0,9.69,7.855,17.544,17.544,17.544
	h214.188c9.69,0,17.544-7.855,17.544-17.544l0,0C380.638,117.159,372.783,109.304,363.093,109.304z"/>
<path style="fill:#B3B3B3;" d="M161.36,126.849L161.36,126.849c0-9.689,7.855-17.544,17.544-17.544h-30
	c-9.69,0-17.544,7.855-17.544,17.544l0,0c0,9.69,7.855,17.545,17.544,17.545h30C169.215,144.394,161.36,136.539,161.36,126.849z"/>
<path d="M206.166,159.445c-4.143,0-7.5,3.358-7.5,7.5v9.019c0,4.142,3.357,7.5,7.5,7.5c4.142,0,7.5-3.358,7.5-7.5v-9.019
	C213.666,162.803,210.307,159.445,206.166,159.445z"/>
<path d="M305.832,183.464c4.143,0,7.5-3.358,7.5-7.5v-9.019c0-4.142-3.357-7.5-7.5-7.5c-4.142,0-7.5,3.358-7.5,7.5v9.019
	C298.332,180.106,301.691,183.464,305.832,183.464z"/>
<path d="M255.999,188.279c6.958,0,13.5-2.918,17.947-8.006c2.726-3.119,2.407-7.857-0.711-10.583
	c-3.12-2.727-7.857-2.407-10.583,0.711c-1.599,1.829-4.023,2.878-6.653,2.878c-2.63,0-5.054-1.049-6.653-2.878
	c-2.726-3.119-7.464-3.437-10.583-0.711s-3.437,7.464-0.711,10.583C242.5,185.361,249.041,188.279,255.999,188.279z"/>
<path d="M86.291,242.63c0,4.142,3.358,7.5,7.5,7.5s7.5-3.358,7.5-7.5v-44.318c0-4.142-3.358-7.5-7.5-7.5s-7.5,3.358-7.5,7.5V242.63z
	"/>
<path d="M86.291,299.41c0,4.143,3.358,7.5,7.5,7.5s7.5-3.357,7.5-7.5v-24.052c0-4.142-3.358-7.5-7.5-7.5s-7.5,3.358-7.5,7.5V299.41z
	"/>
<path d="M86.291,167.87c0,4.143,3.358,7.5,7.5,7.5s7.5-3.357,7.5-7.5v-57.086c0-4.142-3.358-7.5-7.5-7.5s-7.5,3.358-7.5,7.5V167.87z
	"/>
<path d="M93.791,85.211c4.142,0,7.5-3.358,7.5-7.5c0-34.579,28.132-62.711,62.711-62.711c23.261,0,44.498,12.773,55.421,33.336
	c1.943,3.658,6.484,5.048,10.142,3.104s5.048-6.484,3.104-10.142C219.137,15.825,192.825,0,164.002,0
	c-42.85,0-77.711,34.861-77.711,77.711C86.291,81.853,89.649,85.211,93.791,85.211z"/>
<path d="M425.707,198.312c0-4.142-3.358-7.5-7.5-7.5c-4.142,0-7.5,3.358-7.5,7.5v44.318c0,4.142,3.358,7.5,7.5,7.5
	c4.142,0,7.5-3.358,7.5-7.5V198.312z"/>
<path d="M418.207,267.858c-4.142,0-7.5,3.358-7.5,7.5v24.052c0,4.143,3.358,7.5,7.5,7.5c4.142,0,7.5-3.357,7.5-7.5v-24.052
	C425.707,271.216,422.349,267.858,418.207,267.858z"/>
<path d="M425.707,110.784c0-4.142-3.358-7.5-7.5-7.5c-4.142,0-7.5,3.358-7.5,7.5v57.086c0,4.143,3.358,7.5,7.5,7.5
	c4.142,0,7.5-3.357,7.5-7.5V110.784z"/>
<path d="M347.996,0c-28.823,0-55.135,15.825-68.668,41.298c-1.943,3.658-0.553,8.199,3.104,10.142
	c3.659,1.943,8.199,0.554,10.142-3.104C303.499,27.773,324.735,15,347.996,15c34.579,0,62.711,28.132,62.711,62.711
	c0,4.142,3.358,7.5,7.5,7.5c4.142,0,7.5-3.358,7.5-7.5C425.707,34.861,390.846,0,347.996,0z"/>
<path d="M110.43,512h291.139c22.033,0,39.958-17.925,39.958-39.958v-31.487c10.157-3.195,17.544-12.699,17.544-23.896
	c0-13.81-11.235-25.044-25.044-25.044h-70.649c-2.173-18.473-12.438-34.769-30.024-47.471c-4.65-3.358-9.307-6.093-13.513-8.266
	c4.213-4.483,6.803-10.51,6.803-17.134c0-10.716-6.767-19.877-16.25-23.446c2.256-17.128-3.083-32.276-7.561-41.434
	c8.109-4.15,13.677-12.587,13.677-22.305c0-6.135-2.221-11.758-5.896-16.118c22.648-9.804,36.839-25.243,45.179-37.62
	c7.286-10.813,11.236-20.819,13.137-26.622c11.003-2.637,19.208-12.551,19.208-24.351c0-13.81-11.235-25.044-25.044-25.044h-77.121
	v-6.245c0-14.437-11.745-26.181-26.181-26.181h-7.585c-14.437,0-26.181,11.745-26.181,26.181v6.245h-77.121
	c-13.81,0-25.044,11.235-25.044,25.045c0,11.8,8.206,21.713,19.208,24.351c1.9,5.803,5.851,15.808,13.137,26.622
	c8.34,12.377,22.53,27.815,45.179,37.62c-3.675,4.359-5.896,9.983-5.896,16.118c0,9.718,5.568,18.155,13.677,22.305
	c-4.478,9.158-9.817,24.306-7.561,41.434c-9.483,3.569-16.25,12.73-16.25,23.446c0,6.624,2.59,12.65,6.803,17.134
	c-4.206,2.173-8.863,4.907-13.512,8.266c-17.586,12.702-27.852,28.998-30.024,47.471h-70.65c-13.81,0-25.044,11.235-25.044,25.045
	c0,11.198,7.388,20.701,17.544,23.896v31.487C70.472,494.075,88.397,512,110.43,512z M241.025,95.559
	c0-6.165,5.016-11.181,11.181-11.181h7.585c6.165,0,11.181,5.016,11.181,11.181v6.245h-29.947L241.025,95.559L241.025,95.559z
	 M224.695,256.603h62.606c3.526,6.194,10.422,20.796,8.176,37.097H216.52C214.273,277.39,221.177,262.784,224.695,256.603z
	 M210.488,231.559c0-5.539,4.506-10.044,10.044-10.044h70.933c5.539,0,10.044,4.506,10.044,10.045
	c0,5.538-4.504,10.043-10.042,10.044h-0.002h-70.933h-0.002C214.993,241.602,210.488,237.097,210.488,231.559z M148.905,116.804
	h214.188c5.539,0,10.044,4.506,10.044,10.045c0,5.538-4.505,10.043-10.042,10.044h-0.002H148.905h-0.002
	c-5.537-0.001-10.042-4.506-10.042-10.044C138.86,121.31,143.366,116.804,148.905,116.804z M168.973,169.923
	c-4.592-6.726-7.684-13.13-9.671-18.03h193.397c-6.123,15.049-22.807,44.409-62.174,54.621h-69.053
	C199.288,200.766,181.628,188.458,168.973,169.923z M210.398,308.7L210.398,308.7h91.2l0,0c5.539,0,10.044,4.506,10.044,10.044
	s-4.506,10.044-10.045,10.044h-91.198c-5.539,0-10.045-4.506-10.045-10.044S204.86,308.7,210.398,308.7z M211.591,343.789h88.816
	c6.379,2.182,42.766,15.968,47.827,47.826h-184.47C168.825,359.757,205.211,345.97,211.591,343.789z M434.026,406.614
	c5.539,0,10.044,4.506,10.044,10.045s-4.506,10.044-10.044,10.044H153.359c-4.142,0-7.5,3.358-7.5,7.5s3.358,7.5,7.5,7.5h273.167
	v30.339c0,13.762-11.196,24.958-24.958,24.958H110.43c-13.762,0-24.958-11.196-24.958-24.958v-30.339h37.887
	c4.142,0,7.5-3.358,7.5-7.5s-3.358-7.5-7.5-7.5H77.972c-5.539,0-10.044-4.506-10.044-10.045s4.506-10.044,10.044-10.044H434.026z"/>
<g>
</g>
<g>
</g>
<g>
</g>
<g>
</g>
<g>
</g>
<g>
</g>
<g>
</g>
<g>
</g>
<g>
</g>
<g>
</g>
<g>
</g>
<g>
</g>
<g>
</g>
<g>
</g>
<g>
</g>
</svg>
