<?xml version="1.0" encoding="iso-8859-1"?>
<!-- Generator: Adobe Illustrator 19.0.0, SVG Export Plug-In . SVG Version: 6.00 Build 0)  -->
<svg version="1.1" id="Capa_1" xmlns="http://www.w3.org/2000/svg" xmlns:xlink="http://www.w3.org/1999/xlink" x="0px" y="0px"
	 viewBox="0 0 512 512" style="enable-background:new 0 0 512 512;" xml:space="preserve">
<path style="fill:#FF5E6B;" d="M483.294,384.181l7.331-8.771v-70.79l-5.331-9.735l5.331-5.264v-163.63H341.42H170.58H21.375v163.63
	l7.179,8.564l-7.179,6.435v70.79l5.299,7.049l-5.299,7.95v33.215c0,19.497,15.804,35.301,35.301,35.301H163.08l7.715-5.078
	l7.285,5.078h155.84l5.874-6.078l9.126,6.078h106.404c19.496,0,35.301-15.804,35.301-35.301V390.41L483.294,384.181z"/>
<path style="fill:#E63E4C;" d="M71.375,423.625V125.992h-50v163.63l7.179,8.564l-7.179,6.435v70.79l5.299,7.049l-5.299,7.95v33.215
	c0,19.497,15.804,35.301,35.301,35.301h50C87.179,458.926,71.375,443.122,71.375,423.625z"/>
<path style="fill:#2FC8B4;" d="M7.5,179.906c0,15.249,12.362,27.611,27.611,27.611l0,0c15.249,0,27.611-12.362,27.611-27.611v14.583
	c0,15.249,12.362,27.611,27.611,27.611l0,0c15.249,0,27.611-12.362,27.611-27.611v14.583c0,15.249,12.362,27.611,27.611,27.611l0,0
	c15.249,0,27.611-12.362,27.611-27.611v14.583c0,15.249,12.362,27.611,27.611,27.611l0,0c15.249,0,27.611-12.362,27.611-27.611
	v14.583c0,15.249,12.362,27.611,27.611,27.611l0,0c15.249,0,27.611-12.362,27.611-27.611v-14.583
	c0,15.249,12.362,27.611,27.611,27.611l0,0c15.249,0,27.611-12.362,27.611-27.611v-14.583c0,15.249,12.362,27.611,27.611,27.611l0,0
	c15.249,0,27.611-12.362,27.611-27.611V194.49c0,15.249,12.362,27.611,27.611,27.611l0,0c15.249,0,27.611-12.362,27.611-27.611
	v-14.583c0,15.249,12.362,27.611,27.611,27.611l0,0c15.249,0,27.611-12.362,27.611-27.611V91.206
	c0-21.059-17.072-38.131-38.131-38.131H45.631C24.572,53.074,7.5,70.146,7.5,91.206V179.906z"/>
<path style="fill:#00AE95;" d="M57.5,179.906V91.205c0-21.059,17.072-38.131,38.131-38.131h-50C24.572,53.074,7.5,70.146,7.5,91.206
	v88.701c0,15.249,12.362,27.611,27.611,27.611l0,0c11.057,0,20.591-6.501,25-15.887C58.439,188.07,57.5,184.098,57.5,179.906z"/>
<path style="fill:#FF5E6B;" d="M135.707,133.044c12.945-12.618,5.802-34.602-12.087-37.201l0,0c-8-16.21-31.116-16.21-39.116,0l0,0
	c-17.889,2.599-25.032,24.584-12.088,37.201l0,0c-3.056,17.817,15.645,31.404,31.645,22.992l0,0l0,0
	C120.062,164.449,138.763,150.861,135.707,133.044L135.707,133.044z"/>
<circle style="fill:#FAA330;" cx="104.06" cy="121.139" r="12.374"/>
<path style="fill:#FF5E6B;" d="M376.293,133.044c-12.945-12.618-5.802-34.602,12.087-37.201l0,0c8-16.21,31.116-16.21,39.116,0l0,0
	c17.889,2.599,25.032,24.584,12.087,37.201l0,0c3.056,17.817-15.645,31.404-31.645,22.992l0,0l0,0
	C391.938,164.449,373.237,150.861,376.293,133.044L376.293,133.044z"/>
<circle style="fill:#FAA330;" cx="407.94" cy="121.139" r="12.374"/>
<path style="fill:#FF5E6B;" d="M287.645,168.076c12.945-12.618,5.802-34.602-12.087-37.201l0,0c-8-16.21-31.116-16.21-39.116,0l0,0
	c-17.889,2.599-25.032,24.584-12.088,37.201l0,0c-3.056,17.817,15.645,31.404,31.645,22.992l0,0l0,0
	C272,199.479,290.701,185.893,287.645,168.076L287.645,168.076z"/>
<circle style="fill:#FAA330;" cx="256" cy="156.169" r="12.374"/>
<path d="M148.359,108.37c-3.074-9.463-10.533-16.539-19.92-19.159c-5.393-8.119-14.427-13.025-24.377-13.025
	c-9.949,0-18.984,4.907-24.377,13.025c-9.388,2.62-16.846,9.696-19.92,19.159c-3.073,9.458-1.201,19.563,4.847,27.199
	c-0.337,7.316,2.019,14.299,6.809,19.98c5.648,6.699,13.845,10.542,22.488,10.542c3.483,0,6.885-0.62,10.153-1.847
	c3.268,1.227,6.669,1.847,10.152,1.847h0.003c8.642,0,16.837-3.841,22.485-10.539c4.791-5.682,7.148-12.666,6.81-19.983
	C149.56,127.933,151.432,117.828,148.359,108.37z M130.472,127.675c-1.768,1.723-2.575,4.205-2.157,6.638
	c1.473,8.584-5.343,16.778-14.099,16.778c-2.287,0-4.529-0.569-6.664-1.692c-2.174-1.143-4.806-1.143-6.98,0
	c-2.136,1.123-4.377,1.692-6.663,1.692c-8.777,0-15.575-8.182-14.1-16.778c0.417-2.432-0.389-4.915-2.157-6.638
	c-8.351-8.137-3.545-22.742,7.931-24.409c2.443-0.355,4.554-1.889,5.647-4.102c5.167-10.47,20.515-10.435,25.665-0.001
	c1.093,2.214,3.204,3.748,5.646,4.103C134.041,104.938,138.801,119.555,130.472,127.675z"/>
<path d="M104.062,101.264c-10.959,0-19.875,8.916-19.875,19.875c0,10.958,8.916,19.874,19.875,19.874s19.875-8.916,19.875-19.874
	C123.936,110.18,115.021,101.264,104.062,101.264z M104.062,126.013c-2.688,0-4.875-2.187-4.875-4.874
	c0-2.688,2.187-4.875,4.875-4.875s4.875,2.187,4.875,4.875C108.936,123.826,106.75,126.013,104.062,126.013z"/>
<path d="M452.236,108.37c-3.074-9.463-10.533-16.539-19.92-19.159c-5.393-8.119-14.427-13.025-24.377-13.025
	s-18.984,4.907-24.377,13.025c-9.388,2.62-16.846,9.696-19.92,19.159c-3.073,9.458-1.201,19.563,4.847,27.199
	c-0.337,7.317,2.019,14.3,6.809,19.981c5.648,6.699,13.845,10.541,22.489,10.541c3.483,0,6.885-0.62,10.153-1.847
	c3.269,1.227,6.67,1.847,10.153,1.847c8.644,0,16.84-3.842,22.488-10.542c4.79-5.681,7.146-12.664,6.809-19.98
	C453.437,127.933,455.309,117.828,452.236,108.37z M434.349,127.675c-1.768,1.723-2.575,4.205-2.157,6.638
	c1.454,8.473-5.279,16.778-14.101,16.778c-2.285,0-4.527-0.569-6.663-1.692c-2.073-1.089-4.774-1.16-6.981,0
	c-2.136,1.123-4.377,1.692-6.663,1.692c-8.769,0-15.573-8.191-14.1-16.778c0.417-2.432-0.389-4.915-2.157-6.638
	c-8.368-8.155-3.558-22.74,7.931-24.409c2.443-0.355,4.554-1.889,5.647-4.103c5.167-10.465,20.511-10.444,25.665-0.001
	c1.093,2.214,3.204,3.748,5.646,4.103C437.923,104.939,442.678,119.556,434.349,127.675z"/>
<path d="M407.938,101.264c-10.959,0-19.875,8.916-19.875,19.875c0,10.958,8.916,19.874,19.875,19.874s19.875-8.916,19.875-19.874
	C427.813,110.18,418.897,101.264,407.938,101.264z M407.938,126.013c-2.688,0-4.875-2.187-4.875-4.874
	c0-2.688,2.187-4.875,4.875-4.875s4.875,2.187,4.875,4.875C412.813,123.826,410.626,126.013,407.938,126.013z"/>
<path d="M300.297,143.399c-3.074-9.462-10.533-16.539-19.92-19.159c-5.393-8.119-14.427-13.025-24.377-13.025
	s-18.984,4.907-24.377,13.025c-9.388,2.62-16.846,9.696-19.92,19.159c-3.073,9.458-1.201,19.563,4.847,27.199
	c-0.337,7.316,2.019,14.299,6.809,19.98c5.648,6.699,13.845,10.542,22.488,10.542c3.483,0,6.885-0.62,10.153-1.847
	c3.268,1.227,6.669,1.847,10.152,1.847h0.003c8.642,0,16.837-3.841,22.485-10.539c4.791-5.682,7.148-12.666,6.81-19.984
	C301.499,162.962,303.371,152.857,300.297,143.399z M282.411,162.704c-1.768,1.723-2.575,4.205-2.157,6.638
	c1.473,8.584-5.345,16.778-14.098,16.778c-2.276-0.035-4.53-0.569-6.666-1.692c-2.169-1.14-4.811-1.14-6.98,0
	c-2.136,1.123-4.377,1.692-6.663,1.692c-8.767,0-15.573-8.191-14.1-16.778c0.417-2.433-0.389-4.915-2.157-6.638
	c-8.366-8.153-3.563-22.739,7.931-24.409c2.443-0.355,4.554-1.889,5.647-4.102c5.171-10.474,20.514-10.437,25.665-0.001
	c1.093,2.214,3.204,3.748,5.646,4.103C286,139.97,290.753,154.572,282.411,162.704z"/>
<path d="M256,136.294c-10.959,0-19.875,8.916-19.875,19.875c0,10.958,8.916,19.874,19.875,19.874
	c10.959,0,19.875-8.916,19.875-19.874C275.875,145.21,266.959,136.294,256,136.294z M256,161.042c-2.688,0-4.875-2.187-4.875-4.874
	c0-2.688,2.187-4.875,4.875-4.875c2.688,0,4.875,2.187,4.875,4.875C260.875,158.855,258.688,161.042,256,161.042z"/>
<path d="M13.875,207.841v215.783c0,23.601,19.2,42.801,42.801,42.801h398.648c23.601,0,42.801-19.2,42.801-42.801V207.842
	C506.55,201.423,512,191.29,512,179.906v-88.7c0-25.161-20.47-45.631-45.631-45.631h-85.75c-4.142,0-7.5,3.358-7.5,7.5
	s3.358,7.5,7.5,7.5h85.75c16.89,0,30.631,13.741,30.631,30.631c0,0,0,88.666,0,88.701c0,10.905-9.203,20.111-20.111,20.111
	c-11.089,0-20.111-9.021-20.111-20.111c0-4.046-3.45-7.5-7.5-7.5c-4.046,0-7.5,3.449-7.5,7.5v14.583
	c0,11.089-9.021,20.111-20.111,20.111s-20.111-9.022-20.111-20.111c0-4.046-3.45-7.5-7.5-7.5c-4.047,0-7.5,3.449-7.5,7.5v14.583
	c0,11.089-9.022,20.111-20.111,20.111c-4.439,0-8.849-1.542-12.345-4.269c-4.821-3.76-7.765-9.688-7.765-15.842
	c0-4.047-3.448-7.5-7.5-7.5c-4.047,0-7.5,3.449-7.5,7.5v14.583c0,11.089-9.022,20.111-20.111,20.111s-20.111-9.022-20.111-20.111
	c0-4.044-3.451-7.5-7.5-7.5c-4.077,0-7.5,3.422-7.5,7.5v14.583c0,11.089-9.022,20.111-20.111,20.111s-20.111-9.021-20.111-20.111
	v-14.584c0-4.047-3.448-7.5-7.5-7.5c-4.017,0-7.5,3.474-7.5,7.5c0,11.089-9.021,20.111-20.111,20.111s-20.111-9.022-20.111-20.111
	c0,0,0-14.582,0-14.584c0-4.077-3.423-7.5-7.5-7.5c-4.026,0-7.5,3.482-7.5,7.5c0,7.704-4.726,15.036-11.724,18.25
	c-2.616,1.202-5.505,1.861-8.387,1.861c-11.089,0-20.111-9.022-20.111-20.111c0,0,0-14.581,0-14.583c0-4.001-3.431-7.5-7.5-7.5
	c-4.046,0-7.5,3.449-7.5,7.5c0,11.089-9.021,20.111-20.111,20.111s-20.111-9.022-20.111-20.111v-14.583c0-4.048-3.447-7.5-7.5-7.5
	c-4.046,0-7.5,3.449-7.5,7.5c0,11.089-9.021,20.111-20.111,20.111c-10.767,0-20.111-9.338-20.111-20.111V91.206
	c0-16.89,13.741-30.631,30.631-30.631h304.987c4.142,0,7.5-3.358,7.5-7.5s-3.358-7.5-7.5-7.5H45.631C20.47,45.574,0,66.044,0,91.206
	v88.701C0,191.29,5.45,201.423,13.875,207.841z M419.351,304.622v70.789H263.5v-70.789H419.351z M483.125,304.622v70.789h-48.774
	v-70.789H483.125z M248.5,375.41H92.649v-70.789H248.5V375.41z M28.875,375.41v-70.789h48.774v70.789H28.875z M28.875,423.625
	V390.41H163.08v61.016H56.676C41.346,451.426,28.875,438.954,28.875,423.625z M178.08,390.41h155.84v61.016H178.08V390.41z
	 M483.125,423.625c0,15.329-12.471,27.801-27.801,27.801H348.92V390.41h134.205V423.625z M399.278,221.516
	c0.38,0.315,0.767,0.623,1.16,0.923c4.366,3.328,9.57,5.631,14.999,6.608c2.022,0.363,4.104,0.553,6.23,0.553
	c14.981,0,27.8-9.43,32.833-22.667c6.082,5.047,13.887,8.083,22.389,8.083c2.061,0,4.186-0.188,6.236-0.56v75.164H348.92V239.49
	c4.469,2.585,9.559,4.205,14.984,4.595C379.213,245.186,393.821,235.869,399.278,221.516z M205.48,258.454
	c6.666-0.896,12.745-3.669,17.686-7.77c3.46,9.1,10.601,16.401,19.594,20.076c8.409,3.436,18.069,3.436,26.48,0
	c8.993-3.675,16.134-10.976,19.594-20.076c4.181,3.47,9.177,5.989,14.653,7.225c10.588,2.389,22.161-0.461,30.433-7.485v39.198
	H178.08v-39.198c4.82,4.091,10.724,6.829,16.959,7.866C198.485,258.864,202.017,258.919,205.48,258.454z M45.784,213.358
	c4.329-1.384,8.295-3.587,11.716-6.426c1.573,4.137,3.906,7.901,6.828,11.123c6.616,7.294,16.155,11.544,26.006,11.544
	c8.502,0,16.307-3.037,22.388-8.083c5.428,14.274,20.129,23.679,35.374,22.568c5.425-0.39,10.515-2.01,14.984-4.595v50.131H28.875
	v-75.164C34.48,215.488,40.358,215.098,45.784,213.358z"/>
<g>
</g>
<g>
</g>
<g>
</g>
<g>
</g>
<g>
</g>
<g>
</g>
<g>
</g>
<g>
</g>
<g>
</g>
<g>
</g>
<g>
</g>
<g>
</g>
<g>
</g>
<g>
</g>
<g>
</g>
</svg>
