<?xml version="1.0" encoding="iso-8859-1"?>
<!-- Generator: Adobe Illustrator 19.0.0, SVG Export Plug-In . SVG Version: 6.00 Build 0)  -->
<svg version="1.1" id="Capa_1" xmlns="http://www.w3.org/2000/svg" xmlns:xlink="http://www.w3.org/1999/xlink" x="0px" y="0px"
	 viewBox="0 0 512 512" style="enable-background:new 0 0 512 512;" xml:space="preserve">
<path style="fill:#2B853C;" d="M477.867,132.267c0.077,122.462-99.132,221.79-221.594,221.867
	c-14.199,0.009-28.365-1.348-42.3-4.045c-18.159,4.71-36.659,7.97-55.33,9.745c125.747,53.709,271.215-4.693,324.924-130.432
	c13.116-30.703,19.883-63.744,19.9-97.135C503.467,132.267,477.867,132.267,477.867,132.267z"/>
<path style="fill:#C92955;" d="M253.918,337.015c0.691,0,1.382,0.051,2.082,0.051c113.05-0.128,204.672-91.75,204.8-204.8h-4.838
	C420.506,225.954,347.128,300.314,253.918,337.015z"/>
<g>
	<path style="fill:#C0EBB5;" d="M256,345.6c-7.561-0.009-15.113-0.41-22.63-1.212c-6.391,2.065-12.8,3.994-19.396,5.7
		c120.226,23.287,236.561-55.296,259.849-175.522c2.697-13.935,4.053-28.1,4.045-42.3h-8.533
		C469.231,250.044,373.777,345.498,256,345.6z"/>
	<path style="fill:#C0EBB5;" d="M256,337.067c-0.7,0-1.391-0.043-2.082-0.051c-6.758,2.654-13.594,5.12-20.548,7.373
		c117.111,12.535,222.217-72.243,234.752-189.355c0.811-7.561,1.212-15.164,1.212-22.767H460.8
		C460.672,245.316,369.05,336.939,256,337.067z"/>
</g>
<path style="fill:#329A46;" d="M34.133,132.267h-25.6c-0.026,99.063,59.034,188.595,150.11,227.567
	c18.671-1.775,37.171-5.035,55.33-9.745C109.653,329.83,34.278,238.541,34.133,132.267z"/>
<path style="fill:#DE2D5D;" d="M253.918,337.015c93.21-36.702,166.588-111.061,202.044-204.749H51.2
	C51.337,244.497,141.696,335.761,253.918,337.015z"/>
<g>
	<path style="fill:#D1FFC5;" d="M42.667,132.267h-8.533c0.145,106.274,75.52,197.564,179.84,217.822
		c6.554-1.707,13.005-3.635,19.396-5.7C124.979,332.715,42.778,241.28,42.667,132.267z"/>
	<path style="fill:#D1FFC5;" d="M233.37,344.388c6.955-2.244,13.79-4.719,20.548-7.373C141.696,335.761,51.337,244.497,51.2,132.267
		h-8.533C42.778,241.28,124.979,332.715,233.37,344.388z"/>
</g>
<rect id="SVGCleanerId_0" x="110.933" y="157.867" width="17.067" height="17.067"/>
<rect id="SVGCleanerId_1" x="145.067" y="192" width="17.067" height="17.067"/>
<rect id="SVGCleanerId_2" x="204.8" y="209.067" width="17.067" height="17.067"/>
<rect id="SVGCleanerId_3" x="179.2" y="157.867" width="17.067" height="17.067"/>
<rect id="SVGCleanerId_4" x="238.933" y="157.867" width="17.067" height="17.067"/>
<rect id="SVGCleanerId_5" x="290.133" y="183.467" width="17.067" height="17.067"/>
<rect id="SVGCleanerId_6" x="256" y="217.6" width="17.067" height="17.067"/>
<rect id="SVGCleanerId_7" x="332.8" y="157.867" width="17.067" height="17.067"/>
<rect id="SVGCleanerId_8" x="341.333" y="192" width="17.067" height="17.067"/>
<rect id="SVGCleanerId_9" x="392.533" y="157.867" width="17.067" height="17.067"/>
<path d="M503.467,123.733H8.533c-4.71,0-8.533,3.823-8.533,8.533c0,141.389,114.611,256,256,256s256-114.611,256-256
	C512,127.556,508.177,123.733,503.467,123.733z M460.587,140.8c-5.163,112.99-100.941,200.405-213.931,195.243
	C140.894,331.213,56.243,246.562,51.413,140.8H460.587z M256,371.2C127.42,371.046,21.965,269.286,17.22,140.8h17.126
	c4.685,122.419,107.716,217.856,230.135,213.171c115.849-4.429,208.742-97.323,213.171-213.171h17.126
	C490.035,269.286,384.58,371.046,256,371.2z"/>
<g>
	<rect id="SVGCleanerId_0_1_" x="110.933" y="157.867" width="17.067" height="17.067"/>
</g>
<g>
	<rect id="SVGCleanerId_1_1_" x="145.067" y="192" width="17.067" height="17.067"/>
</g>
<g>
	<rect id="SVGCleanerId_2_1_" x="204.8" y="209.067" width="17.067" height="17.067"/>
</g>
<g>
	<rect id="SVGCleanerId_3_1_" x="179.2" y="157.867" width="17.067" height="17.067"/>
</g>
<g>
	<rect id="SVGCleanerId_4_1_" x="238.933" y="157.867" width="17.067" height="17.067"/>
</g>
<g>
	<rect id="SVGCleanerId_5_1_" x="290.133" y="183.467" width="17.067" height="17.067"/>
</g>
<g>
	<rect id="SVGCleanerId_6_1_" x="256" y="217.6" width="17.067" height="17.067"/>
</g>
<g>
	<rect id="SVGCleanerId_7_1_" x="332.8" y="157.867" width="17.067" height="17.067"/>
</g>
<g>
	<rect id="SVGCleanerId_8_1_" x="341.333" y="192" width="17.067" height="17.067"/>
</g>
<g>
	<rect id="SVGCleanerId_9_1_" x="392.533" y="157.867" width="17.067" height="17.067"/>
</g>
<g>
</g>
<g>
</g>
<g>
</g>
<g>
</g>
<g>
</g>
<g>
</g>
<g>
</g>
<g>
</g>
<g>
</g>
<g>
</g>
<g>
</g>
<g>
</g>
<g>
</g>
<g>
</g>
<g>
</g>
</svg>
