<?xml version="1.0" encoding="iso-8859-1"?>
<!-- Generator: Adobe Illustrator 19.0.0, SVG Export Plug-In . SVG Version: 6.00 Build 0)  -->
<svg version="1.1" id="Capa_1" xmlns="http://www.w3.org/2000/svg" xmlns:xlink="http://www.w3.org/1999/xlink" x="0px" y="0px"
	 viewBox="0 0 512 512" style="enable-background:new 0 0 512 512;" xml:space="preserve">
<g>
	<path style="fill:#307E45;" d="M157.89,149.718c23.216-5.904,47.609-5.241,70.468,1.919l27.646,8.547l29.216-8.024
		c27.507-7.64,56.775-5.922,83.201,4.884l-1.134,2.878l-54.421,14.216l29.303,28.431l-57.735-7.151l-28.431,42.647l-28.431-42.647
		l-63.927,7.151l42.647-28.431l-47.618-21.367L157.89,149.718z"/>
	<path style="fill:#307E45;" d="M264.726,154.428h-17.443v-0.872C247.117,95.925,270.019,40.632,310.879,0l12.332,12.332
		c-37.58,37.371-58.642,88.224-58.494,141.224v0.872H264.726z"/>
</g>
<path style="fill:#BA3637;" d="M167.039,481.214c27.402,14.521,57.944,22.1,88.957,22.065
	c106.443-0.48,192.348-87.16,191.868-193.612l0,0v-31.152C380.971,376.968,281.558,448.727,167.039,481.214z"/>
<path style="fill:#D83D40;" d="M447.872,278.514v-4.518c0-2.529-0.087-5.146-0.262-7.675
	c-2.922-48.717-33.804-91.338-79.189-109.278l-1.134,2.878l-54.421,14.216l29.303,28.431l-57.735-7.151l-28.431,42.647
	l-28.431-42.647l-63.927,7.151l42.647-28.431l-47.618-21.367l-0.785-3.052c-18.419,4.631-35.461,13.605-49.711,26.164
	c-28.126,24.829-44.182,60.595-44.042,98.114v35.67c-0.148,71.837,39.464,137.857,102.911,171.547
	C281.558,448.727,380.971,376.968,447.872,278.514z"/>
<path d="M256.004,512c111.214-0.602,200.956-91.12,200.589-202.334v-35.644c0-2.765-0.087-5.503-0.236-8.233
	c-2.355-40.432-22.946-77.593-55.973-101.027c-33.943-24.481-77.166-32.216-117.493-21.036l-17.931,4.954
	c1.047-51.272,21.934-100.146,58.258-136.348L310.879,0c-39.586,39.385-62.34,92.585-63.482,148.41l-16.431-5.102
	c-44.487-14.242-93.178-4.378-128.613,26.05c-29.888,26.574-46.973,64.668-46.947,104.664v35.644
	C55.049,420.88,144.782,511.398,256.004,512z M189.627,154.428c12.262,0.009,24.454,1.858,36.158,5.503l27.62,8.573
	c1.596,0.497,3.305,0.523,4.919,0.07l29.208-8.067c17.163-4.762,35.173-5.66,52.729-2.616l-29.652,7.736
	c-4.657,1.221-7.448,5.983-6.236,10.64c0.401,1.544,1.221,2.948,2.363,4.055l10.657,10.335l-31.946-3.933
	c-3.279-0.419-6.506,1.064-8.32,3.82l-21.132,31.824l-21.167-31.754c-1.779-2.747-4.971-4.23-8.215-3.829l-28.335,3.148
	l12.812-8.547c4.003-2.677,5.085-8.093,2.407-12.096c-0.907-1.361-2.189-2.442-3.68-3.114l-25.588-11.477
	C186.025,154.62,187.83,154.428,189.627,154.428z M72.858,274.022c-0.026-34.99,14.922-68.322,41.068-91.573
	c12.096-10.605,26.364-18.428,41.801-22.937l-0.576,1.299l33.141,14.826l-29.495,19.675c-4.003,2.677-5.076,8.093-2.398,12.096
	c1.805,2.695,4.962,4.169,8.198,3.82l58.685-6.515l25.475,38.217c2.669,4.012,8.085,5.093,12.096,2.416
	c0.959-0.637,1.779-1.456,2.416-2.416l25.44-38.164l52.406,6.454c4.779,0.584,9.131-2.817,9.715-7.596
	c0.331-2.704-0.628-5.416-2.581-7.317l-18.201-17.652l39.481-10.274l-0.375-1.422c7.404,3.297,14.46,7.317,21.071,12.009
	c28.737,20.364,46.659,52.676,48.726,87.832c0.131,2.398,0.201,4.823,0.201,7.247v35.618c0,101.149-81.997,183.147-183.147,183.147
	S72.857,410.816,72.857,309.666L72.858,274.022z"/>
<g>
</g>
<g>
</g>
<g>
</g>
<g>
</g>
<g>
</g>
<g>
</g>
<g>
</g>
<g>
</g>
<g>
</g>
<g>
</g>
<g>
</g>
<g>
</g>
<g>
</g>
<g>
</g>
<g>
</g>
</svg>
