<?xml version="1.0" encoding="iso-8859-1"?>
<!-- Generator: Adobe Illustrator 19.0.0, SVG Export Plug-In . SVG Version: 6.00 Build 0)  -->
<svg version="1.1" id="Capa_1" xmlns="http://www.w3.org/2000/svg" xmlns:xlink="http://www.w3.org/1999/xlink" x="0px" y="0px"
	 viewBox="0 0 512 512" style="enable-background:new 0 0 512 512;" xml:space="preserve">
<path style="fill:#D8DBE0;" d="M118.135,448c-0.512,0-1.015,0-1.527-0.043c25.677,14.063,54.485,21.419,83.755,21.376h111.275
	c96.521-0.009,174.754-78.242,174.763-174.763v-6.741c-0.017-22.468-5.99-44.527-17.323-63.923
	C405.709,360.568,268.774,448.009,118.135,448z"/>
<path style="fill:#E7EAF0;" d="M469.077,223.906c-12.937-22.281-32.341-40.107-55.637-51.106l-6.315-2.987
	c-35.9-16.845-64.179-46.532-79.275-83.2l-32.085-78.08h-79.531l-32.085,78.08c-15.095,36.668-43.375,66.355-79.275,83.2
	L98.56,172.8C54.016,193.783,25.6,238.592,25.6,287.829v6.741C25.574,358.511,60.476,417.365,116.608,448
	c0.512,0,1.015,0.043,1.527,0.043C268.783,448.043,405.726,360.585,469.077,223.906z"/>
<g>
	<path style="fill:#C0C2C7;" d="M253.756,69.12L256,40.329l2.244,28.757c3.456,45.21,22.938,87.697,54.929,119.825l0,0
		c17.331,19.755,30.575,42.761,38.946,67.669l16.213-5.444c-9.114-27.051-23.509-52.019-42.359-73.455l-6.426,5.615l6.025-6.042
		c-29.338-29.303-47.198-68.147-50.347-109.491l-2.816-36.087L256,32.964l-16.444-1.289l-2.816,36.122
		c-1.485,19.507-6.246,38.622-14.089,56.542l15.659,6.827C246.903,111.497,252.126,90.522,253.756,69.12z"/>
	<path style="fill:#C0C2C7;" d="M377.071,287.377l-16.862,2.611c8.439,53.154-5.111,107.46-37.547,150.417
		c-9.643,12.783-24.704,20.326-40.721,20.395h-51.883c-16.009-0.06-31.07-7.603-40.704-20.395
		c-56.474-75.375-52.702-179.942,9.071-251.042c9.293-9.267,17.587-19.482,24.747-30.481l-14.276-9.387
		c-6.63,10.163-14.319,19.601-22.921,28.16c-67.465,77.15-71.757,190.985-10.274,272.99c7.859,10.445,18.551,18.406,30.805,22.955
		l-23.219,14.046l8.841,14.592l40.311-24.371h15.027V512h17.067v-34.133h15.027l40.286,24.363l8.841-14.592L305.493,473.6
		c2.313-0.853,4.574-1.835,6.775-2.935c9.463-4.702,17.698-11.554,24.038-20.011C371.516,404.028,386.227,345.079,377.071,287.377z"
		/>
</g>
<path d="M417.05,165.094l-6.289-2.961c-33.988-15.949-60.749-44.066-75.008-78.797L303.616,5.282C302.302,2.082,299.179,0,295.723,0
	h-79.445c-3.456,0-6.579,2.082-7.893,5.282l-32.137,78.046c-14.259,34.731-41.028,62.848-75.017,78.805l-6.272,2.953
	c-47.445,22.477-77.756,70.229-77.892,122.735v6.733c0.085,100.881,81.604,182.775,182.485,183.313l-16.213,9.813l8.823,14.592
	l40.303-24.405h15.002V512h17.067v-34.133h15.002l40.32,24.363l8.823-14.592l-16.23-9.771
	c100.881-0.538,182.4-82.432,182.485-183.313v-6.733C494.797,235.324,464.495,187.571,417.05,165.094z M477.867,294.554
	c-0.119,85.538-65.058,157.073-150.187,165.436c3.157-2.825,6.042-5.939,8.61-9.31c35.209-46.635,49.946-105.583,40.841-163.302
	l-16.87,2.56c8.397,53.18-5.18,107.494-37.615,150.468c-9.643,12.8-24.713,20.343-40.738,20.395h-51.814
	c-16.009-0.051-31.07-7.578-40.713-20.352c-56.218-75.477-52.437-179.891,9.097-251.102c9.276-9.276,17.57-19.482,24.747-30.455
	l-14.285-9.335c-6.647,10.155-14.327,19.584-22.921,28.16c-67.089,77.303-71.347,190.874-10.24,272.99
	c2.569,3.362,5.444,6.477,8.602,9.301c-85.163-8.337-150.135-79.881-150.246-165.453v-6.733
	c0.119-45.901,26.615-87.646,68.096-107.298l6.272-2.944c37.828-17.783,67.618-49.092,83.499-87.757l29.995-72.755h68.011
	L320,89.822c15.889,38.665,45.687,69.973,83.524,87.748l6.289,2.961c41.464,19.661,67.942,61.397,68.053,107.29V294.554z"/>
<path d="M319.556,183.313l6.033-6.033c-29.303-29.329-47.164-68.173-50.347-109.508l-2.773-36.062L256,32.981l-16.452-1.271
	l-2.773,36.07c-1.493,19.499-6.272,38.596-14.14,56.499l15.625,6.827c8.644-19.652,13.892-40.627,15.531-62.037L256,40.337
	l2.21,28.749c3.507,45.21,22.989,87.689,54.963,119.842l0,0c17.331,19.746,30.566,42.743,38.955,67.644l16.213-5.444
	c-9.131-27.034-23.526-51.994-42.368-73.429L319.556,183.313z"/>
<g>
</g>
<g>
</g>
<g>
</g>
<g>
</g>
<g>
</g>
<g>
</g>
<g>
</g>
<g>
</g>
<g>
</g>
<g>
</g>
<g>
</g>
<g>
</g>
<g>
</g>
<g>
</g>
<g>
</g>
</svg>
