<?xml version="1.0" encoding="iso-8859-1"?>
<!-- Generator: Adobe Illustrator 19.0.0, SVG Export Plug-In . SVG Version: 6.00 Build 0)  -->
<svg version="1.1" id="Capa_1" xmlns="http://www.w3.org/2000/svg" xmlns:xlink="http://www.w3.org/1999/xlink" x="0px" y="0px"
	 viewBox="0 0 512.004 512.004" style="enable-background:new 0 0 512.004 512.004;" xml:space="preserve">
<path style="fill:#BA3637;" d="M191.729,457.74l7.378,12.716c5.615,9.761,13.656,17.92,23.333,23.677v-15.704h16.787v22.847
	c10.987,2.921,22.536,3.013,33.573,0.285v-23.132h16.787v16.401c10.215-5.842,18.684-14.319,24.508-24.542l106.679-184.988
	c8.645-14.848,13.303-31.668,13.547-48.849C381.401,335.986,295.697,414.17,191.729,457.74z"/>
<path style="fill:#D83E40;" d="M434.321,236.45c0.739-55.664-43.788-101.4-99.452-102.138c-0.462-0.008-0.923-0.008-1.385-0.008
	H179.047c-55.656,0.008-100.762,45.122-100.762,100.778c0,17.718,4.675,35.126,13.555,50.469l99.88,172.189
	C295.688,414.17,381.401,335.986,434.321,236.45z"/>
<path d="M222.44,478.429v15.704c5.237,3.147,10.886,5.556,16.787,7.143v-22.847H222.44z"/>
<path d="M272.8,478.429v23.132c5.875-1.452,11.524-3.718,16.787-6.715v-16.417H272.8z"/>
<path style="fill:#307E45;" d="M79.922,39.291c58.51-17.962,121.585,7.713,150.912,61.439l25.18-92.326l25.18,92.326l1.763-2.77
	c33.498-52.634,98.521-75.716,157.71-55.983l-35.084,8.729c-39.558,9.921-68.968,43.125-74.029,83.597H180.473
	c-5.061-40.473-34.471-73.676-74.029-83.597l-35.084-8.729L79.922,39.291z"/>
<rect id="SVGCleanerId_0" x="121.72" y="176.262" width="16.787" height="25.18"/>
<rect id="SVGCleanerId_1" x="172.08" y="176.262" width="16.787" height="25.18"/>
<rect id="SVGCleanerId_2" x="222.44" y="176.262" width="16.787" height="25.18"/>
<rect id="SVGCleanerId_3" x="272.8" y="176.262" width="16.787" height="25.18"/>
<rect id="SVGCleanerId_4" x="323.16" y="176.262" width="16.787" height="25.18"/>
<rect id="SVGCleanerId_5" x="373.52" y="176.262" width="16.787" height="25.18"/>
<rect id="SVGCleanerId_6" x="121.72" y="276.981" width="16.787" height="25.18"/>
<rect id="SVGCleanerId_7" x="172.08" y="276.981" width="16.787" height="25.18"/>
<rect id="SVGCleanerId_8" x="222.44" y="276.981" width="16.787" height="25.18"/>
<rect id="SVGCleanerId_9" x="272.8" y="276.981" width="16.787" height="25.18"/>
<rect id="SVGCleanerId_10" x="323.16" y="276.981" width="16.787" height="25.18"/>
<rect id="SVGCleanerId_11" x="373.52" y="276.981" width="16.787" height="25.18"/>
<rect id="SVGCleanerId_12" x="172.08" y="377.701" width="16.787" height="25.18"/>
<rect id="SVGCleanerId_13" x="222.44" y="377.701" width="16.787" height="25.18"/>
<rect id="SVGCleanerId_14" x="272.8" y="377.701" width="16.787" height="25.18"/>
<rect id="SVGCleanerId_15" x="323.16" y="377.701" width="16.787" height="25.18"/>
<rect id="SVGCleanerId_16" x="96.54" y="226.622" width="16.787" height="25.18"/>
<rect id="SVGCleanerId_17" x="146.9" y="226.622" width="16.787" height="25.18"/>
<rect id="SVGCleanerId_18" x="197.26" y="226.622" width="16.787" height="25.18"/>
<rect id="SVGCleanerId_19" x="247.62" y="226.622" width="16.787" height="25.18"/>
<rect id="SVGCleanerId_20" x="297.98" y="226.622" width="16.787" height="25.18"/>
<rect id="SVGCleanerId_21" x="348.34" y="226.622" width="16.787" height="25.18"/>
<rect id="SVGCleanerId_22" x="398.683" y="226.622" width="16.787" height="25.18"/>
<rect id="SVGCleanerId_23" x="146.9" y="327.341" width="16.787" height="25.18"/>
<rect id="SVGCleanerId_24" x="197.26" y="327.341" width="16.787" height="25.18"/>
<rect id="SVGCleanerId_25" x="247.62" y="327.341" width="16.787" height="25.18"/>
<rect id="SVGCleanerId_26" x="297.98" y="327.341" width="16.787" height="25.18"/>
<rect x="197.26" y="428.061" width="16.787" height="25.18"/>
<rect id="SVGCleanerId_27" x="247.62" y="428.061" width="16.787" height="25.18"/>
<rect x="297.98" y="428.061" width="16.787" height="25.18"/>
<rect id="SVGCleanerId_28" x="348.34" y="327.341" width="16.787" height="25.18"/>
<path d="M69.321,50.119l35.076,8.771c32.86,8.385,58.325,34.354,66.072,67.373c-60.079,4.725-104.95,57.251-100.224,117.33
	c1.276,16.266,6.186,32.037,14.369,46.155l107.191,184.913c13.253,23.224,37.996,37.501,64.738,37.342h0.101
	c26.775,0.126,51.535-14.21,64.746-37.493l106.595-184.988c30.09-52.206,12.162-118.933-40.044-149.023
	c-14.201-8.183-30.056-13.068-46.407-14.277c7.755-32.994,33.212-58.946,66.055-67.331l35.118-8.771
	c4.499-1.125,7.227-5.682,6.102-10.181c-0.697-2.787-2.77-5.019-5.489-5.926c-57.586-19.279-121.073-0.394-158.768,47.212
	L264.113,6.197c-1.217-4.474-5.825-7.118-10.299-5.9c-2.871,0.781-5.12,3.022-5.9,5.9l-20.219,74.146
	c-34.773-46.331-94.828-65.929-150.24-49.034l-8.595,2.644c-4.432,1.368-6.908,6.068-5.54,10.5
	C64.184,47.265,66.467,49.414,69.321,50.119z M413.446,188.835c16.703,28.504,16.719,63.806,0.05,92.326l-98.73,171.249v-24.341
	H297.98v25.18h16.283l-7.42,12.884c-4.297,7.445-10.189,13.841-17.257,18.725v-6.429H272.8v14.47
	c-5.254,1.519-10.701,2.3-16.174,2.317h-0.076c-5.875-0.025-11.717-0.932-17.324-2.686v-14.101H222.44v5.716
	c-6.564-4.776-12.044-10.878-16.107-17.903l-7.537-12.993h15.251v-25.18H197.26v22.528L99.142,281.329
	C73.568,237.214,88.6,180.727,132.707,155.153c14.067-8.158,30.04-12.447,46.306-12.456h154.479
	c33.036-0.193,63.596,17.458,79.946,46.163L413.446,188.835z M223.464,104.751c2.216,4.071,7.319,5.573,11.39,3.357
	c2.006-1.091,3.483-2.963,4.079-5.17l17.08-62.639l17.08,62.631c1.217,4.474,5.825,7.118,10.299,5.9
	c2.023-0.546,3.76-1.83,4.885-3.601l1.754-2.761c23.896-37.77,65.879-60.205,110.557-59.089
	c-38.827,11.096-68.212,42.94-76.161,82.531H187.616c-8.167-40.674-38.928-73.055-79.124-83.312l-0.562-0.134
	C155.336,38.687,200.559,63.061,223.464,104.751z"/>
<g>
	<rect id="SVGCleanerId_0_1_" x="121.72" y="176.262" width="16.787" height="25.18"/>
</g>
<g>
	<rect id="SVGCleanerId_1_1_" x="172.08" y="176.262" width="16.787" height="25.18"/>
</g>
<g>
	<rect id="SVGCleanerId_2_1_" x="222.44" y="176.262" width="16.787" height="25.18"/>
</g>
<g>
	<rect id="SVGCleanerId_3_1_" x="272.8" y="176.262" width="16.787" height="25.18"/>
</g>
<g>
	<rect id="SVGCleanerId_4_1_" x="323.16" y="176.262" width="16.787" height="25.18"/>
</g>
<g>
	<rect id="SVGCleanerId_5_1_" x="373.52" y="176.262" width="16.787" height="25.18"/>
</g>
<g>
	<rect id="SVGCleanerId_6_1_" x="121.72" y="276.981" width="16.787" height="25.18"/>
</g>
<g>
	<rect id="SVGCleanerId_7_1_" x="172.08" y="276.981" width="16.787" height="25.18"/>
</g>
<g>
	<rect id="SVGCleanerId_8_1_" x="222.44" y="276.981" width="16.787" height="25.18"/>
</g>
<g>
	<rect id="SVGCleanerId_9_1_" x="272.8" y="276.981" width="16.787" height="25.18"/>
</g>
<g>
	<rect id="SVGCleanerId_10_1_" x="323.16" y="276.981" width="16.787" height="25.18"/>
</g>
<g>
	<rect id="SVGCleanerId_11_1_" x="373.52" y="276.981" width="16.787" height="25.18"/>
</g>
<g>
	<rect id="SVGCleanerId_12_1_" x="172.08" y="377.701" width="16.787" height="25.18"/>
</g>
<g>
	<rect id="SVGCleanerId_13_1_" x="222.44" y="377.701" width="16.787" height="25.18"/>
</g>
<g>
	<rect id="SVGCleanerId_14_1_" x="272.8" y="377.701" width="16.787" height="25.18"/>
</g>
<g>
	<rect id="SVGCleanerId_15_1_" x="323.16" y="377.701" width="16.787" height="25.18"/>
</g>
<g>
	<rect id="SVGCleanerId_16_1_" x="96.54" y="226.622" width="16.787" height="25.18"/>
</g>
<g>
	<rect id="SVGCleanerId_17_1_" x="146.9" y="226.622" width="16.787" height="25.18"/>
</g>
<g>
	<rect id="SVGCleanerId_18_1_" x="197.26" y="226.622" width="16.787" height="25.18"/>
</g>
<g>
	<rect id="SVGCleanerId_19_1_" x="247.62" y="226.622" width="16.787" height="25.18"/>
</g>
<g>
	<rect id="SVGCleanerId_20_1_" x="297.98" y="226.622" width="16.787" height="25.18"/>
</g>
<g>
	<rect id="SVGCleanerId_21_1_" x="348.34" y="226.622" width="16.787" height="25.18"/>
</g>
<g>
	<rect id="SVGCleanerId_22_1_" x="398.683" y="226.622" width="16.787" height="25.18"/>
</g>
<g>
	<rect id="SVGCleanerId_23_1_" x="146.9" y="327.341" width="16.787" height="25.18"/>
</g>
<g>
	<rect id="SVGCleanerId_24_1_" x="197.26" y="327.341" width="16.787" height="25.18"/>
</g>
<g>
	<rect id="SVGCleanerId_25_1_" x="247.62" y="327.341" width="16.787" height="25.18"/>
</g>
<g>
	<rect id="SVGCleanerId_26_1_" x="297.98" y="327.341" width="16.787" height="25.18"/>
</g>
<g>
	<rect id="SVGCleanerId_27_1_" x="247.62" y="428.061" width="16.787" height="25.18"/>
</g>
<g>
	<rect id="SVGCleanerId_28_1_" x="348.34" y="327.341" width="16.787" height="25.18"/>
</g>
<g>
</g>
<g>
</g>
<g>
</g>
<g>
</g>
<g>
</g>
<g>
</g>
<g>
</g>
<g>
</g>
<g>
</g>
<g>
</g>
<g>
</g>
<g>
</g>
<g>
</g>
<g>
</g>
<g>
</g>
</svg>
