<?xml version="1.0" encoding="iso-8859-1"?>
<!-- Generator: Adobe Illustrator 19.0.0, SVG Export Plug-In . SVG Version: 6.00 Build 0)  -->
<svg version="1.1" id="Capa_1" xmlns="http://www.w3.org/2000/svg" xmlns:xlink="http://www.w3.org/1999/xlink" x="0px" y="0px"
	 viewBox="0 0 511.999 511.999" style="enable-background:new 0 0 511.999 511.999;" xml:space="preserve">
<path style="fill:#D1FFC5;" d="M380.284,116.785c1.101,8.02,5.529,15.205,12.201,19.795l-85.323,85.323h-17.065L264.5,247.5v-34.129
	l110.75-110.75l3.328,2.645L380.284,116.785z"/>
<path style="fill:#89D84F;" d="M369.789,222.927c-9.77,7.628-13.609,20.623-9.556,32.338l-1.877,0.768h-51.194L59.724,503.471
	L8.53,452.277l221.841-221.841v-88.651c3.652-0.017,7.27-0.708,10.665-2.048l10.836-4.351l10.751,4.351
	c0.597,0.256,1.195,0.427,1.877,0.683V247.5l25.597-25.597h76.791L369.789,222.927z"/>
<rect x="48.215" y="328.582" transform="matrix(-0.7071 0.7071 -0.7071 -0.7071 536.9658 451.81)" style="fill:#76BA44;" width="253.391" height="17.065"/>
<path style="fill:#2A6E3C;" d="M491.972,52.281l-4.215-3.311c-23.6,38.174-61.595,65.221-105.391,75.016
	c2.108,5.077,5.614,9.445,10.119,12.594c8.063,5.563,18.362,6.749,27.474,3.157l10.751-4.351l10.836,4.351
	c15.017,5.93,32.005-1.433,37.943-16.45c0.828-2.09,1.408-4.275,1.732-6.502l1.621-11.519l9.13-7.167
	c12.653-9.94,14.846-28.259,4.906-40.913C495.445,55.361,493.798,53.714,491.972,52.281z"/>
<path style="fill:#307E45;" d="M487.757,48.97l-4.915-3.857l-1.621-11.519c-2.082-14.334-14.36-24.974-28.839-25
	c-3.712,0.009-7.398,0.734-10.836,2.133c-3.447,1.357-7.125,2.056-10.836,2.048c-3.677,0-7.329-0.7-10.751-2.048
	c-14.915-5.998-31.868,1.22-37.867,16.135c-0.87,2.167-1.476,4.428-1.809,6.732l-1.706,11.519l-9.13,7.167
	c-12.653,10.034-14.778,28.43-4.735,41.083c1.391,1.758,2.986,3.345,4.735,4.735l5.802,4.522l3.328,2.645l1.706,11.519
	c0.384,2.483,1.084,4.898,2.082,7.201C426.162,114.191,464.157,87.144,487.757,48.97z"/>
<path style="fill:#2A6E3C;" d="M492.313,222.927l-4.599-3.609c-18.814,40.742-53.233,72.192-95.502,87.26
	c8.046,6.041,18.643,7.474,28.003,3.805l10.836-4.351l10.751,4.351c14.983,5.956,31.954-1.357,37.909-16.339
	c0.845-2.125,1.442-4.352,1.766-6.613l1.706-11.519l9.13-7.167c12.653-10.034,14.778-28.43,4.735-41.083
	C495.658,225.914,494.071,224.318,492.313,222.927z"/>
<path style="fill:#307E45;" d="M487.714,219.344l-4.531-3.558l-1.706-11.519c-2.039-14.36-14.334-25.025-28.839-25.025
	c-3.712,0.009-7.398,0.734-10.836,2.133c-6.937,2.73-14.65,2.73-21.587,0c-14.949-5.981-31.919,1.297-37.892,16.246
	c-0.853,2.133-1.45,4.351-1.783,6.621l-1.621,11.519l-9.13,7.167c-12.653,9.957-14.838,28.293-4.88,40.938
	c1.425,1.809,3.063,3.447,4.88,4.88l9.13,7.167l1.621,11.519c1.143,7.696,5.35,14.607,11.672,19.147
	C434.473,291.519,468.892,260.077,487.714,219.344z"/>
<path style="fill:#2A6E3C;" d="M308.527,48.697c-19.01,40.733-53.651,72.081-96.074,86.945c5.119,3.993,11.425,6.152,17.918,6.143
	c3.652-0.017,7.27-0.708,10.665-2.048l10.836-4.351l10.751,4.351c0.597,0.256,1.195,0.427,1.877,0.683
	c15.35,4.923,31.783-3.541,36.706-18.891c0.495-1.544,0.862-3.14,1.092-4.744l1.706-11.519l9.13-7.167
	c12.653-10.034,14.778-28.43,4.735-41.083c-1.391-1.758-2.986-3.345-4.735-4.735L308.527,48.697z"/>
<path style="fill:#307E45;" d="M308.527,48.697l-4.522-3.549l-1.706-11.519c-2.039-14.36-14.334-25.034-28.839-25.034
	c-3.712,0.009-7.398,0.734-10.836,2.133c-3.421,1.348-7.073,2.048-10.751,2.048c-3.712,0.009-7.389-0.691-10.836-2.048
	c-14.949-5.981-31.919,1.297-37.892,16.246c-0.853,2.133-1.451,4.351-1.783,6.621l-1.621,11.519l-9.13,7.167
	c-12.653,9.94-14.846,28.259-4.906,40.913c1.433,1.826,3.08,3.473,4.906,4.906l9.13,7.167l1.621,11.519
	c1.092,7.491,5.077,14.258,11.092,18.856C254.875,120.778,289.517,89.439,308.527,48.697z"/>
<path d="M497.586,216.238l-6.442-5.119l-1.186-8.131c-2.995-20.614-22.124-34.897-42.738-31.902
	c-2.927,0.427-5.802,1.195-8.549,2.287c-4.906,1.971-10.375,1.971-15.281,0c-19.351-7.705-41.288,1.732-48.993,21.075
	c-1.092,2.747-1.86,5.614-2.287,8.541l-1.177,8.131l-4.044,3.225v-0.973h-39.129l66.433-66.407
	c9.155,4.104,19.573,4.343,28.908,0.666l7.679-3.046l7.679,3.046c19.343,7.713,41.279-1.715,48.984-21.058
	c1.101-2.756,1.869-5.623,2.295-8.558l1.177-8.131l6.442-5.119c16.348-12.892,19.155-36.595,6.263-52.943
	c-1.834-2.329-3.942-4.428-6.263-6.263l-6.442-5.119l-1.186-8.131c-2.995-20.614-22.141-34.897-42.756-31.902
	c-2.927,0.427-5.785,1.195-8.532,2.287c-4.906,1.971-10.375,1.971-15.281,0c-19.351-7.713-41.288,1.724-48.993,21.075
	c-1.092,2.747-1.86,5.606-2.287,8.532l-1.186,8.14l-6.433,5.119c-16.331,12.841-19.164,36.493-6.322,52.824
	c1.391,1.766,2.935,3.404,4.616,4.898l-89.521,89.496v-42.491c18.899,0.247,35.051-13.558,37.747-32.261l1.186-8.14l6.433-5.119
	c16.348-12.892,19.155-36.595,6.263-52.943c-1.834-2.329-3.942-4.428-6.263-6.263l-6.442-5.119l-1.186-8.131
	c-2.995-20.614-22.124-34.897-42.738-31.902c-2.927,0.427-5.802,1.195-8.549,2.287c-4.906,1.971-10.375,1.971-15.281,0
	c-19.351-7.705-41.288,1.732-48.993,21.075c-1.092,2.747-1.86,5.614-2.287,8.541l-1.177,8.131l-6.442,5.119
	c-16.348,12.892-19.155,36.595-6.263,52.943c1.834,2.329,3.942,4.428,6.263,6.263l6.442,5.119l1.186,8.131
	c1.63,11.433,8.438,21.484,18.455,27.244c3.259,1.869,6.783,3.234,10.452,4.061v77.585L2.497,446.244
	c-3.328,3.328-3.328,8.737,0,12.065l51.194,51.194c3.336,3.328,8.737,3.328,12.065,0l244.938-244.938h44.453
	c2.389,4.189,5.555,7.884,9.334,10.879l6.442,5.119l1.186,8.131c2.935,20.58,21.988,34.88,42.568,31.954
	c2.986-0.427,5.904-1.203,8.703-2.329l7.679-3.046l7.679,3.046c19.343,7.713,41.279-1.715,48.984-21.058
	c1.101-2.747,1.869-5.623,2.295-8.549l1.186-8.14l6.433-5.119c16.348-12.892,19.155-36.595,6.263-52.943
	c-1.834-2.329-3.942-4.428-6.263-6.263L497.586,216.238z M374.721,58.987l9.104-7.193c1.706-1.348,2.833-3.302,3.148-5.461
	l1.706-11.51c1.638-11.28,12.107-19.104,23.387-17.466c1.604,0.23,3.174,0.657,4.684,1.254c8.967,3.601,18.967,3.601,27.935,0
	c10.58-4.224,22.585,0.93,26.809,11.51c0.606,1.51,1.024,3.089,1.263,4.701l1.706,11.502c0.316,2.159,1.442,4.113,3.157,5.461
	l9.113,7.193c8.95,7.056,10.495,20.034,3.439,28.984c-1.007,1.28-2.159,2.432-3.439,3.439l-9.113,7.193
	c-1.715,1.348-2.85,3.311-3.165,5.469l-1.706,11.502c-1.638,11.288-12.116,19.104-23.404,17.466
	c-1.604-0.23-3.174-0.657-4.676-1.254l-10.802-4.266c-2.031-0.819-4.292-0.819-6.322,0l-10.802,4.266
	c-10.597,4.215-22.602-0.947-26.826-11.544c-0.597-1.502-1.015-3.063-1.246-4.667l-1.706-11.502
	c-0.316-2.159-1.442-4.113-3.148-5.461l-9.113-7.193c-8.95-7.048-10.495-20.017-3.447-28.976c1.007-1.28,2.167-2.44,3.447-3.447
	C374.704,58.987,374.721,58.987,374.721,58.987z M371.794,118.107c1.067,6.851,4.019,13.276,8.532,18.541l-76.697,76.723h-13.532
	c-2.261,0-4.437,0.896-6.032,2.5l-11.032,11.032v-10L371.794,118.107z M219.918,130.479c-5.486-3.148-9.215-8.66-10.102-14.923
	l-1.706-11.502c-0.316-2.159-1.442-4.113-3.157-5.461l-9.113-7.193c-8.95-7.056-10.495-20.034-3.439-28.984
	c1.007-1.28,2.159-2.432,3.439-3.439l9.113-7.193c1.715-1.348,2.85-3.311,3.165-5.469l1.706-11.502
	c1.63-11.28,12.099-19.104,23.387-17.466c1.613,0.23,3.183,0.657,4.693,1.254c8.959,3.601,18.967,3.601,27.926,0
	c10.58-4.224,22.585,0.93,26.809,11.51c0.606,1.51,1.024,3.089,1.263,4.701l1.706,11.502c0.316,2.159,1.442,4.113,3.148,5.461
	l9.113,7.193c8.95,7.056,10.495,20.034,3.439,28.984c-1.007,1.28-2.159,2.432-3.439,3.439l0,0l-9.104,7.193
	c-1.706,1.348-2.833,3.302-3.148,5.461l-1.706,11.51c-1.638,11.288-12.116,19.104-23.404,17.466
	c-1.604-0.23-3.174-0.657-4.676-1.254l-10.793-4.266c-1.007-0.41-2.073-0.614-3.157-0.614s-2.159,0.213-3.165,0.614l-10.81,4.266
	C232.026,134.131,225.396,133.653,219.918,130.479z M350.224,247.5h-43.063c-2.261,0-4.437,0.896-6.032,2.5L59.724,491.406
	l-39.129-39.129l215.808-215.808c1.596-1.596,2.5-3.771,2.5-6.032v-81.253c1.8-0.392,3.575-0.904,5.299-1.553l7.679-3.046
	l4.087,1.638v97.746L79.288,420.647l12.065,12.065l202.276-202.276h59.82c-2.184,4.846-3.319,10.094-3.319,15.409
	C350.13,246.4,350.199,246.946,350.224,247.5z M487.015,262.005L487.015,262.005l-9.104,7.193c-1.706,1.348-2.833,3.302-3.148,5.461
	l-1.706,11.51c-1.638,11.288-12.116,19.104-23.404,17.466c-1.604-0.23-3.174-0.657-4.676-1.254l-10.793-4.309
	c-1.007-0.41-2.073-0.614-3.157-0.614c-1.084,0-2.159,0.213-3.165,0.614l-10.81,4.309c-10.597,4.215-22.602-0.947-26.826-11.544
	c-0.597-1.502-1.015-3.063-1.246-4.667l-1.706-11.502c-0.316-2.159-1.442-4.113-3.157-5.461l-9.113-7.193
	c-8.95-7.056-10.495-20.034-3.439-28.984c1.007-1.28,2.159-2.432,3.439-3.439l9.113-7.193c1.715-1.348,2.85-3.311,3.165-5.469
	l1.706-11.502c1.63-11.28,12.099-19.104,23.387-17.466c1.613,0.23,3.183,0.657,4.693,1.254c8.959,3.601,18.967,3.601,27.926,0
	c10.58-4.224,22.585,0.93,26.809,11.51c0.606,1.51,1.024,3.089,1.263,4.701l1.706,11.502c0.316,2.159,1.442,4.113,3.148,5.461
	l9.113,7.193c8.95,7.056,10.495,20.034,3.439,28.984c-1.007,1.28-2.159,2.432-3.439,3.439H487.015z"/>
<g>
</g>
<g>
</g>
<g>
</g>
<g>
</g>
<g>
</g>
<g>
</g>
<g>
</g>
<g>
</g>
<g>
</g>
<g>
</g>
<g>
</g>
<g>
</g>
<g>
</g>
<g>
</g>
<g>
</g>
</svg>
