<?xml version="1.0" encoding="iso-8859-1"?>
<!-- Generator: Adobe Illustrator 19.0.0, SVG Export Plug-In . SVG Version: 6.00 Build 0)  -->
<svg version="1.1" id="Capa_1" xmlns="http://www.w3.org/2000/svg" xmlns:xlink="http://www.w3.org/1999/xlink" x="0px" y="0px"
	 viewBox="0 0 512 512" style="enable-background:new 0 0 512 512;" xml:space="preserve">
<g>
	<path style="fill:#E69433;" d="M457.356,205.427c-11.024,18.064-23.192,35.402-36.435,51.913
		c7.372,24.882,11.05,50.702,10.922,76.65c0,55.207-15.359,103.673-38.397,131.063c8.942,9.301,21.153,14.745,34.046,15.188
		c41.981,0,75.942-64.081,75.942-143.18C503.433,277.981,484.482,227.305,457.356,205.427z"/>
	<path style="fill:#E69433;" d="M420.955,257.341c-20.061,25.129-42.519,48.261-67.042,69.056c0.128,3.524,0.196,7.074,0.196,10.666
		c0,56.231-15.956,105.892-40.36,136.012c9.548,9.651,22.441,15.274,36.008,15.7c17.373-0.99,33.397-9.685,43.688-23.721
		c23.038-27.39,38.397-75.856,38.397-131.063C431.98,308.051,428.311,282.222,420.955,257.341z"/>
	<path style="fill:#E69433;" d="M34.131,443.722h-0.222c13.431,22.637,31.11,36.52,50.565,36.52
		c12.893-0.444,25.103-5.888,34.046-15.188c-6.562-7.987-12.125-16.75-16.579-26.076C79.474,442.101,56.82,443.688,34.131,443.722z"
		/>
	<path style="fill:#E69433;" d="M101.941,438.978c4.454,9.326,10.017,18.089,16.579,26.076
		c10.291,14.036,26.315,22.731,43.688,23.721c15.043-0.589,29.174-7.347,39.08-18.687l0.427-0.256
		c-10.427-14.429-18.542-30.394-24.062-47.323C152.89,429.984,127.573,435.488,101.941,438.978z"/>
	<path style="fill:#E69433;" d="M353.914,326.396c-51.555,43.773-111.549,76.479-176.261,96.113
		c5.521,16.929,13.635,32.894,24.062,47.323c15.956,21.076,35.752,33.619,57.34,33.619c20.393,0,39.251-11.178,54.695-30.377
		c24.404-30.121,40.36-79.781,40.36-136.012C354.11,333.479,354.042,329.92,353.914,326.396z"/>
</g>
<g>
	<path style="fill:#FFA439;" d="M397.286,205.743l-1.024,0.768c11.186,15.342,19.549,32.552,24.694,50.83
		c13.243-16.511,25.411-33.849,36.435-51.913C440.308,189.915,414.197,190.051,397.286,205.743z"/>
	<path style="fill:#FFA439;" d="M349.758,179.206c-14.915,0.572-28.952,7.236-38.824,18.431
		c24.429,27.868,41.034,74.841,42.98,128.759c24.523-20.794,46.981-43.927,67.042-69.056c-5.145-18.277-13.507-35.488-24.694-50.83
		C383.036,189.275,366.994,179.206,349.758,179.206z"/>
	<path style="fill:#FFA439;" d="M101.941,438.978c-14.984-32.928-22.433-68.783-21.818-104.953
		c0-52.903,14.079-99.577,35.582-127.48c-8.55-7.825-19.642-12.313-31.23-12.628c-41.981-0.034-75.942,64.047-75.942,143.146
		c-0.93,37.152,7.816,73.911,25.376,106.66h0.222C56.82,443.688,79.474,442.101,101.941,438.978z"/>
	<path style="fill:#FFA439;" d="M204.274,201.135c-1.792-2.048-3.669-3.925-5.546-5.717c-9.599-9.949-22.697-15.769-36.52-16.212
		c-17.236,0-33.278,10.069-46.504,27.305c-21.503,27.902-35.582,74.576-35.582,127.48c-0.614,36.17,6.835,72.025,21.818,104.953
		c25.632-3.49,50.949-8.994,75.711-16.468c-9.198-27.535-13.806-56.385-13.652-85.413C164,280.917,179.871,231.256,204.274,201.135z
		"/>
	<path style="fill:#FFA439;" d="M310.251,196.869c-12.449-15.751-31.136-25.317-51.197-26.196c-20.393,0-39.336,11.263-54.78,30.462
		C179.871,231.256,164,280.917,164,337.062c-0.162,29.037,4.454,57.903,13.652,85.447c64.712-19.634,124.706-52.34,176.261-96.113
		c-1.945-53.919-18.55-100.891-42.98-128.759C310.678,197.381,310.507,197.125,310.251,196.869z"/>
</g>
<g>
	<path style="fill:#B85F3E;" d="M259.055,170.673c-20.393,0-39.336,11.263-54.78,30.462c-1.792-2.048-3.669-3.925-5.546-5.717
		l9.727-52.562C223.26,64.662,291.761,8.175,371.346,8.551v34.131c-41.793-0.239-75.907,33.38-76.283,75.174
		c0,5.546,0.631,11.067,1.877,16.468l13.994,61.948l-0.683,0.597C297.802,181.117,279.115,171.552,259.055,170.673z"/>
	<path style="fill:#B85F3E;" d="M259.055,511.984c-23.636,0-45.821-12.799-64.141-36.998
		c-25.078-33.278-39.447-83.621-39.447-137.924c0-55.873,15.76-108.699,42.177-141.303c17.68-21.989,38.935-33.619,61.436-33.619
		c22.509,0.828,43.543,11.442,57.579,29.063l0.717,0.853c28.363,32.356,45.292,86.582,45.292,145.057
		c0,55.873-15.803,108.724-42.263,141.379C302.734,500.379,281.522,511.984,259.055,511.984z M259.055,179.206
		c-21.648,0-38.116,14.83-48.125,27.305c-24.054,29.677-38.397,78.501-38.397,130.551c0,49.976,13.456,97.692,35.991,127.633
		c10.436,13.78,27.689,30.223,50.531,30.223c17.125,0,33.73-9.386,48.039-27.194c24.105-29.737,38.483-78.612,38.483-130.662
		c0-54.448-15.359-104.467-41.06-133.802l0,0l-0.486-0.555C293.16,188.72,276.743,180.145,259.055,179.206z"/>
	<path style="fill:#B85F3E;" d="M349.758,497.308c-15.717-0.435-30.684-6.869-41.811-17.979l11.613-12.509
		c7.961,8.2,18.781,13.004,30.206,13.422c14.804-1.212,28.354-8.755,37.186-20.701c22.424-26.673,36.367-74.79,36.367-125.551
		c0-49.089-12.637-94.799-33.807-122.266c-8.413-10.948-22.117-23.986-39.754-23.986c-12.628,0.555-24.463,6.297-32.723,15.862
		l-6.357-5.708l-6.033-6.033l6.041,5.973l-5.973-6.041c11.502-12.902,27.774-20.53,45.044-21.119
		c19.463,0,37.885,10.598,53.27,30.641c23.388,30.343,37.348,79.952,37.348,132.676c0,55.42-15.094,106.472-40.394,136.524
		C388.096,486.514,369.665,496.352,349.758,497.308z"/>
	<path style="fill:#B85F3E;" d="M427.492,488.775c-15.077-0.435-29.395-6.724-39.925-17.535l11.767-12.373
		c7.347,7.799,17.458,12.407,28.158,12.842c36.537,0,67.409-61.658,67.409-134.647s-30.872-134.647-67.409-134.647
		c-9.164,0.239-17.936,3.746-24.745,9.881l-10.922-13.106c9.881-8.678,22.518-13.584,35.667-13.84
		c47.365,0,84.474,66.641,84.474,151.713S474.857,488.775,427.492,488.775z"/>
	<path style="fill:#B85F3E;" d="M162.208,497.308c-19.89-0.947-38.312-10.76-50.198-26.742
		c-25.325-30.104-40.42-81.155-40.42-136.575c0-52.724,13.96-102.333,37.356-132.684c15.376-20.035,33.798-30.633,53.262-30.633
		c15.999,0.461,31.187,7.108,42.391,18.542c2.082,1.997,4.138,4.053,6.092,6.297l-12.799,11.246
		c-1.621-1.852-3.328-3.55-5.017-5.171c-8.021-8.447-19.028-13.414-30.667-13.849c-17.637,0-31.341,13.038-39.737,23.969
		c-21.178,27.484-33.815,73.194-33.815,122.283c0,50.761,13.943,98.878,36.392,125.568c8.823,11.937,22.373,19.472,37.16,20.683
		c12.739-0.572,24.668-6.4,32.954-16.093l12.253,11.878C195.904,489.022,179.555,496.719,162.208,497.308z"/>
	<path style="fill:#B85F3E;" d="M84.474,488.775C37.109,488.775,0,422.134,0,337.062S37.109,185.35,84.474,185.35
		c13.61,0.333,26.648,5.538,36.751,14.659l-11.05,13.004c-7.005-6.519-16.135-10.282-25.701-10.598
		c-36.537,0-67.409,61.658-67.409,134.647s30.872,134.647,67.409,134.647c10.7-0.435,20.811-5.043,28.158-12.842l11.767,12.373
		C113.87,482.051,99.552,488.34,84.474,488.775z"/>
</g>
<path d="M84.474,488.766c12.099-0.23,23.789-4.429,33.278-11.946c11.468,12.543,27.51,19.933,44.498,20.479
	c14.173-0.333,27.766-5.649,38.397-15.026c14.181,17.97,35.53,28.832,58.407,29.711c21.562-0.751,41.819-10.547,55.804-26.981
	c10.009,7.739,22.245,12.048,34.89,12.296c16.989-0.546,33.03-7.935,44.498-20.479c9.488,7.517,21.178,11.715,33.278,11.946
	c47.348,0,84.474-66.632,84.474-151.704s-37.092-151.704-84.474-151.704c-10.657,0.154-21.025,3.498-29.762,9.591
	c-11.758-14.625-29.25-23.474-47.997-24.276c-12.014,0.188-23.67,4.104-33.363,11.195l-11.093-49.43
	c-4.429-19.6,0.333-40.155,12.936-55.804c12.893-16.135,32.459-25.496,53.116-25.419c4.71,0,8.533-3.823,8.533-8.533V8.551
	c0-4.71-3.823-8.533-8.533-8.533c-83.723-0.401-155.8,59.038-171.338,141.311l-7.133,38.739c-9.13-6.007-19.787-9.267-30.718-9.386
	c-18.738,0.802-36.222,9.633-47.971,24.25c-8.729-6.084-19.088-9.42-29.728-9.574C37.092,185.358,0,251.991,0,337.062
	S37.092,488.766,84.474,488.766z M427.492,202.424c36.52,0,67.409,61.658,67.409,134.639s-30.854,134.638-67.409,134.638
	c-8.081-0.196-15.888-2.986-22.253-7.97c21.443-29.609,35.095-76.215,35.095-129.698c0-51.06-12.39-95.9-32.134-125.628
	C413.933,204.625,420.623,202.552,427.492,202.424z M349.767,187.739c39.865,0,73.535,66.974,73.535,146.252
	s-33.67,146.243-73.535,146.243c-8.686-0.205-17.091-3.157-24.003-8.43c22.646-31.844,36.879-79.961,36.879-134.741
	c0-57.17-15.504-106.924-39.865-138.649C330.244,191.809,339.8,188.029,349.767,187.739z M216.809,144.418
	C230.231,73.374,290.617,20.795,362.83,17.28v17.287c-22.765,2.193-43.671,13.524-57.946,31.401
	c-15.854,19.694-21.835,45.556-16.255,70.216l8.533,37.937c-11.255-7.645-24.506-11.809-38.107-11.98
	c-18.405,0.401-35.983,7.688-49.268,20.427L216.809,144.418z M259.055,179.206c47.698,0,86.522,70.822,86.522,157.856
	s-38.824,157.856-86.522,157.856c-46.93,0-86.488-72.29-86.488-157.856S212.167,179.206,259.055,179.206z M162.199,187.739
	c11.596,0.555,22.552,5.504,30.633,13.849c-22.936,31.836-37.331,80.293-37.331,135.475c0,53.065,13.388,99.782,34.805,131.609
	c-7.662,7.133-17.646,11.238-28.107,11.562c-39.865,0-73.535-66.974-73.535-146.243S122.334,187.739,162.199,187.739z
	 M84.474,202.424c6.869,0.094,13.567,2.142,19.31,5.905c-19.753,29.728-32.151,74.585-32.151,125.662
	c0,53.526,13.652,100.132,35.095,129.698c-6.365,4.983-14.173,7.773-22.253,7.97c-36.554,0.043-67.409-61.615-67.409-134.596
	S47.92,202.424,84.474,202.424z"/>
<g>
</g>
<g>
</g>
<g>
</g>
<g>
</g>
<g>
</g>
<g>
</g>
<g>
</g>
<g>
</g>
<g>
</g>
<g>
</g>
<g>
</g>
<g>
</g>
<g>
</g>
<g>
</g>
<g>
</g>
</svg>
