<?xml version="1.0" encoding="iso-8859-1"?>
<!-- Generator: Adobe Illustrator 19.0.0, SVG Export Plug-In . SVG Version: 6.00 Build 0)  -->
<svg version="1.1" id="Capa_1" xmlns="http://www.w3.org/2000/svg" xmlns:xlink="http://www.w3.org/1999/xlink" x="0px" y="0px"
	 viewBox="0 0 512 512" style="enable-background:new 0 0 512 512;" xml:space="preserve">
<g>
	<path style="fill:#307E45;" d="M211.558,59.473h16.058c22.829,0.025,41.316,18.555,41.291,41.393c0,0.076,0,0.161,0,0.238
		L228.55,84.961l-16.992,50.977l-16.992-50.977l-49.702,16.567c1.869-3.568,3.823-7.052,5.862-10.535l6.372-11.045
		c7.409-12.676,20.994-20.476,35.684-20.476H211.558z"/>
	<path style="fill:#307E45;" d="M220.054,59.473h-16.992C203.096,26.644,229.706,0.034,262.535,0h8.496v16.992h-8.496
		C239.086,17.018,220.08,36.023,220.054,59.473z"/>
</g>
<path style="fill:#BA3637;" d="M394.054,481.389l-43.245-28.887c-100.339-66.788-140.525-194.501-96.516-306.709l11.725-30.076
	c1.81-4.664,2.787-9.609,2.889-14.613l-16.253-6.5c-6.924,99.107-43.806,193.77-105.742,271.45
	c9.448,17.281,20.688,33.517,33.551,48.428c48.666,56.516,119.557,89.005,194.136,88.997c4.503,0,9.006-0.085,13.509-0.34
	c6.559-0.374,11.572-5.998,11.189-12.557C399.084,486.869,397.147,483.462,394.054,481.389z"/>
<path style="fill:#D83D40;" d="M228.55,84.961l-16.992,50.977l-16.992-50.977l-49.702,16.567
	c-43.763,82.93-42.99,182.284,2.048,264.526c61.937-77.68,98.818-172.343,105.742-271.45L228.55,84.961z"/>
<path d="M374.913,512c4.528,0,9.065-0.119,13.594-0.357c11.249-0.544,19.923-10.11,19.38-21.359
	c-0.314-6.491-3.704-12.447-9.133-16.024l-43.279-28.887c-96.915-64.638-135.742-188.035-93.304-296.522l11.742-30.008
	c10.017-25.582-2.608-54.434-28.182-64.443c-5.786-2.26-11.937-3.424-18.139-3.424h-6.686c4.061-19.762,21.453-33.959,41.631-33.984
	h8.496V0h-8.496c-29.541,0.034-54.57,21.741-58.793,50.977h-10.968c-17.68,0.025-34.027,9.397-42.973,24.639l-6.449,11.045
	c-61.996,106.286-49.685,240.219,30.654,333.421C224.54,478.313,297.802,511.83,374.913,512z M164.473,84.222
	c5.888-10.051,16.652-16.228,28.301-16.253h34.834c10.841-0.085,21.011,5.285,27.052,14.29c1.079,1.614,2.022,3.322,2.812,5.098
	L231.728,77.06c-2.175-0.858-4.613-0.79-6.737,0.187c-2.124,0.986-3.747,2.804-4.486,5.021l-8.946,26.805l-8.929-26.797
	c-1.478-4.452-6.296-6.865-10.748-5.378l0,0l-28.751,9.575L164.473,84.222z M151.041,108.427l38.156-12.744l14.299,42.914
	c1.461,4.46,6.27,6.882,10.722,5.421c2.566-0.841,4.579-2.855,5.421-5.421l14.137-42.429l26.015,10.408
	c-0.382,2.065-0.943,4.095-1.699,6.058l-11.699,30.025c-45.369,115.946-3.866,247.839,99.736,316.904l43.279,28.887
	c1.58,1.011,2.048,3.11,1.037,4.69c-0.603,0.943-1.623,1.529-2.736,1.572c-76.541,3.764-150.568-27.842-200.788-85.726
	C114.941,325.417,100.752,206.582,151.041,108.427z"/>
<g>
</g>
<g>
</g>
<g>
</g>
<g>
</g>
<g>
</g>
<g>
</g>
<g>
</g>
<g>
</g>
<g>
</g>
<g>
</g>
<g>
</g>
<g>
</g>
<g>
</g>
<g>
</g>
<g>
</g>
</svg>
