<?xml version="1.0" encoding="iso-8859-1"?>
<!-- Generator: Adobe Illustrator 19.0.0, SVG Export Plug-In . SVG Version: 6.00 Build 0)  -->
<svg version="1.1" id="Capa_1" xmlns="http://www.w3.org/2000/svg" xmlns:xlink="http://www.w3.org/1999/xlink" x="0px" y="0px"
	 viewBox="0 0 511.997 511.997" style="enable-background:new 0 0 511.997 511.997;" xml:space="preserve">
<path style="fill:#ED9E6D;" d="M90.417,501.397c-41.884,3.213-78.435-28.142-81.649-70.026c-0.145-1.923-0.222-3.846-0.222-5.777
	v-16.408c0.009-43.021,17.101-84.272,47.516-114.687l26.834-26.834c20.587-20.579,46.319-35.252,74.521-42.474
	c9.7-2.47,18.767-6.982,26.578-13.246c16.195-12.605,28.903-29.133,36.919-48.029c7.384-18.306,18.707-34.757,33.159-48.199
	l37.688-35.21c38.149-35.56,86.409-58.378,138.104-65.292l34.013-4.529c19.211-2.521,36.833,11.016,39.354,30.227
	c0.197,1.478,0.291,2.974,0.299,4.47c0.009,5.563-1.342,11.05-3.931,15.981c-8.196,15.947-12.477,33.611-12.477,51.532v41.192
	c-0.009,32.5-14.212,63.369-38.884,84.52l-41.277,35.38c-18.613,15.921-41.944,25.288-66.402,26.664
	c-17.143,0.615-33.637,6.76-47.003,17.519l-3.76,3.077c-13.973,11.366-23.536,27.27-27.005,44.952
	c-5.333,29.244-20.066,55.951-41.961,76.06l-23.843,21.878c-22.433,20.545-51.114,32.971-81.443,35.295L90.417,501.397z"/>
<g>
	<path style="fill:#9C6748;" d="M66.463,467.033l-13.281-10.751l21.493-26.578l13.28,10.751L66.463,467.033z M104.065,420.517
		l-13.289-10.751l8.965-11.11c4.247-5.247,8.58-10.418,12.998-15.502l12.904,11.204c-4.29,4.948-8.495,9.965-12.622,15.058
		L104.065,420.517z M142.616,375.676l-12.409-11.751c7.956-8.392,16.237-16.622,24.578-24.467l11.699,12.452
		c-8.093,7.632-16.126,15.622-23.852,23.766H142.616z M185.261,335.032l-11.11-12.973l26.151-22.117l11.024,13.05L185.261,335.032z
		 M230.905,296.455l-11.016-13.05l26.117-22.057l11.033,13.05L230.905,296.455z M276.567,258.263l-10.554-13.434l26.877-21.117
		l10.563,13.434L276.567,258.263z M323.672,221.182l-10.759-13.281c8.657-7.025,17.271-14.4,25.595-21.938l11.477,12.674
		C341.431,206.389,332.577,213.977,323.672,221.182L323.672,221.182z M368.881,180.793l-11.964-12.187
		c7.982-7.845,15.844-16.015,23.382-24.288l12.631,11.503C385.161,164.342,377.076,172.734,368.881,180.793L368.881,180.793z
		 M410.004,136.269l-13.093-10.982c4.641-5.546,9.196-11.17,13.674-16.887l7.503-9.597l13.486,10.537l-7.538,9.623
		c-4.572,5.837-9.247,11.614-14.033,17.314L410.004,136.269L410.004,136.269z M447.341,89.146l-13.46-10.52l10.871-13.896
		l13.469,10.529L447.341,89.146z"/>
	<path style="fill:#9C6748;" d="M91.879,487.45l-7.538-15.383c9.922-4.888,19.767-10.306,29.236-16.109l8.931,14.528
		C112.586,476.656,102.279,482.331,91.879,487.45z M144.428,456.103l-9.922-13.921c9.033-6.427,17.87-13.357,26.279-20.596
		l11.11,12.947C163.084,442.122,153.829,449.377,144.428,456.103z M191.2,416.791l-12.016-12.152
		c7.905-7.828,15.52-16.084,22.621-24.544l13.092,10.982c-7.478,8.837-15.46,17.485-23.741,25.681L191.2,416.791z M231.059,370.438
		l-13.81-10.059c6.486-8.965,12.64-18.365,18.34-27.886l14.682,8.743c-5.939,9.965-12.409,19.784-19.254,29.168L231.059,370.438z
		 M262.953,318.307l-15.255-7.691c1.068-2.128,2.128-4.273,3.153-6.401c4.769-9.922,12.81-17.887,22.775-22.561l7.29,15.451
		c-6.401,2.991-11.571,8.102-14.639,14.468c-1.137,2.239-2.205,4.452-3.367,6.683L262.953,318.307z M304.196,287.191l-6.657-15.742
		l31.475-13.323l6.657,15.742L304.196,287.191z M359.283,263.869l-6.666-15.742L364.702,243c5.666-3.034,11.144-6.401,16.4-10.084
		l9.811,14.007c-6.051,4.23-12.366,8.076-18.904,11.511L359.283,263.869z M411.696,229.788l-11.845-12.315
		c7.785-7.512,14.75-15.819,20.801-24.783l14.161,9.58c-6.734,9.939-14.503,19.143-23.16,27.467L411.696,229.788z M448.128,178.887
		l-15.468-7.256c4.581-9.794,8.127-20.032,10.589-30.561l16.639,3.897c-2.743,11.674-6.7,23.023-11.802,33.868L448.128,178.887z
		 M464.365,119.065l-16.887-2.564l1.316-8.546l16.887,2.564L464.365,119.065z"/>
	<path style="fill:#9C6748;" d="M52.473,430.995l-16.579-4.136c2.248-8.973,4.982-17.818,8.204-26.493l16.024,5.982
		C57.122,414.424,54.567,422.645,52.473,430.995z M69.958,383.582l-15.263-7.606c5.247-10.571,11.247-20.75,17.947-30.466
		l14.067,9.7C80.461,364.259,74.872,373.745,69.958,383.582z M101.758,335.621l-12.964-11.11c3.136-3.658,6.384-7.23,9.742-10.717
		l14.058-14.511l12.272,11.887l-14.041,14.528C107.715,328.904,104.689,332.211,101.758,335.621z M142.651,293.464l-11.477-12.648
		c8.743-7.931,18.041-15.238,27.826-21.852l9.572,14.169C159.461,279.295,150.803,286.089,142.651,293.464z M189.773,260.416
		l-8.025-15.084c4.162-2.222,8.401-4.273,12.699-6.29l4.589-2.119c4.307-1.974,8.461-4.256,12.426-6.837l9.324,14.323
		c-4.666,3.042-9.537,5.734-14.597,8.059l-4.589,2.119C197.576,256.408,193.645,258.365,189.773,260.416z M241.955,226.643
		l-12.477-11.674c6.709-7.17,12.289-15.314,16.562-24.151l0.974-2.017l15.383,7.495l-0.966,1.983
		C256.407,208.662,249.843,218.225,241.955,226.643z M274.225,174.879l-14.238-9.46c6.674-10.033,14.46-19.288,23.202-27.578
		l11.759,12.409c-7.802,7.401-14.759,15.656-20.724,24.613V174.879z M314.084,134.611l-10.366-13.597l27.185-20.724l10.366,13.588
		L314.084,134.611z M361.659,98.35l-10.366-13.571l14.246-10.862c4.581-3.461,9.332-6.683,14.246-9.648l8.811,14.656
		c-4.384,2.632-8.631,5.504-12.716,8.589L361.659,98.35z M410.286,68.225l-6.239-15.921c11.212-4.401,22.895-7.52,34.808-9.307
		l2.564,16.904c-10.657,1.59-21.1,4.376-31.133,8.307L410.286,68.225z"/>
</g>
<path d="M495.515,11.223c-9.272-7.29-21.083-10.537-32.774-9.016l-34.013,4.538c-53.481,7.033-103.415,30.637-142.787,67.513
	l-37.722,35.21c-15.314,14.34-27.33,31.834-35.227,51.276c-7.461,17.519-19.28,32.842-34.329,44.508
	c-6.862,5.529-14.827,9.52-23.365,11.708c-29.689,7.597-56.78,23.031-78.452,44.696l-26.826,26.8
	c-32.124,31.954-50.139,75.436-50.02,120.747v16.391c0.026,46.712,37.893,84.563,84.605,84.563c2.145,0,4.299-0.085,6.452-0.248
	l25.151-1.94c32.244-2.538,62.719-15.776,86.588-37.602l23.826-21.835c23.245-21.391,38.884-49.781,44.559-80.854
	c3.128-15.708,11.665-29.817,24.125-39.876l3.769-3.136c11.947-9.58,26.681-15.032,41.987-15.537
	c26.305-1.478,51.404-11.546,71.445-28.646l41.286-35.406c26.587-22.749,41.893-56.002,41.875-90.998v-41.149
	c0.017-16.579,3.974-32.919,11.537-47.67C516.667,46.766,511.778,24.162,495.515,11.223z M492.011,57.457
	c-8.811,17.16-13.417,36.175-13.434,55.472v41.149c0.009,30.005-13.101,58.515-35.893,78.034l-41.303,35.398
	c-17.177,14.674-38.696,23.314-61.249,24.595c-18.981,0.684-37.226,7.512-51.994,19.459l-3.769,3.136
	c-15.545,12.631-26.159,30.313-29.996,49.969c-5.008,27.407-18.81,52.43-39.312,71.291l-23.826,21.844
	c-21.049,19.237-47.917,30.894-76.342,33.124l-25.151,1.931c-37.175,2.837-69.616-25.006-72.453-62.181
	c-0.128-1.692-0.197-3.384-0.197-5.085v-16.391c-0.103-40.782,16.101-79.905,45.012-108.663l26.826-26.826
	c19.502-19.493,43.884-33.389,70.599-40.235c10.896-2.777,21.066-7.871,29.817-14.921c17.34-13.494,30.937-31.21,39.491-51.447
	c6.965-17.118,17.554-32.526,31.048-45.157l37.722-35.201c36.773-34.449,83.418-56.506,133.378-63.07l34.013-4.529
	c14.477-1.923,27.775,8.247,29.697,22.724c0.709,5.333-0.222,10.759-2.683,15.554V57.457z"/>
<polygon points="211.343,313.009 200.311,299.959 174.151,322.093 185.312,335.049 "/>
<path d="M424.062,118.963l7.503-9.597l-13.469-10.529l-7.503,9.597c-4.452,5.7-9.016,11.323-13.674,16.87l13.101,10.982
	C414.798,130.594,419.481,124.825,424.062,118.963z"/>
<path d="M312.896,207.884l10.759,13.281c8.871-7.187,17.724-14.776,26.305-22.536l-11.469-12.674
	C330.142,193.51,321.527,200.885,312.896,207.884z"/>
<rect x="437.207" y="68.404" transform="matrix(-0.6159 0.7878 -0.7878 -0.6159 781.4026 -227.0626)" width="17.69" height="17.092"/>
<path d="M356.891,168.598l11.964,12.187c8.238-8.093,16.331-16.494,24.048-24.954l-12.605-11.52
	C372.778,152.549,364.915,160.719,356.891,168.598z"/>
<rect x="267.655" y="232.445" transform="matrix(-0.7861 0.6181 -0.6181 -0.7861 657.5436 254.4312)" width="34.184" height="17.092"/>
<rect x="221.395" y="270.353" transform="matrix(-0.7639 0.6454 -0.6454 -0.7639 600.6472 338.0303)" width="34.177" height="17.093"/>
<path d="M99.775,398.674l-8.973,11.11l13.281,10.751l8.982-11.11c4.111-5.093,8.307-10.11,12.588-15.041l-12.904-11.204
	C108.338,388.273,104.014,393.435,99.775,398.674z"/>
<rect x="53.506" y="439.872" transform="matrix(-0.6289 0.7775 -0.7775 -0.6289 463.6383 675.5361)" width="34.184" height="17.092"/>
<path d="M166.494,351.91l-11.699-12.46c-8.418,7.905-16.682,16.143-24.578,24.476l12.409,11.751
	C150.282,367.575,158.315,359.584,166.494,351.91z"/>
<path d="M432.591,171.572l15.477,7.256c5.093-10.862,9.042-22.22,11.785-33.902l-16.648-3.906
	C440.735,151.549,437.18,161.787,432.591,171.572z"/>
<path d="M364.676,242.983l-12.084,5.128l6.657,15.742l12.734-5.427c6.538-3.435,12.845-7.29,18.895-11.529l-9.811-13.998
	C375.811,236.59,370.342,239.957,364.676,242.983z"/>
<path d="M399.791,217.447l11.879,12.298c8.623-8.341,16.357-17.554,23.074-27.493l-14.169-9.572
	C414.525,201.637,407.56,209.935,399.791,217.447z"/>
<path d="M250.8,304.129c-1.034,2.154-2.094,4.273-3.162,6.41l15.255,7.691c1.137-2.222,2.239-4.461,3.307-6.709
	c3.068-6.384,8.247-11.511,14.656-14.528l-7.256-15.468C263.628,286.217,255.578,294.199,250.8,304.129z"/>
<path d="M179.134,404.596l12.024,12.152c8.264-8.187,16.237-16.844,23.69-25.723l-13.101-10.982
	C194.636,388.521,187.03,396.785,179.134,404.596z"/>
<path d="M134.472,442.207l9.956,13.921c9.469-6.76,18.724-14.015,27.501-21.579l-11.11-12.947
	C152.359,428.816,143.522,435.755,134.472,442.207z"/>
<path d="M84.35,472.161l7.563,15.314c10.435-5.128,20.733-10.819,30.612-16.878l-8.939-14.528
	C104.151,461.82,94.314,467.238,84.35,472.161z"/>
<path d="M217.189,360.336l13.81,10.059c6.837-9.401,13.323-19.211,19.263-29.176l-14.691-8.743
	C229.888,342.014,223.718,351.363,217.189,360.336z"/>
<rect x="299.48" y="264.086" transform="matrix(-0.921 0.3897 -0.3897 -0.921 714.3597 400.3512)" width="34.186" height="17.093"/>
<rect x="452.248" y="104.864" transform="matrix(-0.1514 0.9885 -0.9885 -0.1514 637.8235 -320.7512)" width="8.692" height="17.092"/>
<rect x="305.408" y="108.889" transform="matrix(-0.7956 0.6058 -0.6058 -0.7956 650.228 15.4948)" width="34.184" height="17.092"/>
<path d="M441.368,59.901l-2.495-16.904c-11.93,1.769-23.621,4.897-34.842,9.307l6.256,15.904
	C420.302,64.277,430.728,61.491,441.368,59.901z"/>
<path d="M168.579,273.124l-9.572-14.169c-9.777,6.615-19.075,13.904-27.826,21.818l11.46,12.665
	C150.803,286.072,159.469,279.286,168.579,273.124z"/>
<path d="M211.463,230.061c-3.974,2.572-8.136,4.854-12.434,6.837L194.439,239c-4.29,1.983-8.52,4.076-12.682,6.29l8.016,15.084
	c3.871-2.06,7.811-4,11.811-5.837l4.606-2.119c5.051-2.333,9.93-5.034,14.597-8.067L211.463,230.061z"/>
<path d="M44.089,400.298c-3.23,8.674-5.982,17.519-8.23,26.493l16.588,4.136c2.102-8.375,4.666-16.622,7.691-24.707L44.089,400.298z
	"/>
<path d="M294.94,150.233l-11.751-12.426c-8.751,8.29-16.537,17.545-23.211,27.578l14.238,9.46
	C280.182,165.889,287.129,157.634,294.94,150.233z"/>
<path d="M375.922,87.505c4.068-3.102,8.307-5.991,12.691-8.631l-8.837-14.605c-4.914,2.965-9.657,6.204-14.221,9.683l-14.238,10.828
	l10.358,13.588L375.922,87.505z"/>
<path d="M110.817,325.665l14.05-14.528l-12.306-11.87l-14.05,14.528c-3.341,3.47-6.572,7.025-9.708,10.665l12.956,11.11
	C104.681,332.211,107.697,328.913,110.817,325.665z"/>
<path d="M86.674,355.192l-14.075-9.7c-6.692,9.717-12.691,19.904-17.947,30.467l15.297,7.606
	C74.847,373.728,80.436,364.25,86.674,355.192z"/>
<path d="M261.423,198.27l0.983-2.025l-15.383-7.444l-0.974,2.025c-4.282,8.828-9.862,16.964-16.562,24.125l12.477,11.691
	C249.843,218.225,256.407,208.653,261.423,198.27z"/>
<g>
</g>
<g>
</g>
<g>
</g>
<g>
</g>
<g>
</g>
<g>
</g>
<g>
</g>
<g>
</g>
<g>
</g>
<g>
</g>
<g>
</g>
<g>
</g>
<g>
</g>
<g>
</g>
<g>
</g>
</svg>
