<?xml version="1.0" encoding="iso-8859-1"?>
<!-- Generator: Adobe Illustrator 19.0.0, SVG Export Plug-In . SVG Version: 6.00 Build 0)  -->
<svg version="1.1" id="Capa_1" xmlns="http://www.w3.org/2000/svg" xmlns:xlink="http://www.w3.org/1999/xlink" x="0px" y="0px"
	 viewBox="0 0 512.003 512.003" style="enable-background:new 0 0 512.003 512.003;" xml:space="preserve">
<path style="fill:#307E45;" d="M277.331,147.715L277.331,147.715c-4.71,0-8.532-3.822-8.532-8.532v-36.799
	c-0.051-47.097-38.224-85.269-85.321-85.321V0c56.516,0.06,102.325,45.868,102.385,102.385v36.799
	C285.863,143.893,282.041,147.715,277.331,147.715z"/>
<path style="fill:#399D5A;" d="M396.78,8.532c0.009,31.68-12.576,62.071-34.981,84.467c-14.069,14.112-31.475,24.436-50.595,30.033
	c-9.616,2.884-19.573,4.522-29.606,4.863c-1.45,0.085-2.816,0.085-4.266,0.085C277.331,62.011,330.81,8.532,396.78,8.532z"/>
<rect x="257.912" y="72.505" transform="matrix(-0.7071 0.7071 -0.7071 -0.7071 610.8724 -90.9568)" style="fill:#307E45;" width="132.723" height="17.064"/>
<path style="fill:#E66644;" d="M131.433,461.499c-5.025,0-10-0.179-14.974-0.384c25.801,18.199,56.568,28.028,88.136,28.156
	c1.51,0.034,3.02-0.026,4.522-0.171v0.171h17.064c15.818,15.887,40.51,18.753,59.554,6.911c6.467-4.275,14.001-6.672,21.757-6.911
	h0.085c91.677-0.128,165.991-82.036,165.991-183.141c-0.026-21.356-3.481-42.566-10.238-62.83
	C406.123,375.726,275.685,461.482,131.433,461.499z"/>
<path style="fill:#FF714C;" d="M463.33,243.3c-22.857-68.965-82.061-118.596-152.135-120.302
	c-9.616,2.884-19.573,4.522-29.606,4.863l0.427,16.126c-23.489-13.788-50.228-21.066-77.471-21.074
	C112.833,122.947,38.434,204.94,38.434,306.13c-0.887,61.303,28.233,119.167,77.983,154.985c4.974,0.205,9.948,0.384,14.974,0.384
	C275.659,461.499,406.123,375.743,463.33,243.3z"/>
<path d="M342.713,118.348c38.761-23.019,62.54-64.733,62.6-109.816c0-4.71-3.822-8.532-8.532-8.532
	c-49.247,0.077-94.083,28.395-115.311,72.821C268.39,29.623,228.605,0.06,183.479,0v17.064
	c47.097,0.051,85.269,38.224,85.321,85.321v17.064h0.435c-0.188,2.833-0.435,5.648-0.435,8.532l0,0
	c-20.255-8.89-42.114-13.515-64.229-13.592c-96.31,0.026-174.668,86.012-174.668,191.715s78.358,191.681,174.677,191.681
	c1.502,0,2.995-0.102,4.496-0.137v0.137h13.651c18.736,16.603,46.167,18.898,67.403,5.648c5.162-3.473,11.194-5.426,17.414-5.648
	h3.916v-0.111c94.45-2.372,170.641-87.36,170.641-191.57C482.101,213.668,422.172,136.308,342.713,118.348z M387.932,17.414
	c-3.729,45.271-34.64,83.717-78.06,97.069c-0.802,0-1.595-0.068-2.406-0.068v0.853c-2.287,0.648-4.616,1.169-6.962,1.706
	l76.788-76.788l-12.141-12.09l-76.746,76.788c10.247-47.899,50.663-83.435,99.484-87.471L387.932,17.414z M307.467,480.704
	L307.467,480.704c-9.343,0.23-18.438,3.072-26.253,8.199c-10.452,6.484-23.335,7.713-34.819,3.31
	c12.158-3.285,23.89-7.952,34.981-13.916c13.003-7.03,25.059-15.673,35.886-25.741l-11.604-12.517
	c-9.761,9.095-20.639,16.902-32.371,23.25c-21.091,11.459-44.708,17.448-68.709,17.431c-86.907,0-157.613-78.333-157.613-174.617
	s70.705-174.626,157.613-174.626c37.618,0.29,73.734,14.812,101.079,40.655l11.604-12.517c-9.812-9.044-20.631-16.928-32.251-23.489
	c9.01-0.52,17.934-2.005,26.629-4.411c84.928,2.483,153.398,79.664,153.398,174.387c0,96.284-70.705,174.617-157.613,174.617
	L307.467,480.704z"/>
<g>
</g>
<g>
</g>
<g>
</g>
<g>
</g>
<g>
</g>
<g>
</g>
<g>
</g>
<g>
</g>
<g>
</g>
<g>
</g>
<g>
</g>
<g>
</g>
<g>
</g>
<g>
</g>
<g>
</g>
</svg>
