<?xml version="1.0" encoding="iso-8859-1"?>
<!-- Generator: Adobe Illustrator 19.0.0, SVG Export Plug-In . SVG Version: 6.00 Build 0)  -->
<svg version="1.1" id="Capa_1" xmlns="http://www.w3.org/2000/svg" xmlns:xlink="http://www.w3.org/1999/xlink" x="0px" y="0px"
	 viewBox="0 0 512.002 512.002" style="enable-background:new 0 0 512.002 512.002;" xml:space="preserve">
<g>
	<path style="fill:#713520;" d="M312.389,35.05l-2.016-5.978l-8.122,2.665l-7.917,3.245l1.87,5.551l0,0l4.962,14.954
		c34.101,101.792-18.123,212.363-118.394,250.692c-0.239,0.085-1.11,0.461-1.332,0.581l5.551,16.15
		c0.658-0.214,1.29-0.478,1.904-0.786c108.795-41.591,165.451-161.557,128.463-272l-4.953-14.946L312.389,35.05z"/>
	<path style="fill:#713520;" d="M318.461,65.736l-22.717-28.525l5.978-4.74l6.602-6.79c0.282,0.273,0.555,0.555,0.811,0.854
		l22.717,28.533l0.342,0.342l8.711,10.932c63.284,79.775,55.008,194.71-19.045,264.604c-0.709,0.717-1.384,1.392-2.152,2.058
		l-11.273-12.81c0.495-0.427,0.914-0.854,1.384-1.332c67.844-63.77,75.556-168.876,17.73-241.853l-8.711-10.94L318.461,65.736z"/>
</g>
<g>
	<path style="fill:#307E45;" d="M290.124,8.49c6.576-0.128,12.008,5.107,12.127,11.675c0,0.179,0,0.359,0,0.538
		c0.043,5.107-3.245,9.642-8.113,11.188l-18.789,6.661c-76.026,26.817-145.066,70.329-202.064,127.336L57.23,182.029
		c-4.065,3.937-10.556,3.835-14.493-0.231c-2.87-2.955-3.681-7.345-2.075-11.128C84.414,72.021,182.209,8.447,290.124,8.49z"/>
	<path style="fill:#307E45;" d="M322.919,18.055l27.927,14.604c90.143,47.194,146.637,140.539,146.637,242.289
		c0.145,8.865-6.926,16.167-15.791,16.312c-0.231,0-0.461,0-0.692,0c-6.568,0.06-12.486-3.954-14.86-10.078l-1.11-2.904
		c-33.077-80.296-80.347-153.982-139.549-217.522c-0.171-0.085-0.256-0.256-0.342-0.342L302.422,31.89
		c-0.803-7.695,4.791-14.587,12.494-15.39C317.675,16.219,320.468,16.757,322.919,18.055z"/>
</g>
<path style="fill:#2A7038;" d="M173.301,475.184c2.357,3.963,5.193,7.609,8.446,10.88c29.891,29.891,87.794,20.582,129.215-20.924
	c26.475-26.415,39.772-59.509,38.235-87.794C303.558,429.211,241.436,463.765,173.301,475.184z"/>
<path style="fill:#328542;" d="M349.197,377.346c-0.393-15.484-6.568-30.258-17.311-41.42c-4.612-4.612-9.992-8.395-15.885-11.188
	c-31.77-15.116-78.485-2.989-113.415,32.026c-0.598,0.598-1.11,1.11-1.623,1.708c-21.462,20.864-34.528,48.885-36.723,78.742
	c-0.734,13.272,2.417,26.466,9.061,37.97C241.436,463.765,303.558,429.211,349.197,377.346z"/>
<path style="fill:#348A44;" d="M19.482,440.373c2.844,7.618,7.268,14.544,12.981,20.326c29.976,29.891,87.88,20.582,129.3-20.838
	c0.854-0.854,1.708-1.793,2.477-2.648c0.828-15.876,5.15-31.386,12.657-45.4c-45.631,31.744-99.905,48.74-155.493,48.68
	C20.763,440.459,20.122,440.416,19.482,440.373z"/>
<path style="fill:#3C9E4F;" d="M200.195,357.703c0.7-15.782-4.407-31.275-14.348-43.556c-1.025-1.196-2.05-2.391-3.245-3.587
	c-29.891-29.976-87.794-20.668-129.215,20.838C19.934,364.783,7.431,408.86,19.482,440.373c0.641,0,1.281,0.051,1.922,0.051
	c55.589,0.06,109.863-16.935,155.493-48.68c6.328-12.23,14.442-23.46,24.067-33.307L200.195,357.703z"/>
<path d="M354.851,25.109l-27.97-14.647c-5.97-3.203-13.067-3.519-19.293-0.854c-3.724-6.038-10.342-9.676-17.439-9.608
	C178.912,0.069,78.111,65.556,32.856,167.177c-3.758,8.241-1.008,17.994,6.508,23.059c3.134,2.169,6.858,3.339,10.667,3.356
	c4.962-0.017,9.719-2.016,13.203-5.551l16.124-16.133c56.178-56.007,124.108-98.82,198.878-125.32l17.832-6.286l0,0l5.056,15.176
	c33.563,99.665-15.825,208.29-112.988,248.523c-18.123-16.611-43.163-23.426-67.204-18.302
	c-28.063,5.227-53.804,19.071-73.643,39.601c-20.539,19.856-34.375,45.614-39.593,73.694c-5.21,24.289,1.811,49.594,18.789,67.725
	c13.835,13.391,32.504,20.625,51.754,20.061c5.346-0.017,10.692-0.453,15.97-1.315c23.272-4.236,44.99-14.587,62.942-29.994
	c2.246,13.81,8.703,26.595,18.49,36.595c13.904,13.331,32.581,20.505,51.831,19.899c34.008-1.426,66.119-16.039,89.537-40.746
	c20.522-19.839,34.366-45.58,39.601-73.643c5.21-24.289-1.811-49.594-18.789-67.725c-2.545-2.502-5.295-4.783-8.216-6.832
	c47.185-49.67,64.958-120.393,46.861-186.469c32.436,45.016,59.5,93.67,80.646,144.972l1.161,2.844
	c3.63,9.3,12.614,15.407,22.598,15.373c1.717-0.009,3.433-0.179,5.124-0.512c11.743-2.101,20.215-12.418,19.993-24.34
	C506.16,169.953,447.889,73.653,354.851,25.109z M291.32,23.863l-18.789,6.61c-77.162,27.372-147.269,71.559-205.249,129.369
	l-16.124,16.133c-0.649,0.649-1.7,0.649-2.34,0c-0.487-0.487-0.623-1.221-0.342-1.853C90.973,78.64,185.659,17.107,290.167,17.056
	c1.742-0.12,3.254,1.179,3.416,2.912C294.027,21.668,293.019,23.401,291.32,23.863z M156.093,433.439l-0.342,0.35
	c-17.294,17.994-39.764,30.164-64.283,34.81c-18.866,4.253-38.628-0.948-52.95-13.955c-13.015-14.314-18.225-34.076-13.963-52.95
	c4.646-24.519,16.816-46.989,34.81-64.283c17.303-17.994,39.781-30.156,64.309-34.793c18.866-4.253,38.628,0.957,52.95,13.955
	c10.078,10.616,15.475,24.827,14.988,39.456C171.525,377.184,159.03,404.41,156.093,433.439z M339.777,394.862
	c-4.646,24.528-16.816,46.997-34.81,64.3c-38.073,38.056-90.647,47.407-117.216,20.847s-17.209-79.143,20.855-117.207
	c17.294-17.994,39.764-30.164,64.283-34.819c4.356-0.7,8.754-1.068,13.161-1.076c14.741-0.547,29.071,4.876,39.764,15.039
	C338.821,356.251,344.031,376.005,339.777,394.862z M313.883,314.669c-14.015-4.945-29.08-6.166-43.709-3.561
	c-23.23,4.219-44.922,14.536-62.857,29.891c-1.435-8.079-4.262-15.851-8.352-22.965c95.054-41.702,147.209-144.921,124.407-246.183
	l4.168,5.218C384.179,148.184,378.303,250.514,313.883,314.669z M482.708,282.531c-3.63,0.871-7.345-1.11-8.634-4.62l-1.161-2.844
	c-33.29-80.954-80.902-155.254-140.539-219.324l-21.351-26.663c0.214-0.692,0.53-1.349,0.948-1.947
	c0.974-1.375,2.519-2.22,4.202-2.289c0.965,0.017,1.913,0.273,2.759,0.743l27.97,14.647
	c87.436,45.597,142.205,136.098,142.042,234.713C489.096,278.697,486.415,281.951,482.708,282.531z"/>
<g>
</g>
<g>
</g>
<g>
</g>
<g>
</g>
<g>
</g>
<g>
</g>
<g>
</g>
<g>
</g>
<g>
</g>
<g>
</g>
<g>
</g>
<g>
</g>
<g>
</g>
<g>
</g>
<g>
</g>
</svg>
