<?xml version="1.0" encoding="iso-8859-1"?>
<!-- Generator: Adobe Illustrator 19.0.0, SVG Export Plug-In . SVG Version: 6.00 Build 0)  -->
<svg version="1.1" id="Capa_1" xmlns="http://www.w3.org/2000/svg" xmlns:xlink="http://www.w3.org/1999/xlink" x="0px" y="0px"
	 viewBox="0 0 512 512" style="enable-background:new 0 0 512 512;" xml:space="preserve">
<g>
	<path style="fill:#307E45;" d="M325.183,45.336c-49.371,49.287-129.325,49.287-178.696,0
		C195.841-4.002,275.837-4.002,325.183,45.336z"/>
	<path style="fill:#307E45;" d="M323.414,99.172h-16.85v-8.425c0.051-46.506,37.744-84.2,84.251-84.251v16.85
		c-37.205,0.042-67.358,30.195-67.401,67.401V99.172z"/>
</g>
<path style="fill:#F0D968;" d="M68.682,464.71c1.441,2.629,3.117,5.122,5.013,7.439c16.463,19.925,40.963,31.451,66.811,31.426
	h30.077c65.901-0.008,129.527-24.07,178.949-67.653c43.246-38.123,73.18-89.078,85.43-145.417l12.132-55.858
	c5.114-23.632,2.41-48.284-7.692-70.248C393.19,333.759,243.949,454.659,68.682,464.71z"/>
<path style="fill:#FFE96F;" d="M439.402,164.399c-18.139-39.783-57.863-65.286-101.581-65.227h-43.473
	c-26.724,0-52.556,9.596-72.793,27.044c-36.978,31.712-58.243,77.999-58.217,126.713v48.191
	c-0.017,30.078-15.603,58.007-41.199,73.804l-35.048,21.568c-23.363,14.196-31.468,44.223-18.409,68.243
	C243.949,454.676,393.199,333.768,439.402,164.399z"/>
<path d="M337.854,90.747h-14.441c0.042-37.205,30.195-67.358,67.401-67.401V6.496c-24.466,0.008-47.703,10.683-63.66,29.227
	c-53.128-49-135.433-47.399-186.624,3.623c-3.286,3.294-3.286,8.619,0,11.913c25.216,25.368,59.54,39.589,95.313,39.488
	c26.194,0.059,51.823-7.574,73.719-21.956c-1.963,7.153-2.974,14.533-2.999,21.956h-12.183
	c-28.746,0.008-56.541,10.312-78.353,29.041c-38.814,33.346-61.141,81.976-61.115,133.15v48.158
	c-0.101,27.137-14.171,52.32-37.23,66.625l-35.04,21.568c-14.887,9.15-25.073,24.315-27.904,41.561
	c-2.806,16.64,1.752,33.675,12.478,46.692c18.055,21.863,44.939,34.509,73.298,34.459h30.094
	c131.22-0.017,244.689-91.479,272.56-219.701l12.132-55.825c14.112-64.856-27.036-128.878-91.892-142.982
	C355.016,91.665,346.448,90.747,337.854,90.747z M235.844,73.897c-28.275,0.084-55.622-10.076-76.988-28.595
	c44.291-38.031,109.703-38.031,153.993,0C291.483,63.82,264.127,73.981,235.844,73.897z M438.837,232.886l-12.132,55.85
	C400.495,409.214,293.867,495.15,170.566,495.15h-30.094c-23.321,0.025-45.428-10.371-60.281-28.35
	c-7.675-9.234-10.902-21.374-8.829-33.203c2.047-12.427,9.386-23.363,20.111-29.96l35.04-21.568
	c28.03-17.389,45.125-47.989,45.251-80.973v-48.158c-0.025-46.262,20.161-90.224,55.26-120.361
	c18.754-16.117,42.673-24.98,67.401-24.98h43.473c57.071,0.025,103.325,46.313,103.3,103.384
	C441.188,218.344,440.404,225.691,438.837,232.886z"/>
<g>
</g>
<g>
</g>
<g>
</g>
<g>
</g>
<g>
</g>
<g>
</g>
<g>
</g>
<g>
</g>
<g>
</g>
<g>
</g>
<g>
</g>
<g>
</g>
<g>
</g>
<g>
</g>
<g>
</g>
</svg>
