<?xml version="1.0" encoding="iso-8859-1"?>
<!-- Generator: Adobe Illustrator 19.0.0, SVG Export Plug-In . SVG Version: 6.00 Build 0)  -->
<svg version="1.1" id="Capa_1" xmlns="http://www.w3.org/2000/svg" xmlns:xlink="http://www.w3.org/1999/xlink" x="0px" y="0px"
	 viewBox="0 0 511.997 511.997" style="enable-background:new 0 0 511.997 511.997;" xml:space="preserve">
<path style="fill:#80386A;" d="M187.791,196.263c-0.026,14.737,4.736,29.081,13.568,40.874l-13.568,10.325
	c-21.538-0.017-41.813,10.137-54.698,27.392l-13.568-10.325c-37.7,0-68.266-30.566-68.266-68.266s30.566-68.266,68.266-68.266
	S187.791,158.564,187.791,196.263z"/>
<g>
	<path style="fill:#733360;" d="M192.364,459.615c13.44,35.225,52.889,52.889,88.114,39.449s52.889-52.889,39.449-88.114
		c-3.831-10.052-9.992-19.055-17.962-26.274c-1.101-0.998-2.27-1.928-3.413-2.85C267.158,412.81,231.378,439.024,192.364,459.615z"
		/>
	<path style="fill:#733360;" d="M425.867,136.702c-7.432,44.586-21.615,87.772-42.043,128.092l8.764-0.265
		c37.29,5.632,68.266-30.549,68.266-68.266C460.853,171.534,447.464,148.742,425.867,136.702z"/>
	<path style="fill:#733360;" d="M298.526,381.826c1.169,0.922,2.338,1.852,3.413,2.85l22.383-0.683
		c37.683,0.026,68.24-30.506,68.266-68.18c0.009-14.856-4.83-29.303-13.781-41.156C357.533,314.175,330.474,350.296,298.526,381.826
		z"/>
</g>
<g>
	<path style="fill:#80386A;" d="M256.056,366.927c-37.64-0.068-68.197,30.395-68.266,68.027c-0.017,8.431,1.536,16.793,4.574,24.661
		c39.005-20.591,74.776-46.805,106.161-77.789C286.477,372.184,271.493,366.927,256.056,366.927z"/>
	<path style="fill:#80386A;" d="M392.587,127.998c-37.23-0.478-67.788,29.32-68.266,66.55c-0.009,0.572-0.009,1.143,0,1.715
		c0-37.7-30.566-68.266-68.266-68.266s-68.266,30.566-68.266,68.266s30.566,68.266,68.266,68.266l13.568,10.325
		c22.57-30.199,65.347-36.386,95.546-13.815c1.749,1.306,3.439,2.705,5.06,4.173l13.653-0.418
		c20.411-40.319,34.568-83.514,41.983-128.092C415.704,130.993,404.244,127.998,392.587,127.998z"/>
	<path style="fill:#80386A;" d="M324.322,247.463c-37.683-0.026-68.24,30.498-68.266,68.18c0,0.026,0,0.06,0,0.085
		c0.026,23.867-12.433,46.011-32.853,58.367l0.512,1.024c24.021-12.996,53.486-10.359,74.811,6.707
		c31.948-31.53,59.007-67.651,80.28-107.168C365.955,257.506,345.757,247.428,324.322,247.463z"/>
	<path style="fill:#80386A;" d="M201.358,237.137c12.885,17.254,33.16,27.409,54.698,27.392l13.568,10.325
		c-8.832,11.793-13.593,26.137-13.568,40.874c0,37.7-30.566,68.266-68.266,68.266s-68.266-30.566-68.266-68.266
		s30.566-68.266,68.266-68.266L201.358,237.137z"/>
</g>
<g>
	<path style="fill:#662D55;" d="M256.056,511.991c-42.418,0-76.799-34.38-76.799-76.799s34.38-76.799,76.799-76.799
		c19.097,0,37.512,7.117,51.651,19.959l0,0c31.394,28.526,33.715,77.097,5.197,108.482
		C298.338,502.861,277.705,511.991,256.056,511.991z M256.056,375.46c-32.989-0.009-59.741,26.734-59.741,59.724
		s26.734,59.741,59.724,59.741s59.741-26.734,59.741-59.724c0-16.827-7.091-32.878-19.55-44.202l0,0
		C285.248,380.99,270.921,375.452,256.056,375.46z"/>
	<path style="fill:#662D55;" d="M187.791,392.527c-42.418,0-76.799-34.38-76.799-76.799s34.38-76.799,76.799-76.799v17.066
		c-32.989,0-59.732,26.743-59.732,59.732s26.743,59.732,59.732,59.732s59.732-26.743,59.732-59.732h17.066
		C264.589,358.147,230.209,392.527,187.791,392.527z"/>
	<path style="fill:#662D55;" d="M119.525,273.062c-42.418,0-76.799-34.38-76.799-76.799s34.38-76.799,76.799-76.799
		s76.799,34.38,76.799,76.799h-17.066c0-32.989-26.743-59.732-59.732-59.732s-59.732,26.743-59.732,59.732
		s26.743,59.732,59.732,59.732V273.062z"/>
	<path style="fill:#662D55;" d="M400.267,273.634c-2.987,0.009-5.965-0.213-8.917-0.666l2.56-16.879
		c13.218,1.809,26.555-2.321,36.437-11.289c13.858-12.339,21.845-29.977,21.973-48.537c-0.034-32.972-26.76-59.698-59.732-59.732
		c-16.486,0.026-32.255,6.707-43.75,18.526c-10.701,10.88-16.478,25.668-15.983,40.917l-17.066,0.58
		c-0.666-19.882,6.844-39.167,20.778-53.358c14.711-15.138,34.909-23.697,56.02-23.731c42.393,0.051,76.748,34.406,76.799,76.799
		c-0.068,23.543-10.248,45.926-27.955,61.439C430.082,267.806,415.465,273.463,400.267,273.634z"/>
	<path style="fill:#662D55;" d="M332.855,196.263h-17.066c0-32.989-26.743-59.732-59.732-59.732
		c-32.989,0-59.732,26.743-59.732,59.732h-17.066c0-42.418,34.38-76.799,76.799-76.799S332.855,153.845,332.855,196.263z"/>
	<path style="fill:#662D55;" d="M256.056,273.062c-24.209-0.06-46.984-11.469-61.533-30.813
		c-9.95-13.261-15.309-29.405-15.266-45.985h17.066c0,32.989,26.743,59.732,59.732,59.732V273.062z"/>
	<path style="fill:#662D55;" d="M324.322,392.527V375.46c32.989,0,59.732-26.743,59.732-59.732s-26.743-59.732-59.732-59.732
		s-59.732,26.743-59.732,59.732h-17.066c-0.043-16.58,5.316-32.716,15.257-45.977c25.395-33.971,73.522-40.934,107.493-15.539
		s40.934,73.522,15.539,107.493C371.323,381.092,348.53,392.518,324.322,392.527z"/>
</g>
<path style="fill:#713520;" d="M264.589,127.998h-17.066C247.6,57.343,304.866,0.077,375.521,0h8.533v17.066h-8.533
	C314.287,17.135,264.666,66.764,264.589,127.998z"/>
<path d="M469.386,196.263c-0.051-42.393-34.406-76.748-76.799-76.799c-21.103,0.043-41.292,8.593-55.995,23.722
	c-5,5.18-9.233,11.042-12.578,17.416c-11.793-22.417-33.868-37.597-59.024-40.575c4.215-57.966,52.419-102.868,110.53-102.961h8.533
	V0h-8.533c-67.48,0.111-123.296,52.564-127.588,119.908c-25.736,2.79-48.332,18.338-60.142,41.369
	c-19.319-37.759-65.595-52.701-103.354-33.382S31.736,193.49,51.063,231.249c13.15,25.702,39.603,41.847,68.47,41.813v-17.066
	c-32.989,0-59.732-26.743-59.732-59.732s26.743-59.732,59.732-59.732s59.732,26.743,59.732,59.732
	c0.051,42.393,34.406,76.748,76.799,76.799v-17.066c-32.989,0-59.732-26.743-59.732-59.732s26.743-59.732,59.732-59.732
	s59.732,26.743,59.732,59.732l0,0c0,0.094,0,0.188,0,0.29l8.533-0.29h8.533v-0.29l0,0c-0.486-15.266,5.299-30.071,16.017-40.959
	c11.486-11.793,27.246-18.457,43.716-18.483c32.972,0.034,59.698,26.76,59.732,59.732c-0.145,18.551-8.141,36.172-22.007,48.503
	c-9.89,8.968-23.236,13.116-36.462,11.324l-2.56,16.879c2.944,0.444,5.914,0.666,8.883,0.666c15.232-0.154,29.9-5.811,41.284-15.931
	C459.155,242.18,469.326,219.806,469.386,196.263z"/>
<path d="M401.12,315.728c0-42.418-34.38-76.799-76.799-76.799s-76.799,34.38-76.799,76.799c0,32.989-26.743,59.732-59.732,59.732
	s-59.732-26.743-59.732-59.732s26.743-59.732,59.732-59.732v-17.066c-42.418,0-76.799,34.38-76.799,76.799
	s34.38,76.799,76.799,76.799c1.553,0,3.063-0.145,4.591-0.23c-23.688,35.182-14.378,82.908,20.804,106.597
	c35.182,23.688,82.908,14.378,106.597-20.804s14.378-82.908-20.804-106.597c-12.689-8.542-27.63-13.098-42.922-13.098
	c-1.553,0-3.063,0.145-4.591,0.23c8.567-12.663,13.141-27.605,13.124-42.896c0-32.989,26.743-59.732,59.732-59.732
	s59.732,26.743,59.732,59.732s-26.743,59.732-59.732,59.732v17.066C366.723,392.476,401.078,358.121,401.12,315.728z
	 M256.056,375.46c32.989,0,59.732,26.743,59.732,59.732s-26.743,59.732-59.732,59.732c-32.989,0-59.732-26.743-59.732-59.732
	C196.367,402.22,223.084,375.495,256.056,375.46z"/>
<g>
</g>
<g>
</g>
<g>
</g>
<g>
</g>
<g>
</g>
<g>
</g>
<g>
</g>
<g>
</g>
<g>
</g>
<g>
</g>
<g>
</g>
<g>
</g>
<g>
</g>
<g>
</g>
<g>
</g>
</svg>
