<?xml version="1.0" encoding="iso-8859-1"?>
<!-- Generator: Adobe Illustrator 19.0.0, SVG Export Plug-In . SVG Version: 6.00 Build 0)  -->
<svg version="1.1" id="Capa_1" xmlns="http://www.w3.org/2000/svg" xmlns:xlink="http://www.w3.org/1999/xlink" x="0px" y="0px"
	 viewBox="0 0 512.001 512.001" style="enable-background:new 0 0 512.001 512.001;" xml:space="preserve">
<g>
	<path style="fill:#307E45;" d="M267.613,360.759l25.726,25.726c-23.685,23.668-62.067,23.668-85.752,0l-25.726-25.726
		C205.546,337.091,243.928,337.091,267.613,360.759z"/>
	<path style="fill:#307E45;" d="M404.816,223.556l25.726,25.726c-23.685,23.668-62.067,23.668-85.752,0l-25.726-25.726
		C342.749,199.888,381.132,199.888,404.816,223.556z"/>
	<path style="fill:#307E45;" d="M464.843,154.954l25.726,25.726c-23.685,23.668-62.067,23.668-85.752,0l-25.726-25.726
		C402.775,131.286,441.158,131.286,464.843,154.954z"/>
	<path style="fill:#307E45;" d="M336.215,292.157l25.726,25.726c-23.685,23.668-62.067,23.668-85.752,0l-25.726-25.726
		C274.147,268.49,312.53,268.49,336.215,292.157z"/>
	<path style="fill:#307E45;" d="M344.19,60.026c23.668,23.685,23.668,62.067,0,85.752l-25.726-25.726
		c-23.668-23.685-23.668-62.067,0-85.752L344.19,60.026z"/>
	<path style="fill:#307E45;" d="M464.843,8.575v25.726c0,37.885-30.716,68.602-68.602,68.602V77.177
		c-0.051-37.834,30.579-68.55,68.413-68.602C464.723,8.575,464.783,8.575,464.843,8.575z"/>
	<path style="fill:#307E45;" d="M275.588,128.628c23.668,23.685,23.668,62.067,0,85.752l-25.726-25.726
		c-23.668-23.685-23.668-62.067,0-85.752L275.588,128.628z"/>
	<path style="fill:#307E45;" d="M206.986,197.23c23.668,23.685,23.668,62.067,0,85.752l-25.726-25.726
		c-23.668-23.685-23.668-62.067,0-85.752L206.986,197.23z"/>
	<path style="fill:#307E45;" d="M139.585,265.831c23.668,23.685,23.668,62.067,0,85.752l-25.726-25.726
		c-23.668-23.685-23.668-62.067,0-85.752L139.585,265.831z"/>
	<path style="fill:#307E45;" d="M139.585,360.159c-2.272,0-4.459-0.9-6.063-2.513l-25.726-25.726
		c-27.02-27.029-27.02-70.848,0-97.877c3.353-3.344,8.772-3.344,12.125,0l25.726,25.726c26.995,27.046,26.995,70.831,0,97.877
		C144.044,359.258,141.866,360.159,139.585,360.159z M114.357,252.729c-14.767,20.718-12.408,49.067,5.565,67.067l19.166,19.157
		c14.749-20.718,12.4-49.05-5.565-67.058L114.357,252.729z"/>
	<path style="fill:#307E45;" d="M250.462,412.811c-18.368,0.06-35.99-7.237-48.939-20.263l-25.726-25.726
		c-3.344-3.344-3.344-8.781,0-12.125c27.029-27.021,70.848-27.021,97.877,0l25.726,25.726c3.344,3.344,3.344,8.781,0,12.125
		C286.453,405.573,268.831,412.871,250.462,412.811z M194.484,361.256l19.166,19.166c17.999,17.974,46.349,20.332,67.067,5.574
		l-19.166-19.174C243.551,348.848,215.201,346.49,194.484,361.256z"/>
	<path style="fill:#307E45;" d="M319.064,344.209c-18.368,0.06-35.99-7.237-48.939-20.263L244.4,298.22
		c-3.344-3.344-3.344-8.781,0-12.125c27.029-27.02,70.848-27.02,97.877,0l25.726,25.726c3.344,3.344,3.344,8.781,0,12.125
		C355.054,336.971,337.432,344.269,319.064,344.209z M263.085,292.655l19.166,19.166c17.999,17.974,46.349,20.332,67.067,5.574
		l-19.166-19.174C312.153,280.246,283.803,277.888,263.085,292.655z"/>
	<path style="fill:#307E45;" d="M387.666,275.607c-18.368,0.06-35.99-7.237-48.939-20.263l-25.726-25.726
		c-3.344-3.344-3.344-8.781,0-12.125c27.029-27.02,70.848-27.02,97.877,0l25.726,25.726c3.344,3.344,3.344,8.781,0,12.125
		C423.656,268.37,406.034,275.667,387.666,275.607z M331.687,224.053l19.166,19.166c17.999,17.974,46.349,20.332,67.067,5.574
		l-19.166-19.174C380.754,211.645,352.405,209.287,331.687,224.053z"/>
	<path style="fill:#307E45;" d="M447.692,207.006c-18.368,0.06-35.99-7.237-48.939-20.263l-25.726-25.726
		c-3.344-3.344-3.344-8.781,0-12.125c27.029-27.02,70.848-27.02,97.877,0l25.726,25.726c3.344,3.344,3.344,8.781,0,12.125
		C483.682,199.768,466.06,207.066,447.692,207.006z M391.713,155.451l19.166,19.166c17.999,17.974,46.349,20.332,67.067,5.574
		l-19.166-19.174C440.781,143.043,412.431,140.685,391.713,155.451z"/>
	<path style="fill:#307E45;" d="M206.986,291.557c-2.272,0-4.459-0.9-6.063-2.513l-25.726-25.726
		c-26.995-27.046-26.995-70.831,0-97.877c3.344-3.344,8.781-3.344,12.125,0l25.726,25.726c27.02,27.029,27.02,70.848,0,97.877
		C211.445,290.657,209.267,291.557,206.986,291.557z M181.758,184.135c-14.749,20.718-12.4,49.05,5.565,67.058l19.166,19.166
		c14.767-20.718,12.408-49.067-5.565-67.067L181.758,184.135z"/>
	<path style="fill:#307E45;" d="M275.588,222.955c-2.272,0-4.459-0.9-6.063-2.513L243.8,194.717
		c-26.995-27.046-26.995-70.831,0-97.877c3.344-3.344,8.781-3.344,12.125,0l25.726,25.726c27.021,27.029,27.021,70.848,0,97.877
		C280.047,222.055,277.869,222.955,275.588,222.955z M250.36,115.534c-14.749,20.718-12.4,49.05,5.565,67.058l19.166,19.166
		c14.767-20.718,12.408-49.067-5.565-67.067L250.36,115.534z"/>
	<path style="fill:#307E45;" d="M344.19,154.354c-2.272,0-4.459-0.9-6.063-2.513l-25.726-25.726
		c-26.995-27.046-26.995-70.831,0-97.877c3.344-3.344,8.781-3.344,12.125,0l25.726,25.726c27.02,27.029,27.02,70.848,0,97.877
		C348.649,153.453,346.47,154.354,344.19,154.354z M318.961,46.932c-14.749,20.718-12.4,49.05,5.565,67.058l19.166,19.166
		c14.767-20.718,12.408-49.067-5.565-67.067L318.961,46.932z"/>
	<path style="fill:#307E45;" d="M396.241,111.478c-4.734,0-8.575-3.842-8.575-8.575V77.177C387.614,34.601,422.095,0.051,464.671,0
		c0.06,0,0.111,0,0.172,0c4.734,0,8.575,3.842,8.575,8.575v25.726C473.375,76.902,438.851,111.426,396.241,111.478z M456.267,17.751
		c-29.559,4.228-51.494,29.567-51.451,59.426v16.542c29.516-4.305,51.417-29.593,51.451-59.418V17.751z"/>
</g>
<rect x="-7.71" y="433.059" transform="matrix(-0.7071 0.7071 -0.7071 -0.7071 454.3635 695.0643)" style="fill:#245E34;" width="181.878" height="17.15"/>
<path d="M119.931,234.043c-3.353-3.344-8.772-3.344-12.125,0c-27.029,27.029-27.029,70.848,0,97.877l25.726,25.726
	c3.344,3.344,8.772,3.344,12.125,0c26.978-27.046,26.978-70.831,0-97.877L119.931,234.043z M139.096,338.952l-19.166-19.157
	c-17.956-18.008-20.306-46.34-5.557-67.058l19.157,19.157C151.487,289.902,153.837,318.235,139.096,338.952z"/>
<path d="M250.462,412.793c18.36,0.034,35.964-7.246,48.939-20.237c3.344-3.344,3.344-8.781,0-12.125l-25.726-25.726
	c-27.029-27.029-70.848-27.029-97.877,0c-3.344,3.344-3.344,8.781,0,12.125l25.726,25.726
	C214.498,405.547,232.112,412.828,250.462,412.793z M261.55,366.83l19.157,19.166c-20.726,14.732-49.05,12.383-67.058-5.565
	l-19.157-19.157C215.21,346.524,243.551,348.874,261.55,366.83z"/>
<path d="M370.515,317.892c0-2.272-0.9-4.459-2.513-6.063l-25.726-25.726c-27.029-27.029-70.848-27.029-97.877,0
	c-3.344,3.344-3.344,8.781,0,12.125l25.726,25.726c27.046,26.986,70.831,26.986,97.877,0
	C369.615,322.351,370.515,320.164,370.515,317.892z M282.251,311.829l-19.157-19.157c20.718-14.749,49.05-12.4,67.058,5.557
	l19.157,19.166C328.591,332.126,300.267,329.777,282.251,311.829z"/>
<path d="M410.879,217.502c-27.029-27.029-70.848-27.029-97.877,0c-3.344,3.344-3.344,8.781,0,12.125l25.726,25.726
	c27.046,26.986,70.831,26.986,97.877,0c3.344-3.344,3.344-8.781,0-12.125L410.879,217.502z M350.852,243.227l-19.157-19.157
	c20.718-14.749,49.05-12.4,67.058,5.557l19.157,19.166C397.193,263.525,368.869,261.175,350.852,243.227z"/>
<path d="M470.905,148.9c-27.029-27.029-70.848-27.029-97.877,0c-3.344,3.344-3.344,8.781,0,12.125l25.726,25.726
	c27.046,26.986,70.831,26.986,97.877,0c3.344-3.344,3.344-8.781,0-12.125L470.905,148.9z M410.879,174.626l-19.157-19.157
	c20.718-14.749,49.05-12.4,67.058,5.557l19.157,19.166C457.219,194.923,428.895,192.573,410.879,174.626z"/>
<path d="M175.189,165.441c-26.978,27.046-26.978,70.831,0,97.877l25.726,25.726c3.344,3.344,8.781,3.344,12.125,0
	c27.029-27.029,27.029-70.848,0-97.877l-25.726-25.726C183.919,162.226,178.594,162.226,175.189,165.441z M206.472,270.351
	l-19.157-19.157c-17.948-18.008-20.306-46.34-5.565-67.058l19.166,19.157C218.88,221.3,221.221,249.633,206.472,270.351z"/>
<path d="M243.791,194.717l25.726,25.726c3.344,3.344,8.781,3.344,12.125,0c27.029-27.029,27.029-70.848,0-97.877L255.916,96.84
	c-3.404-3.216-8.721-3.216-12.125,0C217.619,123.74,218.245,167.199,243.791,194.717z M250.351,115.534l19.166,19.157
	c17.956,18.008,20.306,46.34,5.557,67.058l-19.157-19.157C237.968,164.584,235.619,136.251,250.351,115.534z"/>
<path d="M312.393,28.238c-26.978,27.046-26.978,70.831,0,97.877l25.726,25.726c3.344,3.344,8.781,3.344,12.125,0
	c27.029-27.029,27.029-70.848,0-97.877l-25.726-25.726C321.122,25.022,315.797,25.022,312.393,28.238z M343.675,133.147
	l-19.157-19.157c-17.948-18.008-20.306-46.34-5.565-67.058l19.166,19.157C356.083,84.097,358.424,112.43,343.675,133.147z"/>
<path d="M473.418,34.301V8.575c0-4.734-3.842-8.575-8.575-8.575c-42.602,0.051-77.125,34.575-77.177,77.177v25.726
	c0,4.734,3.842,8.575,8.575,8.575C438.851,111.426,473.375,76.902,473.418,34.301z M404.816,77.177
	c0.034-29.825,21.935-55.113,51.451-59.418v16.542c-0.034,29.825-21.935,55.113-51.451,59.418V77.177z"/>
<rect x="-7.71" y="433.059" transform="matrix(-0.7071 0.7071 -0.7071 -0.7071 454.3635 695.0643)" width="181.878" height="17.15"/>
<g>
</g>
<g>
</g>
<g>
</g>
<g>
</g>
<g>
</g>
<g>
</g>
<g>
</g>
<g>
</g>
<g>
</g>
<g>
</g>
<g>
</g>
<g>
</g>
<g>
</g>
<g>
</g>
<g>
</g>
</svg>
