<?xml version="1.0" encoding="iso-8859-1"?>
<!-- Generator: Adobe Illustrator 19.0.0, SVG Export Plug-In . SVG Version: 6.00 Build 0)  -->
<svg version="1.1" id="Capa_1" xmlns="http://www.w3.org/2000/svg" xmlns:xlink="http://www.w3.org/1999/xlink" x="0px" y="0px"
	 viewBox="0 0 512.004 512.004" style="enable-background:new 0 0 512.004 512.004;" xml:space="preserve">
<g>
	<path style="fill:#399D4D;" d="M256.002,144.734l-88.458-33.97c-20.373-7.926-33.817-27.516-33.885-49.38
		c-0.017-1.967,0.102-3.925,0.341-5.874c2.997-26.75,25.609-46.979,52.53-46.996h4.172c26.307,0,48.622,19.335,52.36,45.378
		L256.002,144.734z"/>
	<path style="fill:#399D4D;" d="M256.002,144.734l12.941-90.842c3.738-26.044,26.052-45.378,52.36-45.378h4.172
		c26.92,0.017,49.533,20.246,52.53,46.996c0.238,1.95,0.358,3.908,0.341,5.874c-0.068,21.863-13.511,41.453-33.885,49.38
		L256.002,144.734z"/>
</g>
<path style="fill:#D1FFC5;" d="M256.002,153.248c-2.648,0-5.142-1.234-6.751-3.337L172.107,49.38l13.511-10.361l70.383,91.676
	l69.327-91.642L338.9,49.329l-76.087,100.513C261.204,151.987,258.684,153.248,256.002,153.248z"/>
<path style="fill:#DE88C4;" d="M214.225,456.959c4.759,4.759,9.399,9.629,13.937,14.618l15.069,24.69
	c4.316,7.049,13.537,9.271,20.595,4.947c2.018-1.234,3.712-2.929,4.946-4.947l15.069-24.69
	c19.173-21.165,40.483-40.279,63.598-57.042c17.291-12.507,31.714-28.564,42.313-47.081c-19.292,10.583-39.785,18.824-61.035,24.554
	C295.616,421.567,256.581,443.711,214.225,456.959z"/>
<path style="fill:#662D55;" d="M328.718,392.007c21.25-5.73,41.743-13.971,61.035-24.554c12.805-22.153,19.531-47.294,19.497-72.878
	c0-4.58-0.289-9.093-0.707-13.571C390.451,323.437,363.19,361.349,328.718,392.007z"/>
<path style="fill:#F797DA;" d="M122.251,367.454c10.6,18.517,25.022,34.574,42.313,47.081
	c17.641,12.813,34.251,26.997,49.661,42.424c42.356-13.247,81.391-35.392,114.493-64.951
	C259.314,410.899,185.287,402.096,122.251,367.454z"/>
<path style="fill:#80386A;" d="M256.002,145.074c-83.597-1.022-152.2,65.905-153.248,149.501
	c-0.034,25.584,6.692,50.725,19.496,72.878c63.036,34.642,137.063,43.446,206.467,24.554c34.472-30.658,61.733-68.57,79.825-111.002
	C400.378,203.13,334.303,144.249,256.002,145.074z"/>
<path d="M291.019,140.392l56.455-21.719c31.637-12.175,47.422-47.694,35.247-79.331C373.602,15.64,350.836,0.009,325.44,0h-4.129
	c-30.496,0.128-56.327,22.527-60.763,52.7l-4.546,31.841L251.455,52.7C247.02,22.527,221.189,0.128,190.693,0h-4.129
	c-33.902,0.009-61.376,27.491-61.376,61.393c0.009,25.388,15.64,48.162,39.342,57.281l56.455,21.719
	C147.749,155.606,94.998,219.774,94.24,294.576c0.068,27.653,7.501,54.786,21.548,78.607l-0.179,0.324
	c0.17,0.102,0.358,0.179,0.536,0.281c11.068,18.671,25.822,34.881,43.378,47.643c22.434,16.278,43.139,34.821,61.776,55.339
	l14.712,24c6.743,11.051,21.165,14.542,32.216,7.799c3.184-1.941,5.857-4.614,7.799-7.799l14.678-24
	c18.645-20.518,39.342-39.061,61.776-55.339c17.555-12.762,32.31-28.972,43.378-47.634c0.179-0.102,0.366-0.179,0.536-0.281
	l-0.179-0.324c14.048-23.821,21.48-50.963,21.548-78.616C417.014,219.774,364.254,155.606,291.019,140.392z M277.397,55.118
	c3.21-21.812,21.872-37.997,43.914-38.091h4.129c24.494,0.009,44.348,19.88,44.34,44.374c-0.008,18.339-11.298,34.787-28.419,41.377
	l-60.567,23.294l58.089-76.769l-13.579-10.276l-56.191,74.3L277.397,55.118z M170.634,102.795
	c-22.868-8.778-34.293-34.438-25.516-57.306c6.581-17.155,23.072-28.479,41.445-28.461h4.129
	c22.042,0.094,40.704,16.287,43.905,38.091l8.378,58.651l-57.374-74.785L172.09,49.38l58.745,76.624L170.634,102.795z
	 M342.467,407.664c-23.609,17.113-45.361,36.626-64.926,58.243c-0.349,0.383-0.673,0.809-0.945,1.252l-15.12,24.69
	c-1.847,3.022-5.806,3.976-8.829,2.12c-0.868-0.528-1.592-1.26-2.12-2.12l-15.12-24.69c-0.272-0.443-0.587-0.868-0.937-1.252
	c-19.573-21.608-41.334-41.13-64.934-58.243c-7.415-5.406-14.312-11.494-20.595-18.185c68.74,27.414,145.381,27.414,214.121,0
	C356.779,396.17,349.891,402.258,342.467,407.664z M383.844,360.838c-79.868,42.765-175.817,42.765-255.685,0
	c-11.119-20.314-16.925-43.105-16.891-66.263c1.115-78.863,65.862-141.941,144.734-140.996
	c78.871-0.945,143.618,62.133,144.734,140.996c0.034,23.166-5.772,45.957-16.891,66.28V360.838z"/>
<g>
</g>
<g>
</g>
<g>
</g>
<g>
</g>
<g>
</g>
<g>
</g>
<g>
</g>
<g>
</g>
<g>
</g>
<g>
</g>
<g>
</g>
<g>
</g>
<g>
</g>
<g>
</g>
<g>
</g>
</svg>
