<?xml version="1.0" encoding="iso-8859-1"?>
<!-- Generator: Adobe Illustrator 19.0.0, SVG Export Plug-In . SVG Version: 6.00 Build 0)  -->
<svg version="1.1" id="Capa_1" xmlns="http://www.w3.org/2000/svg" xmlns:xlink="http://www.w3.org/1999/xlink" x="0px" y="0px"
	 viewBox="0 0 512 512" style="enable-background:new 0 0 512 512;" xml:space="preserve">
<path style="fill:#95A3CD;" d="M298.667,8.533c113.092,0.026,204.774,91.708,204.8,204.8c0.068,23.492-18.918,42.598-42.411,42.667
	c-0.085,0-0.171,0-0.256,0H51.2c-23.561,0-42.667-19.106-42.667-42.667c0-113.109,91.691-204.8,204.8-204.8H298.667z"/>
<g>
	<path style="fill:#CDD3E7;" d="M337.579,448.768c1.929,28.211-19.371,52.651-47.582,54.579c-1.178,0.077-2.355,0.119-3.533,0.119
		h-60.928c-28.279,0.017-51.217-22.886-51.234-51.166c0-1.178,0.043-2.355,0.119-3.533L187.733,256h136.533L337.579,448.768z"/>
	<rect x="426.667" y="153.6" style="fill:#CDD3E7;" width="17.067" height="17.067"/>
	<rect x="418.133" y="213.333" style="fill:#CDD3E7;" width="17.067" height="17.067"/>
	<rect x="452.267" y="179.2" style="fill:#CDD3E7;" width="17.067" height="17.067"/>
	<rect x="384" y="196.267" style="fill:#CDD3E7;" width="17.067" height="17.067"/>
	<rect x="418.133" y="102.4" style="fill:#CDD3E7;" width="17.067" height="17.067"/>
	<rect x="384" y="76.8" style="fill:#CDD3E7;" width="17.067" height="17.067"/>
	<rect x="341.333" y="213.333" style="fill:#CDD3E7;" width="17.067" height="17.067"/>
	<rect x="187.733" y="204.8" style="fill:#CDD3E7;" width="17.067" height="17.067"/>
	<rect x="42.667" y="213.333" style="fill:#CDD3E7;" width="17.067" height="17.067"/>
	<rect x="93.867" y="179.2" style="fill:#CDD3E7;" width="17.067" height="17.067"/>
	<rect x="42.667" y="162.133" style="fill:#CDD3E7;" width="17.067" height="17.067"/>
	<rect x="76.8" y="110.933" style="fill:#CDD3E7;" width="17.067" height="17.067"/>
	<rect x="136.533" y="59.733" style="fill:#CDD3E7;" width="17.067" height="17.067"/>
	<rect x="187.733" y="42.667" style="fill:#CDD3E7;" width="17.067" height="17.067"/>
</g>
<g>
	<rect x="213.333" y="256" style="fill:#95A3CD;" width="17.067" height="93.867"/>
	<rect x="247.467" y="256" style="fill:#95A3CD;" width="17.067" height="68.267"/>
</g>
<path d="M298.667,0h-85.333C95.565,0.128,0.128,95.565,0,213.333c0.026,28.262,22.938,51.174,51.2,51.2h127.394l-12.663,183.629
	c-2.27,32.913,22.579,61.431,55.484,63.693c1.365,0.094,2.731,0.145,4.105,0.145h60.962c32.99,0,59.733-26.743,59.733-59.733
	c0-1.365-0.051-2.739-0.145-4.105l-12.664-183.629H460.8c28.262-0.026,51.174-22.938,51.2-51.2
	C511.872,95.565,416.435,0.128,298.667,0z M460.8,247.467H298.667v17.067h17.638l12.74,184.789
	c1.63,23.509-16.111,43.887-39.62,45.508c-0.981,0.068-1.963,0.102-2.944,0.102h-60.962c-23.561,0-42.667-19.106-42.667-42.667
	c0-0.981,0.034-1.963,0.102-2.944l12.74-184.789h17.638v-17.067H51.2c-18.85,0-34.133-15.283-34.133-34.133
	c0.119-108.348,87.919-196.147,196.267-196.267h85.333c108.348,0.119,196.147,87.919,196.267,196.267
	C494.933,232.183,479.65,247.467,460.8,247.467z"/>
<rect x="426.667" y="153.6" width="17.067" height="17.067"/>
<rect x="418.133" y="213.333" width="17.067" height="17.067"/>
<rect x="452.267" y="179.2" width="17.067" height="17.067"/>
<rect x="384" y="196.267" width="17.067" height="17.067"/>
<rect x="418.133" y="102.4" width="17.067" height="17.067"/>
<rect x="384" y="76.8" width="17.067" height="17.067"/>
<rect x="341.333" y="213.333" width="17.067" height="17.067"/>
<rect x="187.733" y="204.8" width="17.067" height="17.067"/>
<rect x="42.667" y="213.333" width="17.067" height="17.067"/>
<rect x="93.867" y="179.2" width="17.067" height="17.067"/>
<rect x="42.667" y="162.133" width="17.067" height="17.067"/>
<rect x="76.8" y="110.933" width="17.067" height="17.067"/>
<rect x="136.533" y="59.733" width="17.067" height="17.067"/>
<rect x="187.733" y="42.667" width="17.067" height="17.067"/>
<rect x="213.333" y="264.533" width="17.067" height="85.333"/>
<rect x="247.467" y="264.533" width="17.067" height="59.733"/>
<g>
</g>
<g>
</g>
<g>
</g>
<g>
</g>
<g>
</g>
<g>
</g>
<g>
</g>
<g>
</g>
<g>
</g>
<g>
</g>
<g>
</g>
<g>
</g>
<g>
</g>
<g>
</g>
<g>
</g>
</svg>
