<?xml version="1.0" encoding="iso-8859-1"?>
<!-- Generator: Adobe Illustrator 19.0.0, SVG Export Plug-In . SVG Version: 6.00 Build 0)  -->
<svg version="1.1" id="Capa_1" xmlns="http://www.w3.org/2000/svg" xmlns:xlink="http://www.w3.org/1999/xlink" x="0px" y="0px"
	 viewBox="0 0 511.994 511.994" style="enable-background:new 0 0 511.994 511.994;" xml:space="preserve">
<g>
	<path style="fill:#399D4D;" d="M426.661,8.533c0.051,45.269-17.945,88.694-50.005,120.659
		c-31.965,32.059-75.382,50.056-120.659,50.005C255.972,84.974,332.335,8.559,426.559,8.533
		C426.593,8.533,426.627,8.533,426.661,8.533z"/>
	<path style="fill:#399D4D;" d="M85.333,8.533c94.223-0.026,170.638,76.338,170.664,170.561c0,0.034,0,0.068,0,0.102h-0.512
		c-45.098-0.068-88.319-18.056-120.147-50.005C103.287,97.227,85.291,53.802,85.333,8.533z"/>
</g>
<g>
	<path style="fill:#FE4D4E;" d="M358.395,460.792c-18.824,0.026-34.107-15.223-34.133-34.047c0-0.026,0-0.06,0-0.085v-8.533
		c18.85,0,34.133-15.283,34.133-34.133c-0.026,18.824,15.223,34.107,34.047,34.133c0.026,0,0.06,0,0.085,0v8.533
		C392.528,445.509,377.245,460.792,358.395,460.792z"/>
	<path style="fill:#FE4D4E;" d="M368.379,331.344c6.426,6.383,15.104,9.967,24.149,9.984c-18.824-0.026-34.107,15.223-34.133,34.047
		c0,0.026,0,0.06,0,0.085c0-18.85-15.283-34.133-34.133-34.133c18.85,0,34.133-15.283,34.133-34.133
		C358.413,316.249,362.005,324.927,368.379,331.344z"/>
	<path style="fill:#FE4D4E;" d="M300.114,331.344c6.426,6.383,15.104,9.967,24.149,9.984c-18.824-0.026-34.107,15.223-34.133,34.047
		c0,0.026,0,0.06,0,0.085c0-18.85-15.283-34.133-34.133-34.133c18.85,0,34.133-15.283,34.133-34.133
		C290.147,316.249,293.74,324.927,300.114,331.344z"/>
	<path style="fill:#FE4D4E;" d="M221.864,460.792c18.85,0,34.133-15.283,34.133-34.133c-0.026,18.824,15.223,34.107,34.047,34.133
		c0.026,0,0.06,0,0.085,0v8.533c0,18.85-15.283,34.133-34.133,34.133s-34.133-15.283-34.133-34.133V460.792z"/>
	<path style="fill:#FE4D4E;" d="M221.864,221.863c18.824-0.026,34.107,15.223,34.133,34.047c0,0.026,0,0.06,0,0.085v8.533
		c0,18.85-15.283,34.133-34.133,34.133s-34.133-15.283-34.133-34.133v-8.533C187.732,237.146,203.015,221.863,221.864,221.863z"/>
	<path style="fill:#FE4D4E;" d="M290.13,221.863c18.824-0.026,34.107,15.223,34.133,34.047c0,0.026,0,0.06,0,0.085v8.533
		c0,18.85-15.283,34.133-34.133,34.133c-18.85,0-34.133-15.283-34.133-34.133v-8.533C255.997,237.146,271.28,221.863,290.13,221.863
		z"/>
	<path style="fill:#FE4D4E;" d="M221.864,460.792c-18.824,0.026-34.107-15.223-34.133-34.047c0-0.026,0-0.06,0-0.085v-8.533
		c18.85,0,34.133-15.283,34.133-34.133c-0.026,18.824,15.223,34.107,34.047,34.133c0.026,0,0.06,0,0.085,0v8.533
		C255.997,445.509,240.714,460.792,221.864,460.792z"/>
	<path style="fill:#FE4D4E;" d="M187.732,255.996v8.533c0,18.85-15.283,34.133-34.133,34.133s-34.133-15.283-34.133-34.133v-8.533
		c0-18.85,15.283-34.133,34.133-34.133S187.732,237.146,187.732,255.996z"/>
	<path style="fill:#FE4D4E;" d="M153.599,298.662v8.533c0,18.85-15.283,34.133-34.133,34.133s-34.133-15.283-34.133-34.133v-8.533
		c0-18.85,15.283-34.133,34.133-34.133C119.466,283.379,134.749,298.662,153.599,298.662z"/>
	<path style="fill:#FE4D4E;" d="M221.864,221.863c-18.85,0-34.133,15.283-34.133,34.133c0.026-18.824-15.223-34.107-34.047-34.133
		c-0.026,0-0.06,0-0.085,0v-8.533c0-18.85,15.283-34.133,34.133-34.133s34.133,15.283,34.133,34.133V221.863z"/>
	<path style="fill:#FE4D4E;" d="M187.732,418.126c-18.824,0.026-34.107-15.223-34.133-34.047c0-0.026,0-0.06,0-0.085v-8.533
		c0-18.85,15.283-34.133,34.133-34.133s34.133,15.283,34.133,34.133v8.533C221.864,402.843,206.581,418.126,187.732,418.126z"/>
	<path style="fill:#FE4D4E;" d="M426.661,298.662v8.533c0,18.85-15.283,34.133-34.133,34.133c-18.85,0-34.133-15.283-34.133-34.133
		v-8.533c18.85,0,34.133-15.283,34.133-34.133C411.378,264.529,426.661,279.812,426.661,298.662z"/>
	<path style="fill:#FE4D4E;" d="M392.528,341.328c18.85,0,34.133,15.283,34.133,34.133v8.533c0,18.85-15.283,34.133-34.133,34.133
		c-18.85,0-34.133-15.283-34.133-34.133v-8.533c-0.026-18.824,15.223-34.107,34.047-34.133
		C392.477,341.328,392.503,341.328,392.528,341.328z"/>
	<path style="fill:#FE4D4E;" d="M324.263,264.529c0,18.85,15.283,34.133,34.133,34.133v8.533c0,18.85-15.283,34.133-34.133,34.133
		c-18.85,0-34.133-15.283-34.133-34.133v-8.533C308.98,298.662,324.263,283.379,324.263,264.529z"/>
	<path style="fill:#FE4D4E;" d="M153.599,460.792c-18.824,0.026-34.107-15.223-34.133-34.047c0-0.026,0-0.06,0-0.085v-8.533
		c18.85,0,34.133-15.283,34.133-34.133c-0.026,18.824,15.223,34.107,34.047,34.133c0.026,0,0.06,0,0.085,0v8.533
		C187.732,445.509,172.449,460.792,153.599,460.792z"/>
	<path style="fill:#FE4D4E;" d="M221.864,298.662v8.533c0,18.85-15.283,34.133-34.133,34.133s-34.133-15.283-34.133-34.133v-8.533
		c18.85,0,34.133-15.283,34.133-34.133C187.732,283.379,203.015,298.662,221.864,298.662z"/>
	<path style="fill:#FE4D4E;" d="M290.13,460.792c-18.824,0.026-34.107-15.223-34.133-34.047c0-0.026,0-0.06,0-0.085v-8.533
		c18.85,0,34.133-15.283,34.133-34.133c-0.026,18.824,15.223,34.107,34.047,34.133c0.026,0,0.06,0,0.085,0v8.533
		C324.263,445.509,308.98,460.792,290.13,460.792z"/>
	<path style="fill:#FE4D4E;" d="M290.13,213.33c0-18.85,15.283-34.133,34.133-34.133c18.85,0,34.133,15.283,34.133,34.133v8.533
		c-18.85,0-34.133,15.283-34.133,34.133c0.026-18.824-15.223-34.107-34.047-34.133c-0.026,0-0.06,0-0.085,0V213.33z"/>
	<path style="fill:#FE4D4E;" d="M163.583,331.344c6.425,6.383,15.104,9.967,24.149,9.984c-18.824-0.026-34.107,15.223-34.133,34.047
		c0,0.026,0,0.06,0,0.085c0-18.85-15.283-34.133-34.133-34.133c18.85,0,34.133-15.283,34.133-34.133
		C153.616,316.249,157.208,324.927,163.583,331.344z"/>
	<path style="fill:#FE4D4E;" d="M392.528,255.996v8.533c0,18.85-15.283,34.133-34.133,34.133s-34.133-15.283-34.133-34.133v-8.533
		c0-18.85,15.283-34.133,34.133-34.133S392.528,237.146,392.528,255.996z"/>
	<path style="fill:#FE4D4E;" d="M358.395,460.792v8.533c0,18.85-15.283,34.133-34.133,34.133c-18.85,0-34.133-15.283-34.133-34.133
		v-8.533c18.85,0,34.133-15.283,34.133-34.133c-0.026,18.824,15.223,34.107,34.047,34.133
		C358.344,460.792,358.37,460.792,358.395,460.792z"/>
	<path style="fill:#FE4D4E;" d="M290.13,298.662v8.533c0,18.85-15.283,34.133-34.133,34.133s-34.133-15.283-34.133-34.133v-8.533
		c18.85,0,34.133-15.283,34.133-34.133C255.997,283.379,271.28,298.662,290.13,298.662z"/>
	<path style="fill:#FE4D4E;" d="M221.864,213.33c0-18.654,14.967-33.851,33.621-34.133h0.512
		c18.824-0.026,34.107,15.223,34.133,34.047c0,0.026,0,0.06,0,0.085v8.533c-18.85,0-34.133,15.283-34.133,34.133
		c0.026-18.824-15.223-34.107-34.047-34.133c-0.026,0-0.06,0-0.085,0V213.33z"/>
	<path style="fill:#FE4D4E;" d="M119.466,418.126c-18.824,0.026-34.107-15.223-34.133-34.047c0-0.026,0-0.06,0-0.085v-8.533
		c0-18.85,15.283-34.133,34.133-34.133s34.133,15.283,34.133,34.133v8.533C153.599,402.843,138.316,418.126,119.466,418.126z"/>
	<path style="fill:#FE4D4E;" d="M221.864,460.792v8.533c0,18.85-15.283,34.133-34.133,34.133s-34.133-15.283-34.133-34.133v-8.533
		c18.85,0,34.133-15.283,34.133-34.133c-0.026,18.824,15.223,34.107,34.047,34.133C221.813,460.792,221.839,460.792,221.864,460.792
		z"/>
	<path style="fill:#FE4D4E;" d="M324.263,418.126c-18.824,0.026-34.107-15.223-34.133-34.047c0-0.026,0-0.06,0-0.085v-8.533
		c0-18.85,15.283-34.133,34.133-34.133c18.85,0,34.133,15.283,34.133,34.133v8.533C358.395,402.843,343.113,418.126,324.263,418.126
		z"/>
	<path style="fill:#FE4D4E;" d="M255.997,418.126c-18.824,0.026-34.107-15.223-34.133-34.047c0-0.026,0-0.06,0-0.085v-8.533
		c0-18.85,15.283-34.133,34.133-34.133s34.133,15.283,34.133,34.133v8.533C290.13,402.843,274.847,418.126,255.997,418.126z"/>
	<path style="fill:#FE4D4E;" d="M231.848,331.344c6.425,6.383,15.104,9.967,24.149,9.984c-18.824-0.026-34.107,15.223-34.133,34.047
		c0,0.026,0,0.06,0,0.085c0-18.85-15.283-34.133-34.133-34.133c18.85,0,34.133-15.283,34.133-34.133
		C221.882,316.249,225.474,324.927,231.848,331.344z"/>
</g>
<g>
	<path style="fill:#DB3B3C;" d="M119.466,349.861c-23.543,0.026-42.64-19.038-42.666-42.581c0-0.026,0-0.06,0-0.085v-8.533
		c0.026-23.552,19.114-42.64,42.666-42.666v17.066c-14.139,0-25.6,11.46-25.6,25.6v8.533c0,14.14,11.46,25.6,25.6,25.6
		s25.6-11.46,25.6-25.6h17.066C162.106,330.746,143.018,349.835,119.466,349.861z"/>
	<path style="fill:#DB3B3C;" d="M187.732,349.861c-23.543,0.026-42.64-19.038-42.666-42.581c0-0.026,0-0.06,0-0.085v-8.533h17.066
		v8.533c0,14.14,11.46,25.6,25.6,25.6s25.6-11.46,25.6-25.6h17.066C230.372,330.746,211.283,349.835,187.732,349.861z"/>
	<path style="fill:#DB3B3C;" d="M255.997,349.861c-23.543,0.026-42.64-19.038-42.666-42.581c0-0.026,0-0.06,0-0.085v-8.533h17.066
		v8.533c0,14.14,11.46,25.6,25.6,25.6s25.6-11.46,25.6-25.6h17.066C298.638,330.746,279.549,349.835,255.997,349.861z"/>
	<path style="fill:#DB3B3C;" d="M324.263,349.861c-23.543,0.026-42.64-19.038-42.666-42.581c0-0.026,0-0.06,0-0.085v-8.533h17.066
		v8.533c0,14.14,11.46,25.6,25.6,25.6c14.139,0,25.6-11.46,25.6-25.6h17.066C366.903,330.746,347.814,349.835,324.263,349.861z"/>
	<path style="fill:#DB3B3C;" d="M392.528,349.861c-23.543,0.026-42.64-19.038-42.666-42.581c0-0.026,0-0.06,0-0.085v-8.533h17.066
		v8.533c0,14.14,11.46,25.6,25.6,25.6c14.14,0,25.6-11.46,25.6-25.6v-8.533c0-14.14-11.46-25.6-25.6-25.6v-17.066
		c23.552,0.026,42.64,19.114,42.666,42.666v8.533C435.169,330.746,416.08,349.835,392.528,349.861z"/>
	<path style="fill:#DB3B3C;" d="M119.466,426.66c-23.543,0.026-42.64-19.038-42.666-42.581c0-0.026,0-0.06,0-0.085v-8.533h17.066
		v8.533c0,14.139,11.46,25.6,25.6,25.6s25.6-11.46,25.6-25.6h17.066C162.106,407.545,143.018,426.634,119.466,426.66z"/>
	<path style="fill:#DB3B3C;" d="M187.732,426.66c-23.543,0.026-42.64-19.038-42.666-42.581c0-0.026,0-0.06,0-0.085h17.066
		c0,14.139,11.46,25.6,25.6,25.6s25.6-11.46,25.6-25.6h17.066C230.372,407.545,211.283,426.634,187.732,426.66z"/>
	<path style="fill:#DB3B3C;" d="M255.997,426.66c-23.543,0.026-42.64-19.038-42.666-42.581c0-0.026,0-0.06,0-0.085h17.066
		c0,14.139,11.46,25.6,25.6,25.6s25.6-11.46,25.6-25.6h17.066C298.638,407.545,279.549,426.634,255.997,426.66z"/>
	<path style="fill:#DB3B3C;" d="M324.263,426.66c-23.543,0.026-42.64-19.038-42.666-42.581c0-0.026,0-0.06,0-0.085h17.066
		c0,14.139,11.46,25.6,25.6,25.6c14.139,0,25.6-11.46,25.6-25.6h17.066C366.903,407.545,347.814,426.634,324.263,426.66z"/>
	<path style="fill:#DB3B3C;" d="M392.528,426.66c-23.543,0.026-42.64-19.038-42.666-42.581c0-0.026,0-0.06,0-0.085h17.066
		c0,14.139,11.46,25.6,25.6,25.6c14.14,0,25.6-11.46,25.6-25.6v-8.533h17.066v8.533C435.169,407.545,416.08,426.634,392.528,426.66z
		"/>
	<path style="fill:#DB3B3C;" d="M162.132,375.46h-17.066c0-14.139-11.46-25.6-25.6-25.6s-25.6,11.46-25.6,25.6H76.8
		c0-23.56,19.106-42.666,42.666-42.666S162.132,351.9,162.132,375.46z"/>
	<path style="fill:#DB3B3C;" d="M230.398,375.46h-17.066c0-14.139-11.46-25.6-25.6-25.6s-25.6,11.46-25.6,25.6h-17.066
		c0-23.56,19.106-42.666,42.666-42.666S230.398,351.9,230.398,375.46z"/>
	<path style="fill:#DB3B3C;" d="M298.663,375.46h-17.066c0-14.139-11.46-25.6-25.6-25.6s-25.6,11.46-25.6,25.6h-17.066
		c0-23.56,19.106-42.666,42.666-42.666S298.663,351.9,298.663,375.46z"/>
	<path style="fill:#DB3B3C;" d="M366.929,375.46h-17.066c0-14.139-11.46-25.6-25.6-25.6c-14.14,0-25.6,11.46-25.6,25.6h-17.066
		c0-23.56,19.106-42.666,42.666-42.666S366.929,351.9,366.929,375.46z"/>
	<path style="fill:#DB3B3C;" d="M435.194,375.46h-17.066c0-14.139-11.46-25.6-25.6-25.6c-14.139,0-25.6,11.46-25.6,25.6h-17.066
		c0-23.56,19.106-42.666,42.666-42.666S435.194,351.9,435.194,375.46z"/>
	<path style="fill:#DB3B3C;" d="M153.599,469.326c-23.543,0.026-42.64-19.038-42.666-42.581c0-0.026,0-0.06,0-0.085v-17.066h17.066
		v17.066c0,14.139,11.46,25.6,25.6,25.6c14.139,0,25.6-11.46,25.6-25.6h17.066C196.239,450.211,177.151,469.3,153.599,469.326z"/>
	<path style="fill:#DB3B3C;" d="M221.864,469.326c-23.543,0.026-42.64-19.038-42.666-42.581c0-0.026,0-0.06,0-0.085v-17.066h17.066
		v17.066c0,14.139,11.46,25.6,25.6,25.6s25.6-11.46,25.6-25.6h17.066C264.505,450.211,245.416,469.3,221.864,469.326z"/>
	<path style="fill:#DB3B3C;" d="M290.13,469.326c-23.543,0.026-42.64-19.038-42.666-42.581c0-0.026,0-0.06,0-0.085v-17.066h17.066
		v17.066c0,14.139,11.46,25.6,25.6,25.6c14.14,0,25.6-11.46,25.6-25.6h17.066C332.77,450.211,313.682,469.3,290.13,469.326z"/>
	<path style="fill:#DB3B3C;" d="M358.395,469.326c-23.543,0.026-42.64-19.038-42.666-42.581c0-0.026,0-0.06,0-0.085v-17.066h17.066
		v17.066c0,14.139,11.46,25.6,25.6,25.6s25.6-11.46,25.6-25.6v-17.066h17.066v17.066C401.036,450.211,381.947,469.3,358.395,469.326
		z"/>
	<path style="fill:#DB3B3C;" d="M153.599,307.195c-23.552-0.026-42.64-19.114-42.666-42.666v-8.533
		c0-23.56,19.106-42.666,42.666-42.666s42.666,19.106,42.666,42.666h-17.066c0-14.139-11.46-25.6-25.6-25.6
		c-14.139,0-25.6,11.46-25.6,25.6v8.533c0,14.14,11.46,25.6,25.6,25.6c14.139,0,25.6-11.46,25.6-25.6h17.066
		C196.239,288.081,177.151,307.169,153.599,307.195z"/>
	<path style="fill:#DB3B3C;" d="M221.864,307.195c-23.552-0.026-42.64-19.114-42.666-42.666v-8.533
		c0-23.56,19.106-42.666,42.666-42.666s42.666,19.106,42.666,42.666h-17.066c0-14.139-11.46-25.6-25.6-25.6s-25.6,11.46-25.6,25.6
		v8.533c0,14.14,11.46,25.6,25.6,25.6s25.6-11.46,25.6-25.6h17.066C264.505,288.081,245.416,307.169,221.864,307.195z"/>
	<path style="fill:#DB3B3C;" d="M290.13,307.195c-23.552-0.026-42.64-19.114-42.666-42.666v-8.533
		c0-23.56,19.106-42.666,42.666-42.666c23.56,0,42.666,19.106,42.666,42.666H315.73c0-14.139-11.46-25.6-25.6-25.6
		c-14.139,0-25.6,11.46-25.6,25.6v8.533c0,14.14,11.46,25.6,25.6,25.6c14.14,0,25.6-11.46,25.6-25.6h17.066
		C332.77,288.081,313.682,307.169,290.13,307.195z"/>
	<path style="fill:#DB3B3C;" d="M358.395,307.195c-23.552-0.026-42.64-19.114-42.666-42.666v-8.533
		c0-23.56,19.106-42.666,42.666-42.666s42.666,19.106,42.666,42.666v8.533C401.036,288.081,381.947,307.169,358.395,307.195z
		 M358.395,230.396c-14.139,0-25.6,11.46-25.6,25.6v8.533c0,14.14,11.46,25.6,25.6,25.6s25.6-11.46,25.6-25.6v-8.533
		c0.026-14.114-11.383-25.574-25.497-25.6C358.464,230.396,358.43,230.396,358.395,230.396z"/>
	<path style="fill:#DB3B3C;" d="M162.132,221.863h-17.066v-8.533c0-23.56,19.106-42.666,42.666-42.666s42.666,19.106,42.666,42.666
		h-17.066c0-14.139-11.46-25.6-25.6-25.6s-25.6,11.46-25.6,25.6V221.863z"/>
	<path style="fill:#DB3B3C;" d="M298.663,213.33h-17.066c0.026-14.114-11.383-25.574-25.497-25.6c-0.034,0-0.068,0-0.102,0v-17.066
		c23.543-0.026,42.64,19.038,42.666,42.581C298.663,213.27,298.663,213.304,298.663,213.33z"/>
	<path style="fill:#DB3B3C;" d="M230.398,221.863h-17.066v-8.533c0.077-23.287,18.747-42.248,42.035-42.666l0.239,17.066
		c-13.969,0.256-25.164,11.631-25.207,25.6V221.863z"/>
	<path style="fill:#DB3B3C;" d="M366.929,221.863h-17.066v-8.533c0-14.139-11.46-25.6-25.6-25.6c-14.14,0-25.6,11.46-25.6,25.6
		v8.533h-17.066v-8.533c0-23.56,19.106-42.666,42.666-42.666s42.666,19.106,42.666,42.666V221.863z"/>
	<path style="fill:#DB3B3C;" d="M187.732,511.991c-23.543,0.026-42.64-19.038-42.666-42.581c0-0.026,0-0.06,0-0.085v-17.066h17.066
		v17.066c0,14.139,11.46,25.6,25.6,25.6s25.6-11.46,25.6-25.6v-17.066h17.066v17.066
		C230.372,492.877,211.283,511.966,187.732,511.991z"/>
	<path style="fill:#DB3B3C;" d="M290.13,469.326c0,18.85-15.283,34.133-34.133,34.133s-34.133-15.283-34.133-34.133"/>
	<path style="fill:#DB3B3C;" d="M324.263,511.991c-23.543,0.026-42.64-19.038-42.666-42.581c0-0.026,0-0.06,0-0.085v-17.066h17.066
		v17.066c0,14.139,11.46,25.6,25.6,25.6c14.139,0,25.6-11.46,25.6-25.6v-17.066h17.066v17.066
		C366.903,492.877,347.814,511.966,324.263,511.991z"/>
</g>
<path d="M435.194,8.533c0-4.71-3.823-8.533-8.533-8.533c-77.925,0.111-146.882,50.491-170.664,124.704
	C232.215,50.491,163.267,0.111,85.333,0C80.623,0,76.8,3.823,76.8,8.533c0.111,70.04,40.993,133.613,104.685,162.762
	c-20.872,3.063-36.36,20.94-36.42,42.035v0.853c-19.848,4.079-34.107,21.546-34.133,41.813v0.853
	c-19.848,4.079-34.107,21.546-34.133,41.813v8.533c0.034,13.482,6.468,26.146,17.331,34.133
	c-10.863,7.987-17.288,20.65-17.331,34.133v8.533c0.026,20.266,14.285,37.734,34.133,41.813v0.853
	c0.026,20.266,14.285,37.734,34.133,41.813v0.853c-0.068,23.492,18.918,42.589,42.419,42.657c13.568,0.043,26.342-6.4,34.38-17.322
	c13.773,18.85,40.225,22.963,59.075,9.19c3.524-2.568,6.622-5.675,9.19-9.19c13.926,18.918,40.55,22.971,59.476,9.045
	c10.931-8.038,17.365-20.813,17.322-34.38v-0.853c19.848-4.079,34.107-21.546,34.133-41.813v-0.853
	c19.848-4.079,34.107-21.546,34.133-41.813v-8.533c-0.034-13.482-6.468-26.146-17.331-34.133
	c10.863-7.987,17.297-20.65,17.331-34.133v-8.533c-0.026-20.266-14.285-37.734-34.133-41.813v-0.853
	c-0.026-20.266-14.285-37.734-34.133-41.813v-0.853c-0.06-21.094-15.547-38.971-36.42-42.035
	C394.201,142.146,435.092,78.574,435.194,8.533z M281.597,213.33v0.853c-10.265,2.15-19.387,8.013-25.6,16.469
	c-6.212-8.456-15.326-14.319-25.6-16.469v-0.853c0-14.139,11.46-25.6,25.6-25.6S281.597,199.19,281.597,213.33z M290.13,230.396
	c14.14,0,25.6,11.46,25.6,25.6v8.533c0,14.14-11.46,25.6-25.6,25.6c-14.139,0-25.6-11.46-25.6-25.6v-8.533
	C264.53,241.856,275.99,230.396,290.13,230.396z M287.485,184.786c2.074-0.375,4.173-0.683,6.221-1.126
	c-1.289,1.365-2.483,2.816-3.575,4.335C289.302,186.885,288.423,185.81,287.485,184.786z M349.862,307.195
	c0,14.14-11.46,25.6-25.6,25.6c-14.14,0-25.6-11.46-25.6-25.6v-0.853c10.265-2.15,19.387-8.013,25.6-16.469
	c6.212,8.456,15.334,14.319,25.6,16.469V307.195z M358.395,332.53c2.483,3.345,5.453,6.315,8.798,8.798
	c-3.345,2.483-6.315,5.453-8.798,8.798c-2.483-3.345-5.453-6.315-8.798-8.798C352.951,338.844,355.912,335.875,358.395,332.53z
	 M162.132,307.195v-0.853c10.274-2.15,19.387-8.013,25.6-16.469c6.212,8.456,15.326,14.319,25.6,16.469v0.853
	c0,14.14-11.46,25.6-25.6,25.6S162.132,321.334,162.132,307.195z M162.397,341.328c-3.345,2.483-6.315,5.453-8.798,8.798
	c-2.483-3.345-5.453-6.315-8.798-8.798c3.345-2.483,6.315-5.453,8.798-8.798C156.091,335.875,159.052,338.844,162.397,341.328z
	 M221.864,230.396c14.139,0,25.6,11.46,25.6,25.6v8.533c0,14.14-11.46,25.6-25.6,25.6s-25.6-11.46-25.6-25.6v-8.533
	C196.265,241.856,207.725,230.396,221.864,230.396z M218.289,183.66c2.048,0.444,4.147,0.751,6.221,1.126
	c-0.939,1.024-1.818,2.099-2.645,3.208C220.772,186.476,219.578,185.025,218.289,183.66z M221.864,332.53
	c2.483,3.345,5.453,6.315,8.798,8.798c-3.345,2.483-6.315,5.453-8.798,8.798c-2.483-3.345-5.453-6.315-8.798-8.798
	C216.42,338.844,219.381,335.875,221.864,332.53z M230.398,307.195v-0.853c10.274-2.15,19.387-8.013,25.6-16.469
	c6.212,8.456,15.334,14.319,25.6,16.469v0.853c0,14.14-11.46,25.6-25.6,25.6S230.398,321.334,230.398,307.195z M290.13,332.53
	c2.483,3.345,5.453,6.315,8.798,8.798c-3.345,2.483-6.315,5.453-8.798,8.798c-2.483-3.345-5.453-6.315-8.798-8.798
	C284.686,338.844,287.647,335.875,290.13,332.53z M94.097,17.297c82.601,4.582,148.554,70.535,153.137,153.137
	C164.632,165.851,98.679,99.898,94.097,17.297z M162.132,213.33c0-14.139,11.46-25.6,25.6-25.6s25.6,11.46,25.6,25.6v0.853
	c-10.274,2.15-19.387,8.013-25.6,16.469c-6.212-8.456-15.326-14.319-25.6-16.469V213.33z M127.999,255.996
	c0-14.139,11.46-25.6,25.6-25.6c14.139,0,25.6,11.46,25.6,25.6v8.533c0,14.14-11.46,25.6-25.6,25.6c-14.139,0-25.6-11.46-25.6-25.6
	V255.996z M93.867,307.195v-8.533c0.034-11.281,7.467-21.205,18.287-24.405c3.797,16.187,16.64,28.697,32.913,32.085v0.853
	c0,14.14-11.46,25.6-25.6,25.6S93.867,321.334,93.867,307.195z M153.599,452.259c-14.139,0-25.6-11.46-25.6-25.6v-0.853
	c10.274-2.15,19.387-8.013,25.6-16.469c6.212,8.456,15.326,14.319,25.6,16.469v0.853
	C179.198,440.799,167.738,452.259,153.599,452.259z M213.331,469.326c0,14.139-11.46,25.6-25.6,25.6s-25.6-11.46-25.6-25.6v-0.853
	c10.274-2.15,19.387-8.013,25.6-16.469c6.212,8.456,15.326,14.319,25.6,16.469V469.326z M221.864,452.259
	c-14.139,0-25.6-11.46-25.6-25.6v-0.853c10.274-2.15,19.387-8.013,25.6-16.469c6.212,8.456,15.326,14.319,25.6,16.469v0.853
	C247.464,440.799,236.004,452.259,221.864,452.259z M281.597,469.326c0,14.139-11.46,25.6-25.6,25.6s-25.6-11.46-25.6-25.6v-0.853
	c10.274-2.15,19.387-8.013,25.6-16.469c6.212,8.456,15.334,14.319,25.6,16.469V469.326z M290.13,452.259
	c-14.139,0-25.6-11.46-25.6-25.6v-0.853c10.265-2.15,19.387-8.013,25.6-16.469c6.212,8.456,15.334,14.319,25.6,16.469v0.853
	C315.73,440.799,304.269,452.259,290.13,452.259z M349.862,469.326c0,14.139-11.46,25.6-25.6,25.6c-14.14,0-25.6-11.46-25.6-25.6
	v-0.853c10.265-2.15,19.387-8.013,25.6-16.469c6.212,8.456,15.334,14.319,25.6,16.469V469.326z M383.995,426.66
	c0,14.139-11.46,25.6-25.6,25.6s-25.6-11.46-25.6-25.6v-0.853c10.265-2.15,19.387-8.013,25.6-16.469
	c6.212,8.456,15.334,14.319,25.6,16.469V426.66z M418.128,375.46v8.533c0,14.139-11.46,25.6-25.6,25.6
	c-14.139,0-25.6-11.46-25.6-25.6h-17.066c0,14.139-11.46,25.6-25.6,25.6c-14.14,0-25.6-11.46-25.6-25.6h-17.066
	c0,14.139-11.46,25.6-25.6,25.6s-25.6-11.46-25.6-25.6h-17.066c0,14.139-11.46,25.6-25.6,25.6s-25.6-11.46-25.6-25.6h-17.066
	c0,14.139-11.46,25.6-25.6,25.6s-25.6-11.46-25.6-25.6v-8.533c0-14.139,11.46-25.6,25.6-25.6s25.6,11.46,25.6,25.6h17.066
	c0-14.139,11.46-25.6,25.6-25.6s25.6,11.46,25.6,25.6h17.066c0-14.139,11.46-25.6,25.6-25.6s25.6,11.46,25.6,25.6h17.066
	c0-14.139,11.46-25.6,25.6-25.6c14.139,0,25.6,11.46,25.6,25.6h17.066c0-14.139,11.46-25.6,25.6-25.6
	C406.668,349.861,418.128,361.321,418.128,375.46z M399.841,274.257c10.82,3.2,18.252,13.124,18.287,24.405v8.533
	c0,14.14-11.46,25.6-25.6,25.6c-14.139,0-25.6-11.46-25.6-25.6v-0.853C383.21,302.954,396.044,290.444,399.841,274.257z
	 M358.395,230.396c14.139,0,25.6,11.46,25.6,25.6v8.533c0,14.14-11.46,25.6-25.6,25.6s-25.6-11.46-25.6-25.6v-8.533
	C332.796,241.856,344.256,230.396,358.395,230.396z M349.862,213.33v0.853c-10.265,2.15-19.387,8.013-25.6,16.469
	c-6.212-8.456-15.334-14.319-25.6-16.469v-0.853c0-14.139,11.46-25.6,25.6-25.6C338.402,187.73,349.862,199.19,349.862,213.33z
	 M264.761,170.433c4.582-82.601,70.535-148.554,153.137-153.137C413.315,99.898,347.371,165.851,264.761,170.433z"/>
<g>
</g>
<g>
</g>
<g>
</g>
<g>
</g>
<g>
</g>
<g>
</g>
<g>
</g>
<g>
</g>
<g>
</g>
<g>
</g>
<g>
</g>
<g>
</g>
<g>
</g>
<g>
</g>
<g>
</g>
</svg>
