<?xml version="1.0" encoding="iso-8859-1"?>
<!-- Generator: Adobe Illustrator 19.0.0, SVG Export Plug-In . SVG Version: 6.00 Build 0)  -->
<svg version="1.1" id="Capa_1" xmlns="http://www.w3.org/2000/svg" xmlns:xlink="http://www.w3.org/1999/xlink" x="0px" y="0px"
	 viewBox="0 0 512.002 512.002" style="enable-background:new 0 0 512.002 512.002;" xml:space="preserve">
<path style="fill:#F5DC64;" d="M142.762,466.662c22.888,23.454,54.281,36.669,87.059,36.634h52.235
	c67.314,0,121.882-54.568,121.882-121.882V285.65c0-1.933-0.174-3.813-0.261-5.728C343.249,372.726,250.105,439.396,142.762,466.662
	z"/>
<path style="fill:#FFE96F;" d="M403.676,279.922c-2.742-58.381-46.542-106.594-104.383-114.917
	c-5.711-0.81-11.474-1.219-17.238-1.236H229.82c-5.763,0.009-11.527,0.418-17.238,1.219
	c-60.044,8.575-104.644,60.009-104.644,120.663v95.764c-0.035,31.89,12.475,62.508,34.823,85.248
	C250.105,439.396,343.249,372.726,403.676,279.922z"/>
<path style="fill:#307E45;" d="M256.199,67.133c9.768,10.795,17.551,23.236,22.983,36.739c1.045,2.525,2.002,5.049,2.873,7.661
	l0.435,0.348c-11.3,13.982-19.815,30-25.073,47.186l-1.48,4.701l-1.48-4.701c-0.609-1.915-1.219-3.744-1.828-5.572l2.438-0.871
	l-12.536-34.301c-13.895-38.349-39.707-71.231-73.652-93.849l4.875,0.522C205.575,28.114,235.035,43.175,256.199,67.133z"/>
<g>
	<path style="fill:#49B200;" d="M279.183,103.872c-5.432-13.503-13.215-25.943-22.983-36.739
		c13.633-43.799,60.192-68.254,104-54.621c2.098,0.653,4.179,1.393,6.216,2.211l2.699,1.045
		c-41.762,5.224-75.741,36.138-84.882,77.221l-2.176,9.838L279.183,103.872z"/>
	<path style="fill:#49B200;" d="M229.82,163.768c-5.763,0.009-11.527,0.418-17.238,1.219l-0.174-1.219
		c-22.635-45.183-59.287-81.835-104.47-104.47c3.656-0.261,7.313-0.435,10.882-0.435c60.131,0.052,113.725,37.949,133.809,94.633
		c0.609,1.828,1.219,3.656,1.828,5.572l1.48,4.701H229.82z"/>
	<path style="fill:#49B200;" d="M299.467,163.768l-0.174,1.219c-5.711-0.801-11.474-1.21-17.238-1.219h-26.118l1.48-4.701
		c5.258-17.185,13.773-33.204,25.073-47.186c26.927-33.509,67.584-53.001,110.564-53.019c3.569,0,7.226,0.174,10.882,0.435
		C358.754,81.942,322.111,118.585,299.467,163.768z"/>
</g>
<g>
	<path style="fill:#FFA439;" d="M249.783,309.217l-19.963-19.963l-19.963,19.963l-12.31-12.31l26.118-26.118
		c3.395-3.395,8.915-3.395,12.31,0l26.118,26.118L249.783,309.217z"/>
	<path style="fill:#FFA439;" d="M206.254,239.57l-19.963-19.963l-19.963,19.963l-12.31-12.31l26.118-26.118
		c3.395-3.395,8.915-3.395,12.31,0l26.118,26.118L206.254,239.57z"/>
	<path style="fill:#FFA439;" d="M316.879,364.003c-2.307,0-4.527-0.914-6.155-2.551l-19.963-19.962l-19.963,19.962l-12.31-12.31
		l26.118-26.118c3.395-3.395,8.915-3.395,12.31,0l19.962,19.963l19.963-19.963l12.31,12.31l-26.118,26.118
		C321.406,363.089,319.195,364.003,316.879,364.003z"/>
	<path style="fill:#FFA439;" d="M212.409,433.65c-2.307,0-4.527-0.914-6.155-2.551l-19.963-19.963l-19.963,19.963l-12.31-12.31
		l26.118-26.118c3.395-3.395,8.915-3.395,12.31,0l19.963,19.962l19.963-19.962c3.395-3.395,8.915-3.395,12.31,0l26.118,26.118
		l-12.31,12.31l-19.963-19.963l-19.963,19.963C216.936,432.736,214.724,433.65,212.409,433.65z"/>
	<path style="fill:#FFA439;" d="M197.548,361.452l-19.963-19.962l-19.963,19.962l-12.31-12.31l26.118-26.118
		c3.395-3.395,8.915-3.395,12.31,0l26.118,26.118L197.548,361.452z"/>
	<path style="fill:#FFA439;" d="M345.547,422.393l-19.963-19.963l-19.963,19.963l-12.31-12.31l26.118-26.118
		c3.395-3.395,8.915-3.395,12.31,0l26.118,26.118L345.547,422.393z"/>
	<path style="fill:#FFA439;" d="M362.959,300.511l-19.962-19.962l-19.963,19.962l-12.31-12.31l26.118-26.118
		c3.395-3.395,8.915-3.395,12.31,0l26.118,26.118L362.959,300.511z"/>
	<path style="fill:#FFA439;" d="M293.312,474.628l-19.963-19.963l-19.963,19.963l-12.31-12.31l26.118-26.118
		c3.395-3.395,8.915-3.395,12.31,0l26.118,26.118L293.312,474.628z"/>
	<path style="fill:#FFA439;" d="M290.761,242.121c-2.307,0-4.527-0.914-6.155-2.551l-26.118-26.118l12.31-12.31l19.963,19.963
		l19.963-19.963c3.395-3.395,8.915-3.395,12.31,0l26.118,26.118l-12.31,12.31l-19.963-19.963l-19.963,19.963
		C295.288,241.207,293.077,242.121,290.761,242.121z"/>
</g>
<path d="M107.268,50.592c-4.797,0.366-8.384,4.553-8.018,9.341c0.235,3.056,2.055,5.763,4.797,7.13
	c40.308,20.328,73.608,52.244,95.634,91.647c-58.808,13.999-100.344,66.495-100.448,126.94v95.764
	c0.078,72.084,58.503,130.509,130.588,130.588h52.235c72.084-0.078,130.509-58.503,130.588-130.588V285.65
	c-0.104-60.445-41.64-112.941-100.448-126.94c22.034-39.377,55.334-71.266,95.634-91.577c4.336-2.081,6.172-7.278,4.092-11.614
	c-1.367-2.847-4.161-4.736-7.313-4.928c-39.716-3.212-79.075,9.542-109.363,35.433c11.056-33.248,40.195-57.206,74.949-61.62
	c4.771-0.601,8.149-4.954,7.548-9.724c-0.392-3.134-2.455-5.807-5.389-6.991l-2.681-1.08c-44.609-17.908-95.46,1.724-116.476,44.948
	c-21.686-19.945-49.258-32.316-78.579-35.259l-4.875-0.488c-3.97-0.357-7.679,1.994-9.054,5.728
	c-1.349,3.761,0.035,7.957,3.36,10.177c21.538,14.347,39.76,33.134,53.437,55.099C187.092,60.447,147.385,47.397,107.268,50.592z
	 M395.232,285.65v95.764c-0.07,62.473-50.703,113.106-113.176,113.176H229.82c-62.473-0.07-113.106-50.703-113.176-113.176V285.65
	c0.07-62.473,50.703-113.106,113.176-113.176h52.235C344.537,172.544,395.162,223.177,395.232,285.65z M369.793,69.545
	c-31.759,22.278-57.755,51.8-75.837,86.118c-3.926-0.357-7.887-0.601-11.901-0.601h-14.069
	C284.084,110.332,322.956,77.685,369.793,69.545z M303.246,24.849c9.507-4.623,19.902-7.165,30.47-7.444
	c-26.614,13.155-46.672,36.626-55.526,64.963c-3.569-6.007-7.6-11.735-12.058-17.124C272.923,47.554,286.191,33.111,303.246,24.849z
	 M202.527,40.52c32.299,12.101,57.746,37.627,69.76,69.96c-5.58,7.574-10.447,15.662-14.521,24.141l-7.052-19.292
	C240.52,87.07,224.048,61.492,202.527,40.52z M243.898,155.062H229.82c-4.013,0-7.975,0.244-11.901,0.601
	c-18.073-34.327-44.078-63.849-75.837-86.118C188.929,77.685,227.801,110.332,243.898,155.062z"/>
<path d="M209.858,309.217l19.963-19.963l19.963,19.963l12.31-12.31l-26.118-26.118c-3.395-3.395-8.915-3.395-12.31,0l-26.118,26.118
	L209.858,309.217z"/>
<path d="M186.291,219.608l19.963,19.963l12.31-12.31l-26.118-26.118c-3.395-3.395-8.915-3.395-12.31,0l-26.118,26.118l12.31,12.31
	L186.291,219.608z"/>
<path d="M290.761,341.49l19.963,19.962c3.395,3.395,8.915,3.395,12.31,0l26.118-26.118l-12.31-12.31l-19.963,19.963l-19.963-19.963
	c-3.395-3.395-8.915-3.395-12.31,0l-26.118,26.118l12.31,12.31L290.761,341.49z"/>
<path d="M270.799,418.789l-26.118-26.118c-3.395-3.395-8.915-3.395-12.31,0l-19.963,19.962l-19.963-19.962
	c-3.395-3.395-8.915-3.395-12.31,0l-26.118,26.118l12.31,12.31l19.963-19.963l19.963,19.963c3.395,3.395,8.915,3.395,12.31,0
	l19.963-19.963l19.963,19.963L270.799,418.789z"/>
<path d="M177.585,341.49l19.963,19.962l12.31-12.31l-26.118-26.118c-3.395-3.395-8.915-3.395-12.31,0l-26.118,26.118l12.31,12.31
	L177.585,341.49z"/>
<path d="M319.43,383.965l-26.118,26.118l12.31,12.31l19.963-19.963l19.963,19.963l12.31-12.31l-26.118-26.118
	C328.344,380.57,322.834,380.57,319.43,383.965z"/>
<path d="M336.841,262.083l-26.118,26.118l12.31,12.31l19.963-19.962l19.962,19.962l12.31-12.31l-26.118-26.118
	C345.756,258.688,340.245,258.688,336.841,262.083z"/>
<path d="M267.195,436.201l-26.118,26.118l12.31,12.31l19.963-19.963l19.963,19.963l12.31-12.31l-26.118-26.118
	C276.109,432.805,270.599,432.805,267.195,436.201z"/>
<path d="M258.489,213.453l26.118,26.118c3.395,3.395,8.915,3.395,12.31,0l19.962-19.963l19.963,19.963l12.31-12.31l-26.118-26.118
	c-3.395-3.395-8.915-3.395-12.31,0l-19.963,19.963l-19.963-19.963L258.489,213.453z"/>
<g>
</g>
<g>
</g>
<g>
</g>
<g>
</g>
<g>
</g>
<g>
</g>
<g>
</g>
<g>
</g>
<g>
</g>
<g>
</g>
<g>
</g>
<g>
</g>
<g>
</g>
<g>
</g>
<g>
</g>
</svg>
