<?xml version="1.0" encoding="iso-8859-1"?>
<!-- Generator: Adobe Illustrator 19.0.0, SVG Export Plug-In . SVG Version: 6.00 Build 0)  -->
<svg version="1.1" id="Capa_1" xmlns="http://www.w3.org/2000/svg" xmlns:xlink="http://www.w3.org/1999/xlink" x="0px" y="0px"
	 viewBox="0 0 511.996 511.996" style="enable-background:new 0 0 511.996 511.996;" xml:space="preserve">
<path style="fill:#307E45;" d="M106.23,21.766l149.768,149.768C173.301,171.501,106.263,104.472,106.23,21.766z"/>
<path style="fill:#399D4D;" d="M212.149,65.615c28.04,27.982,43.816,65.965,43.849,105.587v0.333L106.23,21.766
	C145.96,21.741,184.068,37.517,212.149,65.615z"/>
<path style="fill:#307E45;" d="M264.319,171.21h-16.641c0.183-61.031,20.543-120.281,57.91-168.531L307.685,0l13.113,10.251
	l-2.08,2.663C283.622,58.235,264.493,113.891,264.319,171.21z"/>
<path style="fill:#941F3D;" d="M137.673,489.094c37.392,22.69,85.127,18.779,118.325-9.702
	c34.447,29.513,84.303,32.533,122.061,7.405c39.306-26.176,67.571-65.94,79.377-111.661l10.234-39.522
	c5.916-22.94,7.53-46.778,4.768-70.308C391.514,377.857,272.614,457.343,137.673,489.094z"/>
<path style="fill:#AD2447;" d="M472.438,265.306c-5.408-47.094-28.065-90.518-63.593-121.895l-4.826-4.243
	c-27.707-24.454-69.11-25.053-97.516-1.414l-32.117,26.792c-5.159,4.302-11.665,6.656-18.388,6.656v0.333
	c-43.35,0.033-84.578-18.763-112.992-51.504l-2.663,2.33c-12.006,2.862-23.123,8.637-32.367,16.807l-4.826,4.243
	c-54.249,47.876-76.989,122.169-58.826,192.203l10.234,39.522c11.848,45.704,40.105,85.451,79.377,111.661
	c1.223,0.832,2.496,1.539,3.736,2.296C272.614,457.343,391.514,377.857,472.438,265.306z"/>
<path d="M46.505,377.258c12.331,47.676,41.819,89.129,82.805,116.428c38.748,25.685,89.47,24.229,126.687-3.628
	c37.217,27.857,87.931,29.305,126.687,3.628c40.987-27.299,70.474-68.752,82.805-116.428l10.259-39.547
	c19.17-73.07-4.601-150.7-61.388-200.523l-4.859-4.293c-30.719-27.341-76.848-27.99-108.316-1.523l-32.109,26.75
	c-1.323,1.065-2.771,1.964-4.31,2.671c2.255-53.709,21.109-105.387,53.983-147.921l2.055-2.638l-13.13-10.218l-2.055,2.638
	c-25.577,32.999-43.35,71.365-51.986,112.21C230.171,53.85,171.595,13.554,106.23,13.446c-4.593,0-8.32,3.728-8.32,8.32
	c0.017,34.355,11.291,67.754,32.092,95.086c-10.118,3.528-19.453,8.978-27.507,16.042l-4.859,4.293
	c-56.787,49.823-80.559,127.453-61.388,200.523L46.505,377.258z M246.014,149.777L127.988,31.751
	C188.777,41.319,236.453,88.996,246.014,149.777z M116.214,43.524L234.24,161.55C173.459,151.982,125.783,104.305,116.214,43.524z
	 M108.643,149.669l4.859-4.293c8.071-7.097,17.739-12.148,28.181-14.702c29.737,31.393,71.073,49.174,114.315,49.182
	c1.073-0.008,2.138-0.225,3.128-0.632c7.563-0.599,14.752-3.503,20.61-8.32l32.1-26.75c25.178-21.167,62.079-20.651,86.649,1.223
	l4.859,4.293c52.078,45.679,73.877,116.869,56.296,183.882l-10.251,39.547c-11.316,43.716-38.349,81.732-75.941,106.76
	c-34.68,22.981-80.376,20.219-112.035-6.765c-3.112-2.663-7.705-2.663-10.817,0c-31.659,26.983-77.364,29.746-112.035,6.765
	c-37.6-25.028-64.642-63.052-75.958-106.777l-10.251-39.547c-17.573-67.005,4.227-138.186,56.296-183.866H108.643z"/>
<g>
</g>
<g>
</g>
<g>
</g>
<g>
</g>
<g>
</g>
<g>
</g>
<g>
</g>
<g>
</g>
<g>
</g>
<g>
</g>
<g>
</g>
<g>
</g>
<g>
</g>
<g>
</g>
<g>
</g>
</svg>
