<?xml version="1.0" encoding="iso-8859-1"?>
<!-- Generator: Adobe Illustrator 19.0.0, SVG Export Plug-In . SVG Version: 6.00 Build 0)  -->
<svg version="1.1" id="Capa_1" xmlns="http://www.w3.org/2000/svg" xmlns:xlink="http://www.w3.org/1999/xlink" x="0px" y="0px"
	 viewBox="0 0 511.997 511.997" style="enable-background:new 0 0 511.997 511.997;" xml:space="preserve">
<circle style="fill:#91E584;" cx="175.092" cy="256.024" r="132.148"/>
<g>
	<path style="fill:#B85F3E;" d="M337.08,89.748c91.821,0.009,166.25,74.446,166.242,166.259
		c-0.009,91.813-74.446,166.25-166.259,166.242c-28.348,0-56.218-7.247-80.977-21.058c80.184-44.726,108.932-145.985,64.207-226.177
		c-15.031-26.95-37.266-49.176-64.207-64.207C280.836,96.969,308.723,89.714,337.08,89.748z"/>
	<path style="fill:#B85F3E;" d="M256.086,110.806c80.184,44.726,108.932,145.985,64.207,226.177S174.308,445.916,94.115,401.19
		S-14.817,255.197,29.909,175.013c29.362-52.637,84.907-85.265,145.183-85.265C203.449,89.739,231.327,96.986,256.086,110.806z
		 M307.24,255.998c0-72.98-59.168-132.148-132.148-132.148S42.944,183.019,42.944,255.998s59.168,132.148,132.148,132.148
		C248.046,388.086,307.18,328.952,307.24,255.998z"/>
</g>
<path style="fill:#944C31;" d="M175.092,430.774C78.565,430.8,0.299,352.568,0.274,256.041
	C0.248,159.513,78.479,81.248,175.007,81.222c96.528-0.026,174.793,78.206,174.819,174.733
	c0.017,63.363-34.265,121.772-89.588,152.652C234.209,423.127,204.898,430.757,175.092,430.774z M175.092,98.274
	C87.986,98.282,17.376,168.9,17.385,256.015c0.009,87.107,70.635,157.716,157.742,157.708
	c87.107-0.009,157.716-70.635,157.708-157.742c-0.009-57.182-30.957-109.879-80.9-137.732l0,0
	C228.454,105.111,201.991,98.239,175.092,98.274z"/>
<path style="fill:#A3FA96;" d="M175.092,396.672c-77.694,0-140.673-62.979-140.673-140.673s62.979-140.673,140.673-140.673
	s140.673,62.979,140.673,140.673C315.672,333.65,252.744,396.578,175.092,396.672z M175.092,132.376
	c-68.273,0-123.622,55.349-123.622,123.622S106.819,379.62,175.092,379.62s123.622-55.349,123.622-123.622
	C298.638,187.759,243.332,132.453,175.092,132.376z"/>
<g>
	<path style="fill:#944C31;" d="M337.08,430.774c-29.806-0.009-59.117-7.639-85.146-22.167l8.304-14.886
		c76.074,42.432,172.142,15.15,214.574-60.924s15.15-172.142-60.924-214.574c-47.752-26.634-105.897-26.634-153.649,0l-8.304-14.835
		c84.285-47.045,190.753-16.864,237.798,67.421s16.864,190.753-67.421,237.798C396.256,423.152,366.92,430.783,337.08,430.774z"/>
	<rect x="392.522" y="149.428" style="fill:#944C31;" width="17.051" height="17.051"/>
	<rect x="332.842" y="123.851" style="fill:#944C31;" width="17.051" height="17.051"/>
	<rect x="443.676" y="217.633" style="fill:#944C31;" width="17.051" height="17.051"/>
	<rect x="435.15" y="285.838" style="fill:#944C31;" width="17.051" height="17.051"/>
	<rect x="375.471" y="251.735" style="fill:#944C31;" width="17.051" height="17.051"/>
	<rect x="358.419" y="362.569" style="fill:#944C31;" width="17.051" height="17.051"/>
</g>
<g>
	<rect x="166.567" y="175.005" style="fill:#753C26;" width="17.051" height="25.577"/>
	<rect x="166.567" y="311.415" style="fill:#753C26;" width="17.051" height="25.577"/>
	
		<rect x="132.448" y="184.118" transform="matrix(-0.8662 0.4996 -0.4996 -0.8662 361.4695 297.0403)" style="fill:#753C26;" width="17.05" height="25.576"/>
	
		<rect x="200.645" y="302.281" transform="matrix(-0.8662 0.4996 -0.4996 -0.8662 547.7794 483.4887)" style="fill:#753C26;" width="17.05" height="25.576"/>
	
		<rect x="107.465" y="209.101" transform="matrix(-0.4996 0.8662 -0.8662 -0.4996 366.1516 232.2742)" style="fill:#753C26;" width="17.05" height="25.576"/>
	
		<rect x="225.623" y="277.309" transform="matrix(-0.4996 0.8662 -0.8662 -0.4996 602.4279 232.2069)" style="fill:#753C26;" width="17.05" height="25.576"/>
	<rect x="94.124" y="247.498" style="fill:#753C26;" width="25.577" height="17.051"/>
	<rect x="230.535" y="247.498" style="fill:#753C26;" width="25.577" height="17.051"/>
	
		<rect x="103.257" y="281.599" transform="matrix(-0.8661 0.4999 -0.4999 -0.8661 361.5817 483.3871)" style="fill:#753C26;" width="25.577" height="17.052"/>
	
		<rect x="221.392" y="213.407" transform="matrix(-0.8661 0.4999 -0.4999 -0.8661 547.9446 297.0802)" style="fill:#753C26;" width="25.577" height="17.052"/>
	
		<rect x="128.216" y="306.517" transform="matrix(-0.4999 0.8661 -0.8661 -0.4999 484.3469 350.4079)" style="fill:#753C26;" width="25.577" height="17.052"/>
	
		<rect x="196.436" y="188.369" transform="matrix(-0.4999 0.8661 -0.8661 -0.4999 484.3422 114.1148)" style="fill:#753C26;" width="25.577" height="17.052"/>
</g>
<path d="M175.092,115.325c-77.694,0-140.673,62.979-140.673,140.673s62.979,140.673,140.673,140.673s140.673-62.979,140.673-140.673
	C315.672,178.347,252.744,115.41,175.092,115.325z M175.092,379.62c-68.273,0-123.622-55.349-123.622-123.622
	s55.349-123.622,123.622-123.622s123.622,55.349,123.622,123.622l0,0C298.638,324.238,243.332,379.544,175.092,379.62z"/>
<path d="M337.08,81.222c-28.246,0.026-56.065,6.889-81.079,20.001C170.522,56.387,64.872,89.33,20.036,174.808
	S8.143,365.928,93.621,410.773c50.839,26.668,111.533,26.668,162.371,0c85.478,44.836,191.12,11.893,235.965-73.585
	s11.893-191.12-73.585-235.965C393.298,88.068,365.393,81.205,337.08,81.222z M175.092,413.723
	c-87.107,0-157.725-70.618-157.725-157.725S87.986,98.274,175.092,98.274s157.725,70.618,157.725,157.725
	C332.715,343.062,262.156,413.621,175.092,413.723z M337.08,413.723c-21.885-0.026-43.532-4.595-63.559-13.419
	c79.698-54.232,100.339-162.806,46.098-242.504c-12.337-18.126-27.973-33.762-46.098-46.098
	c79.689-35.168,172.807,0.921,207.983,80.61s-0.921,172.807-80.61,207.983C380.782,409.162,359.05,413.74,337.08,413.723z"/>
<rect x="392.522" y="149.428" width="17.051" height="17.051"/>
<rect x="332.842" y="123.851" width="17.051" height="17.051"/>
<rect x="443.676" y="217.633" width="17.051" height="17.051"/>
<rect x="435.15" y="285.838" width="17.051" height="17.051"/>
<rect x="375.471" y="251.735" width="17.051" height="17.051"/>
<rect x="358.419" y="362.569" width="17.051" height="17.051"/>
<rect x="166.567" y="175.005" width="17.051" height="25.577"/>
<rect x="166.567" y="311.415" width="17.051" height="25.577"/>
<rect x="132.47" y="184.15" transform="matrix(-0.8661 0.4999 -0.4999 -0.8661 361.5589 297.0216)" width="17.052" height="25.577"/>
<rect x="200.672" y="302.29" transform="matrix(-0.8661 0.4999 -0.4999 -0.8661 547.886 483.3876)" width="17.052" height="25.577"/>
<rect x="107.497" y="209.099" transform="matrix(-0.4999 0.8661 -0.8661 -0.4999 366.1961 232.3208)" width="17.052" height="25.577"/>
<rect x="225.636" y="277.305" transform="matrix(-0.4999 0.8661 -0.8661 -0.4999 602.4636 232.3054)" width="17.052" height="25.577"/>
<rect x="94.124" y="247.498" width="25.577" height="17.051"/>
<rect x="230.535" y="247.498" width="25.577" height="17.051"/>
<rect x="103.257" y="281.607" transform="matrix(-0.8661 0.4999 -0.4999 -0.8661 361.586 483.4031)" width="25.577" height="17.052"/>
<rect x="221.385" y="213.403" transform="matrix(-0.8661 0.4999 -0.4999 -0.8661 547.9287 297.076)" width="25.577" height="17.052"/>
<rect x="128.219" y="306.5" transform="matrix(-0.4999 0.8661 -0.8661 -0.4999 484.3356 350.3803)" width="25.577" height="17.052"/>
<rect x="196.419" y="188.378" transform="matrix(-0.4999 0.8661 -0.8661 -0.4999 484.324 114.1424)" width="25.577" height="17.052"/>
<g>
</g>
<g>
</g>
<g>
</g>
<g>
</g>
<g>
</g>
<g>
</g>
<g>
</g>
<g>
</g>
<g>
</g>
<g>
</g>
<g>
</g>
<g>
</g>
<g>
</g>
<g>
</g>
<g>
</g>
</svg>
