<?xml version="1.0" encoding="iso-8859-1"?>
<!-- Generator: Adobe Illustrator 19.0.0, SVG Export Plug-In . SVG Version: 6.00 Build 0)  -->
<svg version="1.1" id="Capa_1" xmlns="http://www.w3.org/2000/svg" xmlns:xlink="http://www.w3.org/1999/xlink" x="0px" y="0px"
	 viewBox="0 0 512 512" style="enable-background:new 0 0 512 512;" xml:space="preserve">
<path style="fill:#E69433;" d="M160.827,479.241c95.019,52.164,214.332,17.434,266.496-77.585
	c26.086-47.522,31.369-103.714,14.575-155.255C381.192,356.907,280.695,440.149,160.827,479.241z"/>
<path style="fill:#FFA439;" d="M441.898,246.4c-26.035-79.881-100.036-134.315-184.047-135.381c-0.853-0.085-1.707-0.085-2.56-0.085
	c-108.399,0-196.267,87.868-196.267,196.267c0,71.629,39.023,137.574,101.803,172.041
	C280.695,440.149,381.192,356.907,441.898,246.4z"/>
<path style="fill:#307E45;" d="M263.824,153.6h-17.067v-17.067c-0.026-9.156,0.896-18.287,2.739-27.255
	C262.596,45.764,318.446,0.154,383.291,0v17.067c-56.747,0.137-105.626,40.055-117.077,95.642
	c-1.613,7.842-2.406,15.821-2.389,23.825V153.6L263.824,153.6z"/>
<g>
	<path style="fill:#B85F3E;" d="M255.291,196.267c-18.27,0.034-35.797-7.219-48.7-20.147l12.066-12.066
		c20.25,20.198,53.018,20.198,73.267,0l12.066,12.066C291.088,189.047,273.561,196.301,255.291,196.267z"/>
	<rect x="306.491" y="426.667" style="fill:#B85F3E;" width="17.067" height="17.067"/>
	<rect x="332.091" y="392.533" style="fill:#B85F3E;" width="17.067" height="17.067"/>
	<rect x="374.758" y="366.933" style="fill:#B85F3E;" width="17.067" height="17.067"/>
	<rect x="221.158" y="401.067" style="fill:#B85F3E;" width="17.067" height="17.067"/>
	<rect x="263.824" y="418.133" style="fill:#B85F3E;" width="17.067" height="17.067"/>
	<rect x="229.691" y="452.267" style="fill:#B85F3E;" width="17.067" height="17.067"/>
</g>
<path d="M255.291,512c113.109-0.358,204.51-92.339,204.151-205.449c-0.341-107.383-83.575-196.275-190.711-203.665
	c14.967-50.816,61.585-85.734,114.56-85.82V0c-62.225,0.119-116.514,42.257-132.07,102.502
	C138.163,105.89,49.262,200.294,52.65,313.344C55.944,423.219,145.382,510.891,255.291,512z M247.91,119.654
	c-0.725,5.598-1.118,11.238-1.152,16.879V153.6h17.067v-17.067c0.043-5.623,0.486-11.238,1.323-16.802
	c103.774,5.222,183.663,93.577,178.441,197.35c-5.222,103.774-93.577,183.663-197.35,178.441
	C142.463,490.3,62.574,401.946,67.797,298.172C72.686,201.062,150.766,123.674,247.91,119.654z"/>
<path d="M303.991,176.094l-12.066-12.066c-20.25,20.198-53.018,20.198-73.267,0l-12.066,12.066
	C233.488,202.991,277.094,202.991,303.991,176.094z"/>
<rect x="306.491" y="426.667" width="17.067" height="17.067"/>
<rect x="332.091" y="392.533" width="17.067" height="17.067"/>
<rect x="374.758" y="366.933" width="17.067" height="17.067"/>
<rect x="221.158" y="401.067" width="17.067" height="17.067"/>
<rect x="263.824" y="418.133" width="17.067" height="17.067"/>
<rect x="229.691" y="452.267" width="17.067" height="17.067"/>
<g>
</g>
<g>
</g>
<g>
</g>
<g>
</g>
<g>
</g>
<g>
</g>
<g>
</g>
<g>
</g>
<g>
</g>
<g>
</g>
<g>
</g>
<g>
</g>
<g>
</g>
<g>
</g>
<g>
</g>
</svg>
