<?xml version="1.0" encoding="iso-8859-1"?>
<!-- Generator: Adobe Illustrator 19.0.0, SVG Export Plug-In . SVG Version: 6.00 Build 0)  -->
<svg version="1.1" id="Capa_1" xmlns="http://www.w3.org/2000/svg" xmlns:xlink="http://www.w3.org/1999/xlink" x="0px" y="0px"
	 viewBox="0 0 512 512" style="enable-background:new 0 0 512 512;" xml:space="preserve">
<path style="fill:#D482BB;" d="M293.198,443.434c-20.31,11.817-41.653,21.777-63.759,29.75c5.848,9.327,12.719,17.968,20.484,25.767
	l1.562,1.562c1.735,0.087,3.557,0.087,5.292,0.087l1.648-1.648C274.059,483.309,285.953,464.335,293.198,443.434z"/>
<g>
	<path style="fill:#C474AD;" d="M366.96,392.325c0-1.397-0.121-2.759-0.156-4.147c-22.288,21.239-46.989,39.788-73.606,55.257
		c-7.244,20.9-19.13,39.883-34.773,55.526l-1.648,1.648c28.362-0.174,55.587-11.123,76.174-30.626
		C354.406,449.82,366.691,421.762,366.96,392.325z"/>
	<path style="fill:#C474AD;" d="M229.438,473.184c-10.784,3.878-21.768,7.296-32.968,10.238
		c16.528,10.42,35.51,16.311,55.031,17.092l-1.562-1.562C242.166,491.152,235.286,482.511,229.438,473.184z"/>
</g>
<path style="fill:#9E4B85;" d="M181.383,486.979c21.351,9.7,44.395,15.148,67.828,16.05c-21.508-2.16-42.469-8.051-61.946-17.413
	C185.33,486.085,183.369,486.545,181.383,486.979z"/>
<g>
	<path style="fill:#AD5B94;" d="M356.809,463.12c28.63-26.982,44.863-64.592,44.854-103.937c0-2.776-0.243-5.553-0.399-8.32
		c-10.671,13.161-22.184,25.629-34.461,37.306c0,1.388,0.174,2.75,0.156,4.147c-0.269,29.437-12.554,57.487-34.01,77.649
		c-20.588,19.503-47.813,30.452-76.174,30.626l-2.516,2.516c0.573,0.078,1.154,0.104,1.735,0.095c2.256,0,4.511-0.087,6.767-0.174
		C297.891,501.485,331.285,487.308,356.809,463.12z"/>
	<path style="fill:#AD5B94;" d="M187.282,485.617c19.477,9.361,40.438,15.252,61.946,17.413l4.859,0.087l-2.603-2.603
		c-19.521-0.781-38.504-6.68-55.031-17.092C193.425,484.211,190.345,484.896,187.282,485.617z"/>
</g>
<path style="fill:#9E4B85;" d="M401.664,359.183c0.009,39.345-16.224,76.955-44.854,103.937
	c-25.525,24.188-58.918,38.365-94.047,39.909c44.03-1.562,85.97-19.182,117.906-49.539c35.189-33.021,55.326-79.02,55.699-127.276
	c0.026-8.017-0.495-16.033-1.536-23.98c-9.951,17.031-21.169,33.289-33.567,48.628C401.421,353.63,401.664,356.406,401.664,359.183z
	"/>
<g>
	<path style="fill:#6B2F59;" d="M153.949,492.019c7.635,4.433,15.66,8.181,23.963,11.183h76.261c-1.648,0-3.297-0.087-4.945-0.174
		c-23.442-0.902-46.486-6.351-67.846-16.05C172.36,488.965,163.215,490.675,153.949,492.019z"/>
	<path style="fill:#6B2F59;" d="M434.832,302.234c1.041,7.947,1.562,15.964,1.536,23.98c-0.373,48.255-20.51,94.255-55.699,127.276
		c-31.936,30.357-73.875,47.978-117.906,49.539c-2.256,0.087-4.511,0.174-6.767,0.174h70.275
		c29.194-10.055,55.882-26.271,78.257-47.544c57.556-54.389,80.096-136.272,58.502-212.456
		C455.298,263.635,445.868,283.381,434.832,302.234z"/>
</g>
<path style="fill:#F797DA;" d="M255.128,287.173l-0.954-0.868c-52.168,48.212-62.571,126.755-24.735,186.879
	c22.106-7.973,43.449-17.933,63.759-29.75C312.519,388.403,297.596,327.151,255.128,287.173z"/>
<path style="fill:#E386C7;" d="M255.995,208.222c-20.657,39.05-47.162,74.717-78.604,105.759
	c-42.642,41.913-43.223,110.453-1.31,153.095c0.972,0.989,1.952,1.952,2.958,2.898c5.353,5.041,11.183,9.543,17.413,13.448
	c11.201-2.932,22.193-6.342,32.968-10.238c-37.827-60.124-27.425-138.676,24.752-186.879l0.954,0.868
	c42.469,39.979,57.391,101.23,38.07,156.262c26.618-15.469,51.318-34.018,73.606-55.257c-0.685-27.98-12.242-54.589-32.205-74.196
	C303.158,282.939,276.653,247.272,255.995,208.222z"/>
<path style="fill:#B35496;" d="M110.327,359.183c-0.017-38.304,15.365-75.012,42.685-101.855
	c33.628-33.246,61.096-72.201,81.12-115.043l21.863-46.85V69.407h-45.201l-8.069,23.338
	c-18.289,39.154-43.406,74.726-74.179,105.065c-69.867,68.861-70.674,181.326-1.813,251.185c1.501,1.527,3.037,3.019,4.59,4.494
	c14.697,13.89,31.615,25.212,50.06,33.489c1.969-0.434,3.93-0.868,5.882-1.362c-11.747-5.874-22.566-13.456-32.101-22.497
	C126.533,436.129,110.309,398.528,110.327,359.183z"/>
<path style="fill:#CC6CAF;" d="M313.256,203.363c-13.56-19.287-25.403-39.727-35.398-61.078l-21.863-46.85l-21.863,46.85
	c-20.024,42.842-47.492,81.796-81.12,115.043c-56.255,55.326-57.001,145.773-1.683,202.027c1.258,1.284,2.542,2.533,3.852,3.765
	c9.535,9.04,20.354,16.623,32.101,22.497c3.063-0.72,6.143-1.405,9.17-2.195c-6.229-3.904-12.06-8.407-17.413-13.448
	c-43.518-41.002-45.549-109.516-4.546-153.034c0.946-1.006,1.917-1.995,2.898-2.958c31.441-31.042,57.946-66.709,78.604-105.759
	c20.657,39.05,47.162,74.717,78.604,105.759c19.963,19.608,31.52,46.217,32.205,74.196c12.276-11.678,23.789-24.145,34.461-37.306
	c-1.987-35.354-17.066-68.696-42.286-93.544C342.19,240.713,326.886,222.65,313.256,203.363z"/>
<path style="fill:#B35496;" d="M309.265,92.745l-11.712-23.338h-41.558v26.028l21.863,46.85
	c9.995,21.351,21.837,41.792,35.398,61.078c13.639,19.287,28.934,37.35,45.722,53.964c25.221,24.848,40.3,58.189,42.286,93.535
	c12.398-15.339,23.616-31.598,33.567-48.628c-4.841-39.614-22.956-76.417-51.387-104.423
	C352.671,167.471,327.554,131.9,309.265,92.745z"/>
<path style="fill:#80386A;" d="M131.323,453.49c-71.342-67.334-74.595-179.747-7.27-251.089c1.466-1.553,2.967-3.089,4.494-4.59
	c30.773-30.34,55.89-65.911,74.179-105.065l8.069-23.338h86.759l11.712,23.338c18.289,39.154,43.406,74.726,74.179,105.065
	c28.431,28.006,46.546,64.809,51.387,104.423c11.036-18.844,20.466-38.573,28.197-58.996
	c-10.021-35.302-29.047-67.403-55.205-93.145c-27.806-27.442-50.52-59.612-67.065-95.001L319.416,8.676H186.588l-16.05,47.978
	c-16.458,34.808-38.929,66.44-66.371,93.44c-83.497,82.317-84.46,216.742-2.143,300.238c1.779,1.805,3.592,3.583,5.44,5.327
	c13.986,13.942,29.594,26.149,46.486,36.361c9.266-1.345,18.41-3.054,27.451-5.041C162.946,478.702,146.02,467.38,131.323,453.49z"
	/>
<path d="M479.738,303.657c0.798-59.994-22.991-117.706-65.841-159.706c-27.077-26.713-49.175-58.042-65.26-92.52L327.311,5.049
	C325.888,1.969,322.808,0,319.425,0H186.588c-3.731,0-7.036,2.386-8.225,5.917l-15.929,47.466
	c-16.007,33.706-37.784,64.358-64.341,90.568c-86.915,85.675-87.922,225.582-2.256,312.497c1.857,1.883,3.739,3.731,5.665,5.544
	c20.64,21.577,45.713,38.417,73.485,49.375c0.937,0.338,1.926,0.512,2.924,0.512h75.42c0.868,0,1.735,0.121,2.663,0.121
	s1.735-0.104,2.663-0.121h67.611c0.954,0,1.909-0.156,2.811-0.469c30.4-10.42,58.181-27.294,81.449-49.453
	C454.248,420.86,479.252,363.659,479.738,303.657z M254.165,490.9c-51.691-53.739-51.691-138.728,0-192.466
	C305.856,352.172,305.856,437.162,254.165,490.9z M326.938,463.667c-13.578,12.91-30.435,21.855-48.733,25.872
	c48.637-63.664,41.219-153.806-17.161-208.673l-0.946-0.868c-3.314-3.115-8.476-3.132-11.817-0.052
	C189.425,334.3,181.226,424.365,229.3,488.454c-16.588-4.425-31.806-12.944-44.247-24.778
	c-40.039-37.653-41.974-100.623-4.329-140.662c0.902-0.963,1.831-1.909,2.776-2.837c28.283-27.928,52.663-59.551,72.496-93.995
	c19.833,34.435,44.221,66.041,72.505,93.96c39.215,38.504,39.788,101.508,1.284,140.723c-0.928,0.946-1.874,1.865-2.837,2.776
	L326.938,463.667z M340.69,307.83c-30.808-30.426-56.793-65.382-77.033-103.66c-2.629-4.234-8.19-5.544-12.424-2.915
	c-1.18,0.737-2.186,1.735-2.915,2.915c-20.241,38.278-46.225,73.233-77.033,103.66c-35.884,35.268-45.158,89.544-23.026,134.728
	c-42.842-53.634-38.157-130.989,10.836-179.062c34.391-33.949,62.467-73.763,82.898-117.559l14.003-29.993l14.003,29.993
	c20.432,43.796,48.507,83.61,82.898,117.559c48.993,48.073,53.678,125.419,10.845,179.053
	C385.856,397.365,376.573,343.097,340.69,307.83L340.69,307.83z M115.116,421.692c-47.639-67.568-39.371-159.68,19.529-217.696
	c31.476-31.068,57.166-67.499,75.862-107.581c0.121-0.269,0.234-0.538,0.33-0.816l6.117-17.517H292.2l9.231,18.35
	c18.697,40.083,44.386,76.513,75.862,107.581c58.901,58.016,67.16,150.128,19.529,217.696
	c26.227-57.877,13.56-125.966-31.728-170.534c-32.934-32.509-59.82-70.622-79.385-112.553l-21.863-46.85
	c-2.03-4.338-7.192-6.212-11.53-4.19c-1.848,0.859-3.323,2.342-4.19,4.19l-21.863,46.85
	c-19.564,41.931-46.451,80.044-79.385,112.553c-45.288,44.568-57.955,112.657-31.728,170.534L115.116,421.692z M398.558,449.412
	c-3.809,3.609-7.756,6.993-11.782,10.272c74.734-70.683,78.014-188.553,7.34-263.288c-1.51-1.596-3.045-3.167-4.616-4.711
	c-30.062-29.689-54.597-64.497-72.444-102.792l-11.747-23.356c-1.466-2.941-4.477-4.806-7.756-4.806h-86.759
	c-3.696,0-6.984,2.342-8.199,5.83l-7.956,22.93c-17.82,38.053-42.243,72.652-72.149,102.167
	c-73.285,72.201-74.162,190.133-1.969,263.418c1.588,1.614,3.201,3.193,4.85,4.746c7.895,7.435,16.415,14.185,25.455,20.171
	c-13.361-9.04-25.88-19.278-37.384-30.583c-81.779-77.198-85.492-206.07-8.294-287.849c1.683-1.787,3.401-3.54,5.145-5.258
	c28.119-27.763,51.153-60.245,68.045-95.964c0.147-0.312,0.278-0.633,0.39-0.954l14.098-42.035h121.038l19.026,41.375
	c16.961,36.352,40.265,69.381,68.809,97.561c80.105,78.925,81.068,207.849,2.134,287.962
	C402.106,446.002,400.345,447.72,398.558,449.412z"/>
<g>
</g>
<g>
</g>
<g>
</g>
<g>
</g>
<g>
</g>
<g>
</g>
<g>
</g>
<g>
</g>
<g>
</g>
<g>
</g>
<g>
</g>
<g>
</g>
<g>
</g>
<g>
</g>
<g>
</g>
</svg>
