<?xml version="1.0" encoding="iso-8859-1"?>
<!-- Generator: Adobe Illustrator 19.0.0, SVG Export Plug-In . SVG Version: 6.00 Build 0)  -->
<svg version="1.1" id="Capa_1" xmlns="http://www.w3.org/2000/svg" xmlns:xlink="http://www.w3.org/1999/xlink" x="0px" y="0px"
	 viewBox="0 0 511.978 511.978" style="enable-background:new 0 0 511.978 511.978;" xml:space="preserve">
<g>
	
		<rect x="451.426" y="3.991" transform="matrix(-0.7071 0.7071 -0.7071 -0.7071 797.8941 -296.985)" style="fill:#FFD24A;" width="18.057" height="25.532"/>
	
		<rect x="361.133" y="22.031" transform="matrix(-0.7071 0.7071 -0.7071 -0.7071 656.5116 -202.3407)" style="fill:#FFD24A;" width="18.057" height="25.532"/>
	
		<rect x="392.779" y="5.843" transform="matrix(-0.7071 0.7071 -0.7071 -0.7071 694.5742 -263.2498)" style="fill:#FFD24A;" width="18.057" height="12.766"/>
</g>
<g>
	<path style="fill:#FFA439;" d="M215.524,279.476c-7.042,12.947-15.926,24.81-26.363,35.211l0.813,0.993
		c-2.979,2.528-5.869,5.146-8.667,7.945l-81.979,81.979l-0.451-0.451l30.426-30.607c38.344-38.29,59.877-90.267,59.859-144.457
		c0.027-44.908-17.804-87.974-49.567-119.719C111.759,82.41,74.967,65.156,35.675,61.617c-1.625-0.181-3.25-0.361-4.875-0.451
		c-3.521-0.271-7.133-0.361-10.834-0.361c79.469-32.692,170.405,5.228,203.097,84.706c17.886,43.491,15.15,92.732-7.449,133.966
		L215.524,279.476L215.524,279.476z"/>
	<path style="fill:#FFA439;" d="M279.356,282.997c-32.719-0.009-64.383,11.575-89.383,32.683l-0.813-0.993
		c10.744-10.744,32.683-31.6,32.683-31.6c54.18-54.171,142.01-54.171,196.19,0c25.172,24.973,39.31,58.974,39.274,94.439
		c-0.208,37.478-15.312,73.339-41.983,99.675c0.551-4.46,0.795-8.956,0.722-13.453l2.077-41.983
		c0.027-76.607-62.053-138.742-138.66-138.769C279.428,282.997,279.392,282.997,279.356,282.997z"/>
</g>
<path style="fill:#FFD24A;" d="M189.161,230.09c0.018,54.189-21.515,106.167-59.859,144.457l-30.426,30.607l-62.748,63.019
	l-1.264,1.174c-35.618-39.067-34.227-99.224,3.16-136.602l67.985-68.527c46.452-46.786,46.181-122.364-0.605-168.807
	C86.56,76.704,62.02,64.813,35.675,61.617c39.292,3.539,76.084,20.793,103.919,48.754
	C171.347,142.116,189.179,185.182,189.161,230.09z"/>
<path style="fill:#F0C546;" d="M36.127,468.173l62.748-63.019l0.451,0.451l81.979-81.979c2.799-2.799,5.688-5.417,8.667-7.945
	c58.559-49.395,146.073-41.965,195.468,16.594c21.118,25.036,32.692,56.735,32.683,89.491l-2.077,41.983
	c-1.246-52.925-45.152-94.827-98.077-93.59c-24.63,0.578-48.095,10.618-65.52,28.034l-74.486,74.486
	c-37.794,37.757-98.727,38.714-137.685,2.167c-1.896-1.806-3.702-3.611-5.417-5.507L36.127,468.173z"/>
<g>
	
		<rect x="306.965" y="76.207" transform="matrix(-0.7071 0.7071 -0.7071 -0.7071 602.348 -71.554)" style="fill:#FFD24A;" width="18.057" height="25.532"/>
	
		<rect x="279.877" y="103.305" transform="matrix(-0.7071 0.7071 -0.7071 -0.7071 575.2662 -6.1414)" style="fill:#FFD24A;" width="18.057" height="25.532"/>
	
		<rect x="315.998" y="139.419" transform="matrix(-0.7071 0.7071 -0.7071 -0.7071 662.4659 29.9677)" style="fill:#FFD24A;" width="18.057" height="25.532"/>
	
		<rect x="352.119" y="175.533" transform="matrix(-0.7071 0.7071 -0.7071 -0.7071 749.6656 66.0768)" style="fill:#FFD24A;" width="18.057" height="25.533"/>
	
		<rect x="288.912" y="166.492" transform="matrix(-0.7071 0.7071 -0.7071 -0.7071 635.3713 95.3366)" style="fill:#FFD24A;" width="18.057" height="25.533"/>
	
		<rect x="325.034" y="202.606" transform="matrix(-0.7071 0.7071 -0.7071 -0.7071 722.571 131.4458)" style="fill:#FFD24A;" width="18.057" height="25.533"/>
	
		<rect x="388.223" y="211.611" transform="matrix(-0.7071 0.7071 -0.7071 -0.7071 836.809 102.137)" style="fill:#FFD24A;" width="18.057" height="25.533"/>
	
		<rect x="343.077" y="112.33" transform="matrix(-0.7071 0.7071 -0.7071 -0.7071 689.5386 -35.4231)" style="fill:#FFD24A;" width="18.057" height="25.532"/>
	
		<rect x="415.302" y="184.55" transform="matrix(-0.7071 0.7071 -0.7071 -0.7071 863.9009 36.7925)" style="fill:#FFD24A;" width="18.057" height="25.533"/>
	
		<rect x="334.048" y="49.131" transform="matrix(-0.7071 0.7071 -0.7071 -0.7071 629.4362 -136.9256)" style="fill:#FFD24A;" width="18.057" height="25.532"/>
	
		<rect x="370.169" y="85.246" transform="matrix(-0.7071 0.7071 -0.7071 -0.7071 716.6359 -100.8164)" style="fill:#FFD24A;" width="18.057" height="25.532"/>
	
		<rect x="379.19" y="148.445" transform="matrix(-0.7071 0.7071 -0.7071 -0.7071 776.723 0.6924)" style="fill:#FFD24A;" width="18.057" height="25.533"/>
	
		<rect x="406.282" y="121.36" transform="matrix(-0.7071 0.7071 -0.7071 -0.7071 803.8202 -64.701)" style="fill:#FFD24A;" width="18.057" height="25.532"/>
	
		<rect x="442.394" y="157.474" transform="matrix(-0.7071 0.7071 -0.7071 -0.7071 891.0045 -28.5855)" style="fill:#FFD24A;" width="18.057" height="25.533"/>
	
		<rect x="397.255" y="58.146" transform="matrix(-0.7071 0.7071 -0.7071 -0.7071 743.7113 -166.2317)" style="fill:#FFD24A;" width="18.057" height="25.532"/>
	
		<rect x="433.367" y="94.26" transform="matrix(-0.7071 0.7071 -0.7071 -0.7071 830.8956 -130.1162)" style="fill:#FFD24A;" width="18.057" height="25.532"/>
	
		<rect x="424.334" y="31.03" transform="matrix(-0.7071 0.7071 -0.7071 -0.7071 770.765 -231.6687)" style="fill:#FFD24A;" width="18.057" height="25.532"/>
	
		<rect x="460.447" y="67.144" transform="matrix(-0.7071 0.7071 -0.7071 -0.7071 857.9493 -195.5532)" style="fill:#FFD24A;" width="18.057" height="25.532"/>
	
		<rect x="487.539" y="40.105" transform="matrix(-0.7071 0.7071 -0.7071 -0.7071 885.0784 -260.8695)" style="fill:#FFD24A;" width="18.057" height="25.532"/>
	
		<rect x="469.48" y="130.374" transform="matrix(-0.7071 0.7071 -0.7071 -0.7071 918.08 -94.0007)" style="fill:#FFD24A;" width="18.057" height="25.532"/>
	
		<rect x="492.044" y="105.163" transform="matrix(-0.7071 0.7071 -0.7071 -0.7071 934.2592 -163.8897)" style="fill:#FFD24A;" width="18.057" height="12.766"/>
</g>
<rect x="306.965" y="76.207" transform="matrix(-0.7071 0.7071 -0.7071 -0.7071 602.348 -71.554)" width="18.057" height="25.532"/>
<rect x="279.877" y="103.305" transform="matrix(-0.7071 0.7071 -0.7071 -0.7071 575.2662 -6.1414)" width="18.057" height="25.532"/>
<rect x="315.998" y="139.419" transform="matrix(-0.7071 0.7071 -0.7071 -0.7071 662.4659 29.9677)" width="18.057" height="25.532"/>
<rect x="352.119" y="175.533" transform="matrix(-0.7071 0.7071 -0.7071 -0.7071 749.6656 66.0768)" width="18.057" height="25.533"/>
<rect x="288.912" y="166.492" transform="matrix(-0.7071 0.7071 -0.7071 -0.7071 635.3713 95.3366)" width="18.057" height="25.533"/>
<rect x="325.034" y="202.606" transform="matrix(-0.7071 0.7071 -0.7071 -0.7071 722.571 131.4458)" width="18.057" height="25.533"/>
<rect x="388.223" y="211.611" transform="matrix(-0.7071 0.7071 -0.7071 -0.7071 836.809 102.137)" width="18.057" height="25.533"/>
<rect x="343.077" y="112.33" transform="matrix(-0.7071 0.7071 -0.7071 -0.7071 689.5386 -35.4231)" width="18.057" height="25.532"/>
<rect x="415.302" y="184.55" transform="matrix(-0.7071 0.7071 -0.7071 -0.7071 863.9009 36.7925)" width="18.057" height="25.533"/>
<rect x="334.048" y="49.131" transform="matrix(-0.7071 0.7071 -0.7071 -0.7071 629.4362 -136.9256)" width="18.057" height="25.532"/>
<rect x="370.169" y="85.246" transform="matrix(-0.7071 0.7071 -0.7071 -0.7071 716.6359 -100.8164)" width="18.057" height="25.532"/>
<rect x="379.19" y="148.445" transform="matrix(-0.7071 0.7071 -0.7071 -0.7071 776.723 0.6924)" width="18.057" height="25.533"/>
<rect x="406.282" y="121.36" transform="matrix(-0.7071 0.7071 -0.7071 -0.7071 803.8202 -64.701)" width="18.057" height="25.532"/>
<rect x="442.394" y="157.474" transform="matrix(-0.7071 0.7071 -0.7071 -0.7071 891.0045 -28.5855)" width="18.057" height="25.533"/>
<rect x="397.255" y="58.146" transform="matrix(-0.7071 0.7071 -0.7071 -0.7071 743.7113 -166.2317)" width="18.057" height="25.532"/>
<rect x="433.367" y="94.26" transform="matrix(-0.7071 0.7071 -0.7071 -0.7071 830.8956 -130.1162)" width="18.057" height="25.532"/>
<rect x="424.334" y="31.03" transform="matrix(-0.7071 0.7071 -0.7071 -0.7071 770.765 -231.6687)" width="18.057" height="25.532"/>
<rect x="451.426" y="3.991" transform="matrix(-0.7071 0.7071 -0.7071 -0.7071 797.8941 -296.985)" width="18.057" height="25.532"/>
<rect x="460.447" y="67.144" transform="matrix(-0.7071 0.7071 -0.7071 -0.7071 857.9493 -195.5532)" width="18.057" height="25.532"/>
<rect x="487.539" y="40.105" transform="matrix(-0.7071 0.7071 -0.7071 -0.7071 885.0784 -260.8695)" width="18.057" height="25.532"/>
<rect x="469.48" y="130.374" transform="matrix(-0.7071 0.7071 -0.7071 -0.7071 918.08 -94.0007)" width="18.057" height="25.532"/>
<rect x="492.044" y="105.163" transform="matrix(-0.7071 0.7071 -0.7071 -0.7071 934.2592 -163.8897)" width="18.057" height="12.766"/>
<rect x="361.133" y="22.031" transform="matrix(-0.7071 0.7071 -0.7071 -0.7071 656.5116 -202.3407)" width="18.057" height="25.532"/>
<rect x="392.779" y="5.843" transform="matrix(-0.7071 0.7071 -0.7071 -0.7071 694.5742 -263.2498)" width="18.057" height="12.766"/>
<path d="M31.612,326.325c-42.163,42.181-42.145,110.546,0.027,152.709s110.546,42.154,152.709-0.027l74.477-74.467
	c33.911-33.884,88.868-33.875,122.752,0.036c15.728,15.737,24.81,36.909,25.379,59.155l-0.659,13.019
	c-0.253,4.984,3.584,9.218,8.568,9.471c2.546,0.126,5.029-0.831,6.835-2.636c57.846-55.192,60.004-146.831,4.803-204.686
	c-0.713-0.74-1.427-1.481-2.149-2.203c-51.336-51.165-132.205-57.548-190.936-15.078c31.528-85.202-11.972-179.831-97.174-211.358
	c-38.778-14.346-81.528-13.57-119.746,2.176c-4.641,1.833-6.916,7.078-5.083,11.71c1.372,3.485,4.767,5.76,8.514,5.715
	c4.577,0,9.083,0.307,13.543,0.686c39.843,3.955,74.242,29.578,89.428,66.622c17.976,41.188,8.704,89.193-23.321,120.721
	L31.612,326.325z M411.579,289.462c43.202,43.165,49.151,111.132,14.085,161.142l1.454-28.891
	c-0.135-81.717-66.495-147.861-148.222-147.716c-13.29,0.018-26.526,1.833-39.328,5.39c51.634-40.665,125.506-36.34,172.039,10.076
	H411.579z M279.365,292.044c66.631,0.045,122.409,50.524,129.09,116.82c-10.491-16.089-25.199-28.991-42.515-37.297
	c-40.123-19.89-88.489-11.746-119.881,20.197l-74.504,74.504c-33.794,34.056-88.426,35.401-123.863,3.061l57.53-57.783l0.46,0.46
	l81.979-81.979c24.278-24.404,57.304-38.082,91.73-37.983L279.365,292.044L279.365,292.044z M182.588,310.318
	c0.208-0.515,0.488-0.993,0.695-1.508l0.46,0.46C183.355,309.604,182.985,309.974,182.588,310.318z M222.494,285.354
	c0.199-0.352,0.424-0.686,0.623-1.038l0.515,0.515C223.243,284.983,222.882,285.2,222.494,285.354z M68.304,58.466
	c80.76-5.932,151.039,54.731,156.97,135.491c3.079,41.938-11.999,83.189-41.405,113.254c9.498-24.603,14.355-50.759,14.31-77.131
	C198.081,150.286,145.065,80.234,68.304,58.466z M139.558,130.135c-2.013-4.686-4.28-9.254-6.808-13.687
	c30.354,30.02,47.427,70.946,47.409,113.633c0.144,51.842-20.459,101.58-57.214,138.137L35.576,455.93
	c-26.372-35.78-22.598-85.464,8.857-116.866l67.994-68.454C149.679,233.918,160.459,178.058,139.558,130.135z"/>
<g>
</g>
<g>
</g>
<g>
</g>
<g>
</g>
<g>
</g>
<g>
</g>
<g>
</g>
<g>
</g>
<g>
</g>
<g>
</g>
<g>
</g>
<g>
</g>
<g>
</g>
<g>
</g>
<g>
</g>
</svg>
