<?xml version="1.0" encoding="iso-8859-1"?>
<!-- Generator: Adobe Illustrator 19.0.0, SVG Export Plug-In . SVG Version: 6.00 Build 0)  -->
<svg version="1.1" id="Capa_1" xmlns="http://www.w3.org/2000/svg" xmlns:xlink="http://www.w3.org/1999/xlink" x="0px" y="0px"
	 viewBox="0 0 512 512" style="enable-background:new 0 0 512 512;" xml:space="preserve">
<path style="fill:#F5DA55;" d="M485.396,137.085c7.691,72.347-17.775,144.292-69.27,195.694l-72.689,72.689
	c-63.665,63.622-157.487,86.447-243.267,59.187c85.524,60.058,201.83,50.009,275.792-23.817l64.861-64.861
	C503.538,313.158,521.245,218.285,485.396,137.085z"/>
<g>
	<path style="fill:#FFE96F;" d="M94.632,462.8c1.837,0.624,3.683,1.265,5.538,1.846c-1.453-1.017-2.982-1.906-4.418-2.965
		L94.632,462.8z"/>
	<path style="fill:#FFE96F;" d="M485.396,137.085c-6.341-14.613-14.297-28.474-23.723-41.318l11.776-11.844l3.008-3.025
		c12.383-12.682,12.143-32.994-0.538-45.377c-12.468-12.177-32.371-12.177-44.839,0l-14.869,14.784
		C330.507-13.001,211.39-4.139,136.001,71.156L71.14,136.017c-75.295,75.389-84.157,194.506-20.851,280.21l-11.537,11.622
		c-1.419,1.436-2.7,3.008-3.828,4.683c-9.939,14.664-6.11,34.601,8.546,44.54c12.724,8.631,29.781,7.016,40.66-3.846L94.632,462.8
		l1.119-1.119c1.436,1.06,2.965,1.948,4.418,2.965c85.781,27.26,179.603,4.435,243.267-59.187l72.689-72.689
		C467.621,281.369,493.087,209.432,485.396,137.085z"/>
</g>
<g>
	<rect x="213.253" y="93.631" style="fill:#FFA335;" width="17.091" height="17.091"/>
	<rect x="298.709" y="93.631" style="fill:#FFA335;" width="17.091" height="17.091"/>
	<rect x="247.436" y="110.722" style="fill:#FFA335;" width="17.091" height="17.091"/>
	<rect x="187.617" y="127.813" style="fill:#FFA335;" width="17.091" height="17.091"/>
	<rect x="127.798" y="136.359" style="fill:#FFA335;" width="17.091" height="17.091"/>
	<rect x="161.98" y="102.176" style="fill:#FFA335;" width="17.091" height="17.091"/>
	<rect x="290.164" y="50.903" style="fill:#FFA335;" width="17.091" height="17.091"/>
	<rect x="255.981" y="76.539" style="fill:#FFA335;" width="17.091" height="17.091"/>
	<rect x="221.799" y="59.448" style="fill:#FFA335;" width="17.091" height="17.091"/>
</g>
<path d="M32.677,421.781c-15.886,15.886-15.886,41.634,0,57.52c15.886,15.886,41.634,15.886,57.52,0l6.478-6.486
	c89.071,60.759,208.709,49.881,285.363-25.944l64.852-64.852c75.816-76.662,86.686-196.283,25.944-285.363l9.725-9.725
	c15.869-15.878,15.861-41.626-0.017-57.495s-41.626-15.861-57.495,0.017l0,0l-9.725,9.725
	c-89.079-60.751-208.7-49.872-285.363,25.944l-64.852,64.852c-75.808,76.654-86.686,196.283-25.944,285.363L32.677,421.781z
	 M77.191,142.024l64.852-64.852c72.629-71.843,186.67-80.32,269.117-19.997c3.401,2.504,8.127,2.136,11.109-0.855l14.878-14.818
	c9.204-9.204,24.124-9.204,33.328,0c9.204,9.204,9.204,24.124,0,33.328l-14.844,14.844c-2.991,2.982-3.358,7.708-0.855,11.109
	c60.323,82.448,51.846,196.489-19.997,269.117l-64.852,64.852c-72.62,71.843-186.67,80.32-269.117,19.997
	c-3.401-2.504-8.127-2.136-11.109,0.855l-11.596,11.605c-9.204,9.204-24.124,9.204-33.328,0s-9.204-24.124,0-33.328l0,0
	l11.605-11.596c2.991-2.982,3.358-7.708,0.855-11.109c-60.332-82.439-51.88-196.48,19.954-269.117
	C77.191,142.058,77.191,142.024,77.191,142.024z"/>
<rect x="213.253" y="93.631" width="17.091" height="17.091"/>
<rect x="298.709" y="93.631" width="17.091" height="17.091"/>
<rect x="247.436" y="110.722" width="17.091" height="17.091"/>
<rect x="187.617" y="127.813" width="17.091" height="17.091"/>
<rect x="127.798" y="136.359" width="17.091" height="17.091"/>
<rect x="161.98" y="102.176" width="17.091" height="17.091"/>
<rect x="290.164" y="50.903" width="17.091" height="17.091"/>
<rect x="255.981" y="76.539" width="17.091" height="17.091"/>
<rect x="221.799" y="59.448" width="17.091" height="17.091"/>
<g>
</g>
<g>
</g>
<g>
</g>
<g>
</g>
<g>
</g>
<g>
</g>
<g>
</g>
<g>
</g>
<g>
</g>
<g>
</g>
<g>
</g>
<g>
</g>
<g>
</g>
<g>
</g>
<g>
</g>
</svg>
