<?xml version="1.0" encoding="iso-8859-1"?>
<!-- Generator: Adobe Illustrator 19.0.0, SVG Export Plug-In . SVG Version: 6.00 Build 0)  -->
<svg version="1.1" id="Capa_1" xmlns="http://www.w3.org/2000/svg" xmlns:xlink="http://www.w3.org/1999/xlink" x="0px" y="0px"
	 viewBox="0 0 512.001 512.001" style="enable-background:new 0 0 512.001 512.001;" xml:space="preserve">
<g>
	<path style="fill:#713520;" d="M128.073,375.545c-4.708,0-8.528-3.821-8.528-8.529c0-105.54,35.393-219.182,99.673-319.972
		c9.151-14.345,19.223-28.971,29.961-43.342c2.823-3.77,8.17-4.537,11.94-1.723s4.537,8.17,1.723,11.94
		c0,0.009-0.009,0.009-0.009,0.017c-10.473,14.021-20.306,28.255-29.227,42.293c-62.548,98.086-96.995,208.445-96.995,310.787
		C136.602,371.724,132.781,375.545,128.073,375.545z"/>
	<path style="fill:#713520;" d="M377.105,372.074c-44.8-60.697-78.13-129.07-98.359-201.742l-5.518-27.095l16.716-3.411
		l5.373,26.498c19.692,70.462,52.058,136.755,95.519,195.61L377.105,372.074z"/>
</g>
<path style="fill:#C22955;" d="M465.802,351.665c-1.228-0.921-2.559-1.637-3.863-2.439c1.237,4.401,1.876,8.955,1.893,13.526v16.119
	c-0.009,11.206-1.996,22.328-5.885,32.835c-3.855,10.541-9.578,20.306-16.886,28.826c-18.038,20.98-44.314,33.056-71.981,33.091
	h-15.181c-23.308-0.017-45.781-8.639-63.111-24.229c15.735,32.988,49.005,54.011,85.549,54.079h15.181
	c27.666-0.034,53.943-12.11,71.981-33.091c7.309-8.52,13.032-18.285,16.886-28.826c3.889-10.507,5.876-21.628,5.885-32.835v-16.119
	C486.27,376.5,478.688,361.328,465.802,351.665z"/>
<path style="fill:#DC2F60;" d="M353.899,473.623h15.181c27.666-0.034,53.943-12.11,71.981-33.091
	c7.309-8.52,13.032-18.285,16.886-28.826c3.889-10.507,5.876-21.628,5.885-32.835v-16.119c-0.017-4.571-0.657-9.125-1.893-13.526
	c-8.042-5.049-17.338-7.744-26.839-7.795h-4.35c-13.594-0.017-26.643,5.381-36.246,15.01l-10.575,10.575l-10.49-10.49
	c-20.093-20.11-52.689-20.127-72.799-0.034c-0.009,0.009-0.026,0.026-0.034,0.034l-3.923,3.923
	c-9.654,9.663-15.087,22.754-15.095,36.417v11.855c0.009,14.072,3.138,27.965,9.168,40.672c17.33,15.59,39.803,24.212,63.111,24.229
	H353.899z"/>
<path style="fill:#C22955;" d="M214.092,355.162c0.401,2.507,0.614,5.049,0.631,7.59v16.119
	c-0.009,11.206-1.996,22.328-5.885,32.835c-3.855,10.541-9.577,20.306-16.886,28.826c-18.038,20.98-44.314,33.056-71.981,33.091
	H104.79c-27.658-0.06-53.926-12.136-71.981-33.091c-0.921-1.075-1.706-2.226-2.559-3.335c12.409,39.402,48.919,66.215,90.232,66.275
	h15.181c27.666-0.034,53.943-12.11,71.981-33.091c7.309-8.52,13.032-18.285,16.886-28.826c3.889-10.507,5.876-21.628,5.885-32.835
	v-16.119C230.407,378.402,224.496,364.833,214.092,355.162z"/>
<path style="fill:#DC2F60;" d="M65.218,464.924c12.409,5.714,25.91,8.682,39.572,8.699h15.181
	c27.666-0.034,53.943-12.11,71.981-33.091c7.309-8.52,13.032-18.285,16.886-28.826c3.889-10.507,5.876-21.628,5.885-32.835v-16.119
	c-0.017-2.541-0.23-5.083-0.631-7.59c-9.433-8.861-21.901-13.782-34.847-13.731h-4.35c-13.594-0.017-26.643,5.381-36.246,15.01
	l-10.575,10.575l-10.49-10.49c-20.093-20.11-52.689-20.127-72.799-0.034c-0.009,0.009-0.026,0.026-0.034,0.034l-3.923,3.923
	c-9.654,9.663-15.087,22.754-15.095,36.417v11.855c0.026,9.663,1.535,19.266,4.477,28.477c0.853,1.109,1.706,2.26,2.559,3.335
	C41.705,450.903,52.775,459.227,65.218,464.924z"/>
<path style="fill:#399D4D;" d="M256.512,8.819c79.869,0.281,144.473,65.115,144.473,144.985
	c-19.078,0.017-37.969-3.718-55.606-11.002c-16.972-7.104-32.451-17.347-45.627-30.191h-1.109v-1.62
	C298.677,72.698,283.531,35.957,256.512,8.819z"/>
<path style="fill:#307E45;" d="M256.171,8.819h0.341c27.018,27.138,42.165,63.878,42.131,102.171v1.62
	c-0.222,19.061-4.196,37.901-11.684,55.435c-7.249,16.989-17.705,32.417-30.788,45.457
	c-42.557-42.549-54.395-106.964-29.764-161.871c9.381-14.754,19.249-29.022,29.594-42.813
	C256.001,8.819,256.171,8.819,256.171,8.819z"/>
<path style="fill:#20522D;" d="M264.7,161.991h-17.057V8.819c-0.009-3.488,2.064-6.652,5.262-8.051
	c3.156-1.373,6.831-0.699,9.296,1.706l111.212,111.212l-12.059,12.059L264.7,29.066V161.991z"/>
<path d="M120.474,512.001h15.198c57.039-0.009,103.263-46.242,103.272-103.28v-16.119c0-32.971-26.728-59.699-59.7-59.699h-4.392
	c-13.765-0.034-27.104,4.716-37.747,13.449c5.092-84.483,28.434-166.852,68.441-241.433c-1.825,42.762,14.353,84.33,44.596,114.615
	c3.326,3.335,8.725,3.335,12.059,0.009l0.009-0.009c8.682-8.75,16.289-18.507,22.66-29.057
	c15.991,50.804,38.481,99.323,66.923,144.353c-4.827-1.254-9.791-1.893-14.771-1.927c-15.923-0.043-31.197,6.285-42.429,17.577
	l-3.957,3.957c-11.292,11.224-17.62,26.507-17.577,42.429v11.855c-0.009,57.039,46.224,103.272,103.263,103.28h0.009h15.198
	c57.039-0.009,103.263-46.242,103.272-103.28v-16.119c0-32.971-26.728-59.699-59.699-59.699h-4.392
	c-15.837-0.043-31.044,6.251-42.216,17.483l-3.411,3.411c-40.101-56.203-70.232-118.896-89.055-185.324
	c5.04-12.545,8.384-25.705,9.944-39.129c27.027,21.424,60.527,33.056,95.016,32.988c4.708,0,8.529-3.821,8.529-8.529
	C409.386,70.165,342.386,1.997,258.764,0.427c-0.657-0.205-1.339-0.341-2.03-0.384c-0.298,0-0.588-0.051-0.853-0.043
	c-0.913,0.026-1.817,0.205-2.669,0.52c-0.077,0.017-0.162,0.034-0.239,0.06l0,0c-0.93,0.409-1.782,0.989-2.507,1.706
	c-0.077,0.077-0.188,0.094-0.264,0.171c-12.725,12.759-23.087,27.666-30.617,44.033c-60.024,94.214-95.4,200.676-99.562,300.749
	c-23.786-20.298-59.188-18.891-81.285,3.241l-3.957,3.957c-11.292,11.224-17.62,26.507-17.577,42.429v11.855
	C17.203,465.759,63.427,512.001,120.474,512.001C120.466,512.001,120.474,512.001,120.474,512.001z M377.898,373.046
	c3.386,3.198,8.673,3.198,12.059,0l10.592-10.592c7.983-8.025,18.839-12.52,30.157-12.494h4.392
	c23.547,0,42.642,19.095,42.642,42.642v16.119c-0.009,47.615-38.6,86.215-86.215,86.223h-15.198
	c-47.615,0-86.215-38.6-86.215-86.215v-0.009v-11.855c-0.034-11.394,4.495-22.336,12.58-30.37l3.957-3.957
	c16.776-16.776,43.964-16.776,60.74,0l0,0L377.898,373.046z M392.175,144.994c-31.905-2.013-62.062-15.24-85.166-37.329
	c-0.281-14.771-2.686-29.415-7.155-43.495l61.516,61.516l12.068-12.059l-94.223-94.18C341.32,30.226,387.996,82.096,392.175,144.994
	z M234.33,55.061c4.307-6.738,8.742-13.407,13.322-20.016v126.93h17.057V31.718c36.826,51.58,33.287,121.719-8.529,169.333
	C220.983,160.848,212.446,103.81,234.33,55.061z M34.26,396.866c-0.034-11.394,4.495-22.336,12.58-30.37l3.957-3.957
	c16.776-16.776,43.964-16.776,60.74,0l0,0l10.499,10.499c3.326,3.335,8.725,3.343,12.059,0.017c0.009-0.009,0.009-0.009,0.017-0.017
	l10.584-10.584c7.983-8.025,18.839-12.52,30.157-12.494h4.392c23.547,0,42.643,19.095,42.643,42.643v16.119
	c-0.009,47.615-38.6,86.215-86.215,86.223h-15.198c-47.615,0-86.215-38.6-86.215-86.215v-0.009V396.866z"/>
<g>
</g>
<g>
</g>
<g>
</g>
<g>
</g>
<g>
</g>
<g>
</g>
<g>
</g>
<g>
</g>
<g>
</g>
<g>
</g>
<g>
</g>
<g>
</g>
<g>
</g>
<g>
</g>
<g>
</g>
</svg>
