<?xml version="1.0" encoding="iso-8859-1"?>
<!-- Generator: Adobe Illustrator 19.0.0, SVG Export Plug-In . SVG Version: 6.00 Build 0)  -->
<svg version="1.1" id="Capa_1" xmlns="http://www.w3.org/2000/svg" xmlns:xlink="http://www.w3.org/1999/xlink" x="0px" y="0px"
	 viewBox="0 0 512.002 512.002" style="enable-background:new 0 0 512.002 512.002;" xml:space="preserve">
<g>
	<path style="fill:#4EB500;" d="M404.124,123.87l-31.018,19.376l15.212-34.332c3.646,2.685,7.079,5.643,10.283,8.838
		C400.555,119.689,402.399,121.737,404.124,123.87z"/>
	<path style="fill:#4EB500;" d="M492.079,84.014c9.314,9.178,9.433,24.169,0.255,33.482c-0.025,0.025-0.059,0.059-0.085,0.085
		l-0.425,0.425c-9.22,9.246-24.186,9.271-33.431,0.051c-0.017-0.017-0.034-0.034-0.051-0.051l-17.251-17.251l-36.967,23.115
		c-1.725-2.142-3.569-4.181-5.524-6.119c-3.204-3.195-6.637-6.153-10.283-8.838l18.781-42.15l-17.251-17.251
		c-9.246-9.22-9.271-24.185-0.051-33.431c0.017-0.017,0.034-0.034,0.051-0.051l0.51-0.51c9.22-9.246,24.185-9.271,33.431-0.051
		c0.017,0.017,0.034,0.034,0.051,0.051l17.251,17.251l17.251-17.251c9.186-9.314,24.185-9.416,33.491-0.229
		s9.416,24.185,0.229,33.491c-0.246,0.246-0.493,0.493-0.748,0.722L473.893,65.99L492.079,84.014z"/>
</g>
<g>
	<path style="fill:#E65344;" d="M381.604,177.238v16.996c-32.837-0.034-59.452-26.65-59.486-59.486h16.996
		C339.114,158.219,358.132,177.238,381.604,177.238z"/>
	<path style="fill:#E65344;" d="M347.612,242.333v11.387c-4.529,0.017-9.05-0.348-13.512-1.105L347.612,242.333z"/>
	<path style="fill:#E65344;" d="M347.612,236.724v5.609L334.1,252.616c-41.156-6.671-71.409-42.184-71.469-83.876h16.996
		C279.678,206.267,310.084,236.673,347.612,236.724z"/>
</g>
<path style="fill:#FF714C;" d="M381.604,194.234v-16.996c-23.463,0-42.49-19.027-42.49-42.49h-16.996
	C322.152,167.584,348.768,194.2,381.604,194.234z M423.415,184.461l-75.803,57.872v-5.609
	c-37.527-0.051-67.934-30.457-67.985-67.985h-16.996c0.059,41.692,30.313,77.205,71.469,83.876l-56.937,43.425
	c-31.851-1.258-57.022-27.44-57.022-59.316h-16.996l-13.087-10.368l3.314-4.164l77.332-97.218
	C299.326,89.07,351.113,82,388.318,108.913l-15.212,34.332l31.018-19.376C418.069,140.858,424.978,162.545,423.415,184.461z"/>
<g>
	<path style="fill:#E65344;" d="M279.627,296.211v16.996c-7.13,0.017-14.226-0.986-21.075-2.974l8.838-6.714l9.773-7.478
		C277.979,296.185,278.803,296.245,279.627,296.211z"/>
	<path style="fill:#E65344;" d="M220.141,236.724c0,31.876,25.171,58.059,57.022,59.317l-9.773,7.478l-8.838,6.714
		c-32.769-9.441-55.356-39.406-55.407-73.508L220.141,236.724L220.141,236.724z"/>
</g>
<path style="fill:#FF714C;" d="M258.552,310.233l-59.232,45.21c-21.891-1.921-38.683-20.259-38.666-42.235h-16.996l-13.937-11.047
	l3.314-4.164l57.022-71.639l13.087,10.368C203.196,270.827,225.784,300.791,258.552,310.233z"/>
<g>
	<path style="fill:#E65344;" d="M203.145,355.697v16.996c-7.232,0.025-14.413-1.3-21.16-3.909l8.158-6.289l9.178-7.053
		C200.587,355.612,201.861,355.697,203.145,355.697z"/>
	<path style="fill:#E65344;" d="M199.321,355.442l-9.178,7.053l-8.158,6.289c-23.055-8.796-38.301-30.899-38.326-55.577h16.996
		C160.637,335.183,177.43,353.522,199.321,355.442z"/>
	<path style="fill:#E65344;" d="M135.16,406.686v16.996c-6.671-0.017-13.248-1.589-19.206-4.589l16.571-12.577
		C133.401,406.618,134.276,406.677,135.16,406.686z"/>
	<path style="fill:#E65344;" d="M132.526,406.516l-16.571,12.577c-14.294-7.232-23.293-21.883-23.285-37.901h16.996
		C109.717,394.227,119.566,405.13,132.526,406.516z"/>
</g>
<path style="fill:#E66544;" d="M347.612,242.333l75.803-57.872c-1.598,23.999-13.223,46.204-32.038,61.186l-97.218,77.332
	l-75.803,60.336L78.393,494.726c-16.087,12.747-39.176,11.438-53.708-3.059c-0.595-0.595-0.935-1.19-1.445-1.785l37.476-28.554
	c4.351,3.144,9.586,4.844,14.957,4.844v-16.316l40.281-30.763c5.957,3,12.535,4.572,19.206,4.589v-16.996
	c-0.884-0.009-1.759-0.068-2.634-0.17l49.459-37.731c6.747,2.609,13.928,3.935,21.16,3.909v-16.996
	c-1.275,0-2.558-0.085-3.824-0.255l59.232-45.21c6.849,1.989,13.945,2.991,21.075,2.974v-16.996
	c-0.824,0.034-1.649-0.025-2.464-0.17l56.937-43.425c4.461,0.756,8.982,1.122,13.512,1.105L347.612,242.333L347.612,242.333z"/>
<g>
	<path style="fill:#E65344;" d="M75.674,449.856v16.316c-5.371,0-10.606-1.7-14.957-4.844L75.674,449.856z"/>
	<path style="fill:#E65344;" d="M67.176,440.678c0,4.691,3.807,8.498,8.498,8.498v0.68l-14.957,11.472
		c-6.611-4.801-10.529-12.475-10.538-20.65H67.176z"/>
</g>
<path style="fill:#FF714C;" d="M92.67,381.191c-0.008,16.019,8.991,30.67,23.285,37.901l-40.281,30.763v-0.68
	c-4.691,0-8.498-3.807-8.498-8.498H50.18c0.008,8.175,3.926,15.849,10.538,20.65l-37.476,28.554
	c-13.087-14.617-13.767-36.525-1.615-51.923l108.095-135.799l13.937,11.047c0.025,24.678,15.271,46.782,38.326,55.577
	l-49.459,37.731c-12.96-1.385-22.8-12.288-22.86-25.324L92.67,381.191L92.67,381.191z"/>
<path d="M53.247,512.002c11.056,0.008,21.789-3.748,30.432-10.648l312.975-249.095c38.335-30.483,46.918-85.261,19.733-126.009
	l23.472-14.668l12.458,12.45c12.696,12.569,33.168,12.467,45.737-0.221c0.051-0.051,0.102-0.102,0.153-0.153
	c12.569-12.569,12.577-32.938,0.008-45.516c-0.051-0.051-0.102-0.102-0.153-0.153L486.13,66.151l11.047-10.436
	c12.773-12.365,13.096-32.752,0.731-45.516c-12.365-12.764-32.752-13.096-45.516-0.731c-0.025,0.025-0.059,0.059-0.085,0.085
	l-11.209,11.2L429.873,9.528c-12.705-12.705-33.304-12.705-46.009,0s-12.705,33.304,0,46.009l13.104,13.113L384.544,96.6
	c-40.332-23.157-91.541-13.342-120.443,23.098L14.998,432.673c-16.809,21.126-13.308,51.889,7.818,68.698
	c8.651,6.883,19.376,10.631,30.423,10.631H53.247z M395.872,43.521c-5.94-6.068-5.838-15.798,0.229-21.738
	c0.085-0.076,0.161-0.161,0.246-0.238c5.94-5.932,15.56-5.932,21.5,0l17.234,17.234c3.314,3.314,8.702,3.314,12.016,0l17.234-17.234
	c5.872-6,15.5-6.11,21.5-0.238c6,5.872,6.11,15.5,0.238,21.5c-0.178,0.178-0.357,0.357-0.544,0.527l-17.472,16.503
	c-3.408,3.221-3.561,8.6-0.34,12.016c0.068,0.068,0.136,0.136,0.204,0.204l18.211,17.99c2.889,2.838,4.512,6.713,4.521,10.767
	c-0.017,4.224-1.759,8.26-4.827,11.166c-5.94,5.932-15.56,5.932-21.5,0L447.09,94.747c-2.796-2.796-7.155-3.297-10.512-1.198
	l-30.95,19.342c-0.357-0.374-0.663-0.782-1.028-1.147c-1.87-1.87-3.858-3.578-5.864-5.269l16.146-36.261
	c1.428-3.212,0.731-6.977-1.759-9.458L395.872,43.521z M28.288,443.227l249.104-312.941c24.101-30.372,67.016-38.122,100.218-18.092
	l-12.271,27.602c-1.904,4.292,0.025,9.314,4.317,11.217c2.583,1.147,5.566,0.935,7.954-0.561l24.389-15.22
	c22.639,33.414,15.704,78.624-15.891,103.727L73.124,488.063c-13.733,11.022-33.814,8.829-44.836-4.912
	C18.924,471.492,18.924,454.895,28.288,443.227z"/>
<path d="M381.604,194.234v-16.996c-23.455-0.025-42.465-19.036-42.49-42.49h-16.996C322.152,167.584,348.768,194.2,381.604,194.234z
	"/>
<path d="M347.612,253.72v-16.996c-37.527-0.042-67.942-30.457-67.985-67.985h-16.996
	C262.682,215.658,300.702,253.669,347.612,253.72z"/>
<path d="M279.627,313.207v-16.996c-32.837-0.034-59.452-26.65-59.486-59.486h-16.996
	C203.196,278.943,237.409,313.156,279.627,313.207z"/>
<path d="M203.145,372.693v-16.996c-23.455-0.025-42.465-19.036-42.49-42.49h-16.996
	C143.692,346.043,170.308,372.659,203.145,372.693z"/>
<path d="M135.16,423.682v-16.996c-14.081,0-25.494-11.413-25.494-25.494H92.67C92.695,404.646,111.706,423.656,135.16,423.682z"/>
<path d="M75.674,466.172v-16.996c-4.691,0-8.498-3.807-8.498-8.498H50.18C50.18,454.759,61.592,466.172,75.674,466.172z"/>
<g>
</g>
<g>
</g>
<g>
</g>
<g>
</g>
<g>
</g>
<g>
</g>
<g>
</g>
<g>
</g>
<g>
</g>
<g>
</g>
<g>
</g>
<g>
</g>
<g>
</g>
<g>
</g>
<g>
</g>
</svg>
