<?xml version="1.0" encoding="iso-8859-1"?>
<!-- Generator: Adobe Illustrator 19.0.0, SVG Export Plug-In . SVG Version: 6.00 Build 0)  -->
<svg version="1.1" id="Capa_1" xmlns="http://www.w3.org/2000/svg" xmlns:xlink="http://www.w3.org/1999/xlink" x="0px" y="0px"
	 viewBox="0 0 512.002 512.002" style="enable-background:new 0 0 512.002 512.002;" xml:space="preserve">
<g>
	<path style="fill:#49B200;" d="M297.381,189.148c-43.415-34.133-97.059-52.646-152.282-52.552c-2.133,0-4.351,0-6.484,0.171v-0.085
		C166.88,71.87,242.338,42.232,307.15,70.496c29.595,12.908,53.226,36.514,66.151,66.108l0.853,2.047
		C345.625,150.51,319.579,167.641,297.381,189.148z"/>
	<path style="fill:#49B200;" d="M138.616,136.766c-39.875,0.913-78.914,11.577-113.721,31.054
		C73.634,40.176,216.625-23.799,344.269,24.94c48.338,18.453,89.671,51.597,118.191,94.773c-30.354,0.793-60.29,7.209-88.298,18.939
		l-0.853-2.047C345.002,71.801,269.518,42.224,204.724,70.53c-29.586,12.925-53.201,36.556-66.108,66.151V136.766z"/>
</g>
<path style="fill:#91E584;" d="M503.41,256.033c0.068,89.782-48.602,172.535-127.115,216.095c1.109-2.815,2.133-5.545,2.986-8.446
	c8.804-25.645,13.275-52.569,13.223-79.681c0.085-76.158-35.021-148.076-95.123-194.853
	c44.413-42.963,103.313-67.738,165.079-69.444C489.231,160.125,503.478,207.55,503.41,256.033z"/>
<path style="fill:#D1FFC5;" d="M256.005,503.438C119.412,503.48,8.643,392.779,8.6,256.186c-0.009-30.2,5.511-60.154,16.295-88.366
	c34.807-19.477,73.846-30.141,113.721-31.054c2.133-0.171,4.351-0.171,6.484-0.171c136.576,0.145,247.26,110.829,247.405,247.405
	c0.051,27.112-4.419,54.037-13.223,79.681c-0.853,2.901-1.877,5.631-2.986,8.446v0.085c-34.765,19.349-73.693,30.004-113.465,31.054
	C260.612,503.352,258.308,503.438,256.005,503.438z"/>
<g>
	<path style="fill:#91E584;" d="M303.319,195.273l-11.875-12.251c42.084-40.702,96.855-65.75,155.174-70.954
		C367.098,6.811,217.29-14.057,112.032,65.463c-35.763,27.018-63.199,63.54-79.178,105.403l-15.928-6.117
		C67.338,32.703,215.26-33.482,347.314,16.937c50.001,19.093,92.76,53.371,122.261,98.032c2.602,3.924,1.527,9.222-2.397,11.824
		c-1.331,0.879-2.884,1.374-4.479,1.416c-59.633,1.655-116.494,25.568-159.38,67.038V195.273z"/>
	<path style="fill:#91E584;" d="M302.645,182.434L302.645,182.434c-44.866-35.404-100.395-54.574-157.546-54.369
		c-2.355,0-4.795,0-6.68,0.171c-41.248,1.007-81.644,12.038-117.679,32.137c-1.749,0.973-3.097,2.534-3.805,4.402
		c-50.454,131.986,15.638,279.875,147.624,330.328c29.194,11.159,60.188,16.875,91.446,16.866c2.414,0,4.82-0.085,7.141-0.179
		l-0.64-17.062c-2.107,0.077-4.308,0.162-6.501,0.162C124.113,494.923,17.174,388.036,17.14,256.152
		c-0.009-28.102,4.948-55.99,14.631-82.369c33.075-17.864,69.913-27.633,107.493-28.503c1.928-0.145,3.916-0.145,5.835-0.145
		c53.329-0.188,105.156,17.702,147.018,50.735l5.264-6.714l-5.247,6.723c80.227,62.576,111.938,169.148,78.965,265.406
		c-0.785,2.645-1.706,5.119-2.747,7.729l15.885,6.245c1.194-3.054,2.303-5.972,3.114-8.787
		C422.5,363.415,388.503,249.404,302.645,182.434z"/>
	<path style="fill:#91E584;" d="M263.06,511.798l-0.469-17.062c38.066-0.938,75.339-11.056,108.653-29.484
		c0.29-0.205,0.589-0.401,0.904-0.58c115.248-64.086,156.727-209.467,92.632-324.715c-2.952-5.298-6.1-10.485-9.436-15.552
		c-2.593-3.933-1.51-9.222,2.423-11.816c1.314-0.862,2.832-1.348,4.402-1.408c2.32-0.094,4.726-0.179,7.141-0.179v4.18l0.29-0.188
		c77.881,117.884,45.446,276.59-72.438,354.463c-5.127,3.387-10.382,6.595-15.749,9.606c-0.299,0.222-0.606,0.427-0.93,0.606
		C344.482,499.633,304.206,510.655,263.06,511.798z"/>
	<path style="fill:#91E584;" d="M146.43,140.102l-15.629-6.825C160.942,64.14,241.434,32.532,310.571,62.673
		c31.574,13.761,56.775,38.953,70.562,70.51l-15.646,6.825c-26.43-60.478-96.88-88.076-157.358-61.646
		C180.512,90.434,158.476,112.487,146.43,140.102L146.43,140.102z"/>
</g>
<g>
	<path style="fill:#49B200;" d="M369.47,479.294l-5.716-0.171C206.311,474.133,76.637,353.851,59.839,197.227l16.96-1.826
		C92.701,343.563,215.362,457.343,364.3,462.07l5.69,0.162L369.47,479.294z"/>
	<path style="fill:#49B200;" d="M136.568,349.876h-17.062v-21.413c-0.145-48.662,19.187-95.353,53.687-129.674l12.063,12.063
		c-31.284,31.13-48.816,73.479-48.688,117.611V349.876z"/>
	<path style="fill:#49B200;" d="M248.498,447.771l-1.194-2.218c-25.585-46.461-13.155-104.669,29.177-136.627l10.237,13.65
		c-35.575,26.848-46,75.757-24.467,114.779l1.254,2.312L248.498,447.771z"/>
</g>
<path style="fill:#D1FFC5;" d="M382.489,474.116l-14.094-9.606l38.74-56.579c42.81-62.798,48.935-143.648,16.081-212.179
	l15.356-7.405c35.49,74.042,28.878,161.376-17.361,229.225L382.489,474.116z"/>
<rect x="247.491" y="110.994" style="fill:#91E584;" width="17.062" height="51.187"/>
<path d="M469.285,114.62v-3.617c-0.853,0-1.706,0-2.559,0.06C386.703-5.363,227.451-34.881,111.017,45.141
	C68.242,74.54,35.414,116.257,16.91,164.749l0,0C7.167,190.214,1.57,217.088,0.342,244.328c-0.188,3.873-0.273,7.789-0.273,11.705
	C0.231,397.318,114.72,511.807,256.005,511.969c1.757,0,3.498-0.06,5.238-0.119l1.86-0.06l0,0
	c141.251-3.873,252.617-121.518,248.736-262.77c-1.314-47.741-15.953-94.167-42.281-134.017
	C469.473,114.867,469.37,114.747,469.285,114.62z M256.005,17.159c74.912-0.068,145.508,35.089,190.596,94.918
	c-23.29,2.116-46.179,7.431-68.019,15.791c-33.033-67.695-114.685-95.797-182.38-62.773c-27.513,13.42-49.711,35.712-63.02,63.276
	l-3.054,0.171c-1.587,0.094-3.157,0.247-4.735,0.375c-3.412,0.264-6.825,0.58-10.237,0.981c-1.8,0.213-3.592,0.444-5.392,0.708
	c-3.267,0.452-6.526,0.981-9.768,1.561c-1.706,0.316-3.464,0.606-5.196,0.955c-3.694,0.742-7.371,1.587-11.031,2.491
	c-1.177,0.29-2.372,0.537-3.54,0.853c-4.76,1.246-9.478,2.628-14.162,4.155c-1.331,0.427-2.636,0.93-3.958,1.382
	c-3.412,1.16-6.757,2.363-10.092,3.668c-1.706,0.665-3.412,1.382-5.119,2.082c-1.706,0.7-3.191,1.254-4.76,1.945
	C82.779,68.773,165.446,17.543,256.005,17.159z M247.474,111.002v38.39c-0.478-0.213-0.973-0.367-1.459-0.572
	c-3.481-1.51-7.038-2.815-10.587-4.163c-2.875-1.083-5.724-2.244-8.634-3.225c-3.685-1.246-7.439-2.269-11.184-3.336
	c-2.858-0.853-5.69-1.706-8.582-2.448c-3.976-0.99-8.011-1.706-12.038-2.559c-2.739-0.537-5.443-1.194-8.207-1.647
	c-4.539-0.734-9.145-1.203-13.752-1.706c-2.303-0.247-4.581-0.631-6.91-0.853c-4.522-0.367-9.094-0.444-13.65-0.572
	c32.768-57.193,105.702-76.986,162.895-44.217c20.424,11.705,36.94,29.194,47.451,50.257
	c-24.118,11.022-46.367,25.722-65.972,43.569c-2.039-1.51-4.189-2.815-6.262-4.266c-2.645-1.834-5.281-3.685-7.977-5.417
	c-3.174-2.039-6.415-3.916-9.657-5.801c-2.764-1.604-5.503-3.242-8.309-4.735l-0.102-0.009v-46.691L247.474,111.002L247.474,111.002
	z M371.748,459.604l-1.783,2.611l-5.665-0.188c-35.08-1.109-69.683-8.463-102.178-21.72l1.348-0.742l-1.237-2.21
	c-21.49-39.03-11.056-87.914,24.485-114.779l-10.237-13.65c-37.35,28.255-51.938,77.54-35.976,121.57
	c-40.685-20.466-76.218-49.873-103.936-86.012V328.42c-0.119-44.115,17.412-86.438,48.688-117.543l-12.063-12.063
	c-32.453,32.367-51.486,75.783-53.294,121.578c-23.614-37.879-38.348-80.603-43.1-124.982l-16.96,1.809
	c16.559,149.347,135.706,266.54,285.309,280.625c-26.31,10.417-54.241,16.124-82.531,16.849l0.23,8.531l-0.247-8.531l-1.945,0.068
	c-1.544,0.051-3.088,0.111-4.65,0.111c-131.85-0.154-238.703-106.99-238.874-238.839c0-6.825,0.316-13.65,0.853-20.364
	c0-0.316,0-0.631,0.068-0.947c0.58-6.518,1.459-12.984,2.559-19.408c0.094-0.537,0.162-1.075,0.256-1.612
	c1.126-6.245,2.559-12.438,4.163-18.589c0.179-0.682,0.341-1.374,0.52-2.056c1.655-6.04,3.575-12.012,5.707-17.916
	c0.162-0.435,0.307-0.853,0.469-1.314c2.013-1.083,4.052-2.116,6.091-3.139c2.039-1.024,3.822-1.971,5.767-2.884
	c2.611-1.228,5.281-2.338,7.934-3.472c1.928-0.853,3.839-1.706,5.793-2.457c2.721-1.075,5.486-2.022,8.241-2.994
	c1.937-0.691,3.865-1.425,5.827-2.065c2.815-0.913,5.673-1.706,8.531-2.5c1.954-0.555,3.882-1.16,5.844-1.706
	c2.918-0.751,5.869-1.356,8.813-1.996c1.937-0.418,3.848-0.904,5.793-1.271c3.054-0.58,6.142-1.015,9.222-1.476
	c1.86-0.282,3.703-0.64,5.562-0.853c3.344-0.427,6.706-0.691,10.067-0.973c1.621-0.128,3.233-0.35,4.863-0.452
	c4.999-0.307,10.007-0.461,15.023-0.461c132.003,0.077,238.95,107.16,238.874,239.164
	C383.956,409.893,379.827,435.324,371.748,459.604z M401.889,445.707l19.28-28.153c46.282-67.823,52.911-155.174,17.404-229.208
	l-15.356,7.405c32.862,68.523,26.728,149.356-16.09,212.137l-8.727,12.797c1.749-12.148,2.628-24.408,2.636-36.684
	c0.162-75.288-33.041-146.779-90.678-195.228c40.771-36.437,92.837-57.722,147.453-60.29
	C523.808,232.819,499.588,370.24,401.889,445.707z"/>
<g>
</g>
<g>
</g>
<g>
</g>
<g>
</g>
<g>
</g>
<g>
</g>
<g>
</g>
<g>
</g>
<g>
</g>
<g>
</g>
<g>
</g>
<g>
</g>
<g>
</g>
<g>
</g>
<g>
</g>
</svg>
