<?xml version="1.0" encoding="iso-8859-1"?>
<!-- Generator: Adobe Illustrator 19.0.0, SVG Export Plug-In . SVG Version: 6.00 Build 0)  -->
<svg version="1.1" id="Capa_1" xmlns="http://www.w3.org/2000/svg" xmlns:xlink="http://www.w3.org/1999/xlink" x="0px" y="0px"
	 viewBox="0 0 511.998 511.998" style="enable-background:new 0 0 511.998 511.998;" xml:space="preserve">
<path style="fill:#D1FFC5;" d="M238.937,332.607l-1.45-130.436c6.006-2.286,11.346-6.04,15.526-10.919
	c5.315,6.193,12.446,10.553,20.389,12.455l-0.341,1.109v127.962h0.341c3.122-33.927,24.381-63.503,55.535-77.289
	c-1.408,4.001-2.124,8.215-2.133,12.455c-0.034,8.36,2.662,16.507,7.678,23.204c-17.019,11.005-27.298,29.892-27.298,50.161
	l13.052,124.379c1.979,18.742-11.61,35.539-30.352,37.518c-1.169,0.119-2.337,0.188-3.515,0.188h-60.739
	c-18.844-0.034-34.089-15.347-34.055-34.191c0-1.177,0.068-2.346,0.188-3.515l13.052-124.379c0-20.269-10.28-39.156-27.298-50.161
	c5.016-6.697,7.712-14.844,7.678-23.204c-0.009-4.24-0.725-8.454-2.133-12.455c31.103,13.752,52.319,43.26,55.45,77.118
	L238.937,332.607L238.937,332.607z"/>
<path style="fill:#307E45;" d="M328.937,255.488c0.93-2.704,2.133-5.298,3.583-7.763c-1.885,0.333-3.796,0.529-5.716,0.597
	c-21.677,0-39.242-17.565-39.242-39.242c0.043-1.629,0.213-3.259,0.512-4.863c-1.851,0.375-3.736,0.572-5.63,0.597
	c-3.045,0.026-6.091-0.35-9.043-1.109c-7.942-1.902-15.074-6.262-20.389-12.455c-4.18,4.88-9.52,8.633-15.526,10.919
	c-4.299,1.672-8.863,2.568-13.479,2.645c0.23,1.408,0.375,2.832,0.427,4.265c0,21.677-17.565,39.242-39.242,39.242l0,0
	c-1.919-0.068-3.83-0.264-5.716-0.597c1.45,2.465,2.653,5.059,3.583,7.763c1.408,4.001,2.124,8.215,2.133,12.455
	c0.034,8.36-2.662,16.507-7.678,23.204c-12.634,17.386-36.964,21.233-54.35,8.599c-2.448-1.774-4.675-3.83-6.645-6.125
	c-7.362,8.59-18.111,13.547-29.431,13.564c-21.677,0-39.242-17.565-39.242-39.242c0.06-7.132,2.039-14.11,5.716-20.218
	c-1.885,0.333-3.796,0.529-5.716,0.597c-21.677,0-39.242-17.565-39.242-39.242s17.565-39.242,39.242-39.242
	c1.919,0.068,3.83,0.264,5.716,0.597c-3.677-6.108-5.656-13.086-5.716-20.218c0-21.677,17.565-39.242,39.242-39.242l0,0
	c11.32,0.017,22.069,4.973,29.431,13.564c7.277-8.471,17.838-13.41,29.005-13.564c-0.23-1.408-0.375-2.832-0.427-4.265
	c0-21.677,17.565-39.242,39.242-39.242l0,0c1.919,0.068,3.83,0.264,5.716,0.597c-3.677-6.108-5.656-13.086-5.716-20.218
	c0-21.677,17.565-39.242,39.242-39.242l0,0c11.32,0.017,22.069,4.973,29.431,13.564c7.362-8.59,18.111-13.547,29.431-13.564
	c21.677,0,39.242,17.565,39.242,39.242c-0.06,7.132-2.039,14.11-5.716,20.218c1.885-0.333,3.796-0.529,5.716-0.597
	c21.677,0,39.242,17.565,39.242,39.242c-0.043,1.629-0.213,3.259-0.512,4.863c1.851-0.375,3.736-0.572,5.63-0.597
	c11.32,0.017,22.069,4.973,29.431,13.564c7.362-8.59,18.111-13.547,29.431-13.564c21.677,0,39.242,17.565,39.242,39.242
	c-0.06,7.132-2.039,14.11-5.716,20.218c1.885-0.333,3.796-0.529,5.716-0.597c21.677,0,39.242,17.565,39.242,39.242
	s-17.565,39.242-39.242,39.242c-1.919-0.068-3.83-0.264-5.716-0.597c3.677,6.108,5.656,13.086,5.716,20.218
	c0,21.677-17.565,39.242-39.242,39.242c-11.32-0.017-22.069-4.973-29.431-13.564c-14.238,16.294-38.986,17.957-55.271,3.728
	c-8.488-7.413-13.368-18.128-13.402-29.406C326.813,263.704,327.538,259.498,328.937,255.488z"/>
<g>
	<path style="fill:#399D4D;" d="M392.491,238.939v-17.062c14.135,0,25.592-11.457,25.592-25.592h17.062
		C435.12,219.83,416.036,238.913,392.491,238.939z"/>
	<path style="fill:#399D4D;" d="M230.407,170.693c-23.553,0-42.654-19.1-42.654-42.654s19.1-42.654,42.654-42.654v17.062
		c-14.135,0-25.592,11.457-25.592,25.592c0,14.135,11.457,25.592,25.592,25.592V170.693z"/>
	<path style="fill:#399D4D;" d="M119.507,256c-23.545-0.026-42.628-19.109-42.654-42.654h17.062
		c0,14.135,11.457,25.592,25.592,25.592s25.592-11.457,25.592-25.592h17.062C162.135,236.891,143.051,255.975,119.507,256z"/>
</g>
<path d="M471.196,161.821c0.981-3.788,1.484-7.686,1.484-11.602c0.094-26.292-21.139-47.679-47.431-47.772
	c-10.808-0.043-21.31,3.6-29.772,10.322c-7.499-5.972-16.635-9.546-26.198-10.237c-1.962-21.992-18.717-39.796-40.555-43.08
	c0.99-3.788,1.493-7.686,1.493-11.602c0.094-26.292-21.139-47.679-47.431-47.772c-10.809-0.043-21.31,3.6-29.772,10.322
	c-20.585-16.345-50.528-12.916-66.881,7.678c-6.722,8.463-10.365,18.964-10.322,29.772c0,3.916,0.503,7.814,1.484,11.602
	c-22.154,3.336-39.028,21.591-40.606,43.942c-7.371,1.501-14.281,4.709-20.167,9.384c-20.576-16.353-50.519-12.933-66.873,7.652
	c-6.731,8.471-10.373,18.972-10.331,29.789c0,3.916,0.503,7.814,1.484,11.602c-26.104,3.856-44.138,28.135-40.282,54.239
	c3.08,20.841,19.442,37.211,40.282,40.282c-0.981,3.788-1.484,7.686-1.484,11.602c-0.094,26.292,21.139,47.678,47.431,47.772
	c10.808,0.043,21.31-3.6,29.772-10.322c18.486,14.733,45,13.572,62.13-2.713c11.064,9.631,17.488,23.536,17.633,38.201
	L183.24,464.808c-2.465,23.426,14.528,44.42,37.962,46.885c1.484,0.154,2.969,0.23,4.453,0.23h60.688
	c23.553,0,42.654-19.1,42.645-42.662c0-1.484-0.077-2.977-0.23-4.453l-13.044-123.927c0.145-14.664,6.569-28.57,17.633-38.201
	c17.13,16.285,43.643,17.445,62.13,2.713c20.585,16.345,50.528,12.916,66.881-7.678c6.722-8.463,10.365-18.964,10.322-29.772
	c0-3.916-0.503-7.814-1.484-11.602c26.104-3.856,44.138-28.134,40.282-54.239C508.408,181.271,492.037,164.9,471.196,161.821z
	 M298.653,341.308c0,0.282,0.017,0.572,0.051,0.853l13.095,124.396c1.501,14.059-8.684,26.659-22.734,28.16
	c-0.904,0.094-1.809,0.145-2.721,0.145h-60.688c-14.135,0-25.592-11.457-25.592-25.592c0-0.896,0.043-1.791,0.137-2.679
	l13.095-124.43c0.034-0.282,0.051-0.572,0.051-0.853c-0.051-20.218-9.043-39.378-24.569-52.336
	c2.738-5.545,4.368-11.568,4.786-17.735c22.956,15.97,36.699,42.108,36.844,70.072h17.062c0.017-17.13-4.265-33.995-12.438-49.052
	h11.013v-84.745c2.448-1.297,4.777-2.798,6.961-4.496c3.515,2.755,7.388,5.016,11.525,6.705v80.403h13.649
	c-8.966,15.569-13.675,33.219-13.649,51.185h17.062c0-28.032,13.777-54.273,36.844-70.2c0.401,6.21,2.03,12.284,4.786,17.863
	C307.695,301.93,298.704,321.09,298.653,341.308z M199.602,254.584c13.137-4.189,23.844-13.82,29.38-26.445v54.222
	C221.159,271.228,211.161,261.776,199.602,254.584z M281.591,284.809v-60.782c4.811,14.562,16.311,25.942,30.924,30.591
	C300.18,262.373,289.636,272.661,281.591,284.809z M464.15,239.792c-1.51-0.051-3.02-0.213-4.504-0.495
	c-4.666-0.682-8.991,2.551-9.674,7.208c-0.282,1.954,0.119,3.95,1.143,5.647c2.935,4.743,4.496,10.211,4.504,15.79
	c0,16.959-13.752,30.711-30.711,30.711l0,0c-8.863,0.009-17.283-3.882-23.033-10.621c-3.097-3.549-8.488-3.907-12.037-0.81
	c-0.29,0.247-0.554,0.52-0.81,0.81c-5.741,6.731-14.135,10.612-22.982,10.621c-6.082,0-12.02-1.826-17.062-5.221
	c2.474-0.955,5.025-1.715,7.627-2.269l-3.412-16.712c-5.349,1.1-10.544,2.858-15.466,5.221c-1.57-3.711-2.38-7.703-2.397-11.73
	c0.017-2.082,0.264-4.154,0.734-6.185c4.956-1.928,10.083-3.387,15.313-4.351l-3.088-16.763c-3.071,0.563-6.091,1.271-9.051,2.099
	c-1.911-2.568-5.076-3.882-8.241-3.412c-1.382,0.256-2.79,0.401-4.197,0.444c-16.959,0-30.711-13.752-30.711-30.711
	c0.026-0.862,0.119-1.715,0.256-2.559l0.162-1.203c0.23-2.67-0.793-5.298-2.764-7.106c-2.013-1.851-4.752-2.704-7.464-2.312
	c-10.109,1.373-20.218-2.482-26.846-10.237c-3.097-3.549-8.488-3.907-12.037-0.81c-0.29,0.247-0.555,0.52-0.81,0.81
	c-5.664,6.654-13.939,10.536-22.683,10.638c-4.709,0.051-8.488,3.916-8.437,8.625c0,0.282,0.017,0.563,0.051,0.845l0.188,1.484
	c0.111,0.614,0.171,1.245,0.196,1.868c0.529,16.43-12.37,30.182-28.8,30.711c-2.141,0.068-4.282-0.094-6.398-0.486
	c-3.131-0.478-6.27,0.836-8.121,3.412c-3.839-1.083-7.737-1.936-11.67-2.559l-2.61,16.857c6.04,0.964,11.96,2.593,17.65,4.854
	c0.452,1.996,0.682,4.027,0.708,6.074c0,4.027-0.802,8.019-2.354,11.73c-4.922-2.363-10.118-4.12-15.466-5.221l-3.412,16.712
	c2.602,0.555,5.153,1.314,7.627,2.269c-5.042,3.395-10.979,5.221-17.062,5.221c-8.863,0.009-17.283-3.873-23.033-10.621
	c-3.097-3.549-8.488-3.907-12.037-0.81c-0.29,0.247-0.554,0.52-0.81,0.81c-5.75,6.731-14.17,10.604-23.025,10.595
	c-16.959,0-30.711-13.752-30.711-30.711c0.017-5.579,1.587-11.047,4.53-15.79c1.655-2.849,1.518-6.407-0.35-9.119
	c-1.902-2.764-5.212-4.197-8.531-3.685c-1.382,0.247-2.781,0.401-4.18,0.444c-16.959,0.009-30.719-13.735-30.728-30.694
	c-0.009-16.959,13.735-30.719,30.694-30.728c0.009,0,0.017,0,0.034,0c1.518,0.051,3.028,0.213,4.521,0.486
	c4.666,0.682,8.991-2.551,9.674-7.208c0.282-1.954-0.119-3.95-1.143-5.647c-2.943-4.743-4.504-10.203-4.521-15.782
	c0-16.959,13.752-30.711,30.711-30.711l0,0c8.863-0.009,17.283,3.882,23.033,10.621c3.336,3.549,8.923,3.719,12.472,0.375
	c0.128-0.119,0.256-0.247,0.375-0.375c5.664-6.645,13.931-10.518,22.658-10.621c4.709-0.051,8.488-3.916,8.437-8.625
	c0-0.282-0.017-0.563-0.051-0.845l-0.196-1.484c-0.102-0.606-0.162-1.228-0.188-1.843c0-16.959,13.752-30.711,30.711-30.711l0,0
	c1.518,0.051,3.028,0.213,4.521,0.486c4.666,0.682,8.991-2.551,9.674-7.209c0.282-1.954-0.119-3.95-1.143-5.647
	c-2.943-4.743-4.504-10.203-4.521-15.782c0-16.959,13.752-30.711,30.711-30.711l0,0c8.863-0.009,17.283,3.882,23.033,10.621
	c3.336,3.549,8.923,3.719,12.472,0.375c0.128-0.119,0.256-0.247,0.375-0.375c5.741-6.731,14.135-10.612,22.982-10.621
	c16.959,0,30.711,13.752,30.711,30.711c-0.026,5.579-1.587,11.047-4.521,15.79c-1.655,2.849-1.51,6.407,0.375,9.111
	c1.911,2.755,5.221,4.18,8.531,3.685c1.365-0.247,2.755-0.392,4.146-0.435c16.959,0,30.711,13.752,30.711,30.711
	c-0.026,0.862-0.119,1.715-0.256,2.559l-0.162,1.203c-0.23,2.67,0.793,5.298,2.764,7.106c2.013,1.86,4.752,2.713,7.464,2.312
	c10.109-1.365,20.218,2.491,26.846,10.237c3.097,3.549,8.488,3.907,12.037,0.81c0.29-0.247,0.554-0.52,0.81-0.81
	c5.741-6.739,14.153-10.621,23.007-10.621c16.959,0,30.711,13.752,30.711,30.711c-0.017,5.579-1.587,11.047-4.53,15.782
	c-1.638,2.858-1.493,6.407,0.384,9.111c1.919,2.747,5.221,4.18,8.531,3.694c1.365-0.247,2.755-0.392,4.146-0.435
	c16.959-0.009,30.719,13.735,30.728,30.694c0.009,16.959-13.735,30.719-30.694,30.728
	C464.175,239.792,464.158,239.792,464.15,239.792z"/>
<path d="M392.491,221.877v17.062c23.545-0.026,42.628-19.109,42.654-42.654h-17.062C418.084,210.42,406.627,221.877,392.491,221.877
	z"/>
<path d="M187.753,128.039c0.026,23.545,19.109,42.628,42.654,42.654v-17.062c-14.135,0-25.592-11.457-25.592-25.592
	c0-14.135,11.457-25.592,25.592-25.592V85.385C206.862,85.419,187.778,104.494,187.753,128.039z"/>
<path d="M119.507,238.939c-14.135,0-25.592-11.457-25.592-25.592H76.853c0,23.553,19.1,42.654,42.654,42.654
	s42.654-19.1,42.654-42.654h-17.062C145.099,227.482,133.642,238.939,119.507,238.939z"/>
<g>
</g>
<g>
</g>
<g>
</g>
<g>
</g>
<g>
</g>
<g>
</g>
<g>
</g>
<g>
</g>
<g>
</g>
<g>
</g>
<g>
</g>
<g>
</g>
<g>
</g>
<g>
</g>
<g>
</g>
</svg>
