<?xml version="1.0" encoding="iso-8859-1"?>
<!-- Generator: Adobe Illustrator 19.0.0, SVG Export Plug-In . SVG Version: 6.00 Build 0)  -->
<svg version="1.1" id="Capa_1" xmlns="http://www.w3.org/2000/svg" xmlns:xlink="http://www.w3.org/1999/xlink" x="0px" y="0px"
	 viewBox="0 0 511.997 511.997" style="enable-background:new 0 0 511.997 511.997;" xml:space="preserve">
<path style="fill:#307E45;" d="M503.468,401.449c-0.061,49.123-39.939,88.897-89.062,88.836c-5.59-0.009-11.172-0.538-16.666-1.597
	c-10.772-2.266-21.719-3.628-32.725-4.08c-7.769-0.191-15.547,0.191-23.264,1.128l-7.465,0.868
	c-35.928,4.262-72.343,1.823-107.377-7.205c61.458-23.949,101.926-83.168,101.909-149.13c0.009-26.241-3.021-52.404-9.028-77.951
	c-2.865-11.892-6.337-23.628-10.417-35.156c36.788,15.625,69.991,38.611,97.568,67.534l5.208,5.469
	c5.373,5.59,11.111,10.807,17.187,15.625c8.767,6.684,18.09,12.613,27.864,17.708C485.707,339.08,503.442,368.967,503.468,401.449z"
	/>
<path style="fill:#D1FFC5;" d="M167.707,207.093h3.125c49.479,0,89.582,40.104,89.582,89.582v37.239
	c0,49.479-40.104,89.582-89.582,89.582h-3.125c-49.479,0-89.582-40.104-89.582-89.582v-37.239
	C78.125,247.206,118.229,207.093,167.707,207.093z"/>
<path style="fill:#49B200;" d="M319.789,252.319c6.007,25.547,9.036,51.71,9.028,77.951c0.017,88.402-71.64,160.077-160.042,160.094
	C80.373,490.38,8.698,418.732,8.681,330.33c0-0.017,0-0.035,0-0.061c-0.009-52.638,12.231-104.556,35.764-151.648l3.906-7.812
	c4.045-8.012,7.5-16.311,10.33-24.826v-0.087c3.871-12.144,6.658-24.6,8.333-37.239c8.767-56.163,61.414-94.582,117.577-85.806
	c44.218,6.91,78.905,41.597,85.806,85.806c1.753,12.63,4.575,25.087,8.42,37.239c2.813,8.55,6.267,16.883,10.33,24.913l3.819,7.812
	c6.267,12.491,11.753,25.364,16.406,38.541C313.452,228.699,316.924,240.435,319.789,252.319z M260.415,333.915v-37.239
	c0.009-49.47-40.095-89.574-89.565-89.582c-0.009,0-0.009,0-0.017,0h-3.125c-49.47,0-89.574,40.095-89.582,89.565
	c0,0.009,0,0.009,0,0.017v37.239c0,49.47,40.095,89.582,89.565,89.582c0.009,0,0.009,0,0.017,0h3.125
	c49.47,0.009,89.582-40.095,89.582-89.565C260.415,333.932,260.415,333.924,260.415,333.915z"/>
<g>
	<path style="fill:#307E45;" d="M170.832,432.178h-3.125c-54.244-0.061-98.202-44.019-98.263-98.263v-37.239
		c0.061-54.244,44.019-98.202,98.263-98.263h3.125c54.244,0.061,98.202,44.019,98.263,98.263v37.239
		C269.034,388.159,225.076,432.117,170.832,432.178z M167.707,215.774c-44.661,0.052-80.85,36.241-80.902,80.902v37.239
		c0.052,44.661,36.241,80.85,80.902,80.902h3.125c44.661-0.052,80.85-36.241,80.902-80.902v-37.239
		c-0.052-44.661-36.241-80.85-80.902-80.902L167.707,215.774L167.707,215.774z"/>
	<path style="fill:#307E45;" d="M234.373,296.676h-17.361c-0.026-25.495-20.686-46.154-46.18-46.18v-17.361
		C205.91,233.178,234.33,261.607,234.373,296.676z"/>
	<rect x="217.012" y="316.728" style="fill:#307E45;" width="17.361" height="17.187"/>
</g>
<g>
	<rect x="425.344" y="351.449" style="fill:#49B200;" width="17.361" height="17.361"/>
	<rect x="451.385" y="377.491" style="fill:#49B200;" width="17.361" height="17.361"/>
	<rect x="442.704" y="420.919" style="fill:#49B200;" width="17.361" height="17.361"/>
	<rect x="399.302" y="438.28" style="fill:#49B200;" width="17.361" height="17.361"/>
	<rect x="407.983" y="394.878" style="fill:#49B200;" width="17.361" height="17.361"/>
</g>
<path d="M170.798,198.369h-3.056c-54.262,0.069-98.237,44.036-98.298,98.298v37.239c0.078,54.253,44.045,98.211,98.298,98.272h3.056
	c54.253-0.061,98.219-44.019,98.298-98.272v-37.239C269.034,242.405,225.059,198.439,170.798,198.369z M251.734,333.906
	c-0.069,44.67-36.267,80.859-80.937,80.911h-3.056c-44.67-0.052-80.867-36.241-80.937-80.911v-37.239
	c0.052-44.678,36.258-80.885,80.937-80.937h3.056c44.678,0.052,80.885,36.258,80.937,80.937V333.906z"/>
<path d="M170.798,233.091v17.361c25.512,0.035,46.18,20.703,46.215,46.215h17.361C234.339,261.572,205.893,233.135,170.798,233.091z
	"/>
<rect x="217.012" y="316.728" width="17.361" height="17.179"/>
<path d="M461.333,315.86c-9.323-4.87-18.22-10.521-26.597-16.884c-5.79-4.557-11.25-9.514-16.337-14.844l-5.208-5.451
	c-27.474-28.845-60.425-51.909-96.926-67.855c-4.479-12.3-9.653-24.331-15.495-36.041l-3.889-7.812
	c-3.837-7.674-7.135-15.616-9.852-23.758c-3.672-11.701-6.354-23.689-8.012-35.842c-8.177-54.496-55.13-94.721-110.233-94.461l0,0
	c-54.895,0.304-101.527,40.251-110.242,94.452c-1.667,12.144-4.349,24.132-8.021,35.833c-2.717,8.134-6.007,16.076-9.844,23.75
	l-3.898,7.812C12.674,223.057,0.087,276.277,0.001,330.252c-0.252,92.942,74.878,168.488,167.819,168.74
	c20.243,0.052,40.329-3.542,59.288-10.616c35.347,8.828,72.013,11.146,108.193,6.84l7.465-0.868
	c7.309-0.885,14.67-1.233,22.022-1.042c10.512,0.434,20.963,1.753,31.25,3.941c6.25,1.224,12.604,1.84,18.967,1.84
	c41.041-0.009,77.629-25.859,91.336-64.539C522.382,389.305,503.346,339.097,461.333,315.86z M168.74,481.656
	C85.165,481.561,17.44,413.827,17.362,330.252c0.061-51.276,11.996-101.839,34.878-147.733l3.898-7.812
	c4.201-8.42,7.804-17.118,10.79-26.041c3.976-12.621,6.875-25.564,8.68-38.671c7.37-45.772,46.779-79.504,93.141-79.721l0,0
	c46.336,0.26,85.702,33.975,93.081,79.721c1.806,13.116,4.705,26.059,8.68,38.689c2.977,8.924,6.588,17.621,10.79,26.041
	l3.889,7.812c22.882,45.894,34.826,96.466,34.887,147.75C319.98,413.836,252.281,481.544,168.74,481.656z M490.013,428.706
	c-13.55,37.031-51.892,58.828-90.641,51.536c-11.25-2.387-22.682-3.811-34.175-4.262c-8.177-0.208-16.354,0.182-24.47,1.163
	l-7.465,0.868c-26.632,3.168-53.576,2.535-80.025-1.884c52.074-30.113,84.174-85.676,84.253-145.832
	c-0.061-32.751-4.74-65.329-13.889-96.779c28.767,14.514,54.835,33.845,77.074,57.17l5.208,5.451
	c5.642,5.911,11.701,11.423,18.116,16.493c9.141,6.97,18.854,13.16,29.036,18.489c34.514,19.097,50.156,60.355,36.979,97.534
	L490.013,428.706L490.013,428.706z"/>
<rect x="425.344" y="351.449" width="17.361" height="17.361"/>
<rect x="451.385" y="377.491" width="17.361" height="17.361"/>
<rect x="442.704" y="420.919" width="17.361" height="17.361"/>
<rect x="399.302" y="438.28" width="17.361" height="17.361"/>
<rect x="407.983" y="394.878" width="17.361" height="17.361"/>
<g>
</g>
<g>
</g>
<g>
</g>
<g>
</g>
<g>
</g>
<g>
</g>
<g>
</g>
<g>
</g>
<g>
</g>
<g>
</g>
<g>
</g>
<g>
</g>
<g>
</g>
<g>
</g>
<g>
</g>
</svg>
