<?xml version="1.0" encoding="iso-8859-1"?>
<!-- Generator: Adobe Illustrator 19.0.0, SVG Export Plug-In . SVG Version: 6.00 Build 0)  -->
<svg version="1.1" id="Capa_1" xmlns="http://www.w3.org/2000/svg" xmlns:xlink="http://www.w3.org/1999/xlink" x="0px" y="0px"
	 viewBox="0 0 512 512" style="enable-background:new 0 0 512 512;" xml:space="preserve">
<path style="fill:#6B2F59;" d="M410.947,132.806C383.064,289.201,278.36,421.073,132.35,483.672
	c38.158,28.573,91.18,26.25,126.687-5.555l41.155-36.694c74.482-66.58,115.628-162.733,112.355-262.581L410.947,132.806z"/>
<path style="fill:#80386A;" d="M410.947,132.806v-0.084c-0.084-2.314-0.337-4.62-0.757-6.901l-0.842,0.168l-33.664-8.416
	l-25.248,33.664l-8.416-42.08h-38.293c-1.885,3.274-3.409,6.75-4.545,10.352c-21.208,67.017-62.843,125.728-119.087,167.901
	l-47.887,35.937c-44.235,33.21-53.173,95.985-19.971,140.22c1.119,1.49,2.272,2.946,3.476,4.368
	c4.932,5.858,10.512,11.134,16.639,15.738C278.36,421.073,383.064,289.201,410.947,132.806z"/>
<path style="fill:#307E45;" d="M358.851,83.908h1.683c24.55,0.008,45.523,17.707,49.655,41.912l-0.842,0.168l-33.664-8.416
	l-25.248,33.664l-8.416-42.08h-38.293c8.997-15.62,25.652-25.248,43.679-25.248C347.405,83.908,358.851,83.908,358.851,83.908z"/>
<g>
	
		<rect x="233.642" y="437.013" transform="matrix(-0.746 0.6659 -0.6659 -0.746 724.5482 614.5212)" style="fill:#AD5793;" width="22.891" height="16.832"/>
	<path style="fill:#AD5793;" d="M192.381,478.369c-22.126,0.008-43.132-9.779-57.356-26.729
		c-26.637-31.569-22.648-78.749,8.921-105.386c1.111-0.934,2.247-1.843,3.409-2.71l10.099,13.466
		c-25.619,19.18-30.845,55.487-11.665,81.114c0.682,0.917,1.397,1.809,2.129,2.676c15.915,19.003,42.165,25.778,65.283,16.832
		l6.001,15.73C210.644,476.661,201.555,478.361,192.381,478.369z"/>
</g>
<path style="fill:#307E45;" d="M367.267,83.908h-16.832c-0.042-38.495,26.166-72.067,63.516-81.383L424.16,0l4.04,16.344
	l-10.183,2.525C388.164,26.317,367.234,53.147,367.267,83.908z"/>
<path d="M84.487,391.095c-6.809,59.569,35.962,113.39,95.531,120.198c1.54,0.177,3.08,0.32,4.62,0.429
	c2.643,0.177,5.285,0.278,7.903,0.278c26.603,0.025,52.272-9.805,72.05-27.588l41.146-36.736
	c76.502-68.12,118.717-166.764,115.182-269.138l-1.54-46.095c-0.858-28.993-22.791-53.004-51.591-56.463
	c3.24-27.638,23.254-50.387,50.261-57.111l10.175-2.525l-4.09-16.327l-10.167,2.525c-34.329,8.542-59.586,37.746-63.07,72.95h-3.518
	c-25.804,0.025-48.594,16.849-56.219,41.5c-20.569,65.384-61.185,122.647-116.091,163.676l-47.887,35.911
	C103.213,334.404,87.744,361.403,84.487,391.095z M347.38,92.324h13.154c15.393-0.025,29.549,8.433,36.837,21.991l-19.618-4.907
	c-3.282-0.816-6.741,0.404-8.77,3.114l-13.954,18.6l-4.764-23.649c-0.8-3.922-4.25-6.733-8.248-6.733h-19.761
	C329.488,95.278,338.316,92.316,347.38,92.324z M137.273,330.045l47.887-35.911c57.726-43.124,100.421-103.324,122.033-172.067
	c0.53-1.532,1.136-3.03,1.835-4.494h26.09l7.061,35.348c0.648,3.257,3.148,5.824,6.379,6.565c0.614,0.126,1.246,0.177,1.877,0.168
	c2.651,0,5.142-1.246,6.733-3.366l21.882-29.195l23.506,5.891l0,0l1.54,46.103c3.375,97.382-36.77,191.222-109.544,256.025
	l-41.146,36.778c-37.78,33.757-95.775,30.491-129.532-7.288s-30.491-95.775,7.288-129.532c1.961-1.751,3.998-3.417,6.102-4.999
	L137.273,330.045z"/>
<rect x="233.674" y="436.978" transform="matrix(-0.746 0.6659 -0.6659 -0.746 724.5886 614.4345)" width="22.899" height="16.832"/>
<path d="M192.365,478.327c9.19,0.008,18.305-1.692,26.881-4.999l-6.051-15.746c-29.928,11.522-63.533-3.392-75.063-33.328
	c-9.333-24.238-1.439-51.725,19.34-67.312l-10.099-13.466c-33.084,24.836-39.774,71.789-14.939,104.873
	c14.147,18.852,36.349,29.944,59.922,29.936L192.365,478.327z"/>
<g>
</g>
<g>
</g>
<g>
</g>
<g>
</g>
<g>
</g>
<g>
</g>
<g>
</g>
<g>
</g>
<g>
</g>
<g>
</g>
<g>
</g>
<g>
</g>
<g>
</g>
<g>
</g>
<g>
</g>
</svg>
