<?xml version="1.0" encoding="iso-8859-1"?>
<!-- Generator: Adobe Illustrator 19.0.0, SVG Export Plug-In . SVG Version: 6.00 Build 0)  -->
<svg version="1.1" id="Capa_1" xmlns="http://www.w3.org/2000/svg" xmlns:xlink="http://www.w3.org/1999/xlink" x="0px" y="0px"
	 viewBox="0 0 511.997 511.997" style="enable-background:new 0 0 511.997 511.997;" xml:space="preserve">
<path style="fill:#FFA439;" d="M497.624,135.649c0.017,0.568-0.008,1.136-0.085,1.696c-0.89,8.656-8.173,15.235-16.871,15.261
	h-33.912c-9.351-0.025-16.931-7.605-16.956-16.956v-8.478c0.025-9.351,7.605-16.931,16.956-16.956h33.912
	c9.351,0.025,16.931,7.605,16.956,16.956V135.649z"/>
<path style="fill:#F0C546;" d="M489.57,101.483c5.18,5.612,8.054,12.963,8.054,20.602v5.087
	c-0.025-9.351-7.605-16.931-16.956-16.956h-33.912c-9.351,0.025-16.931,7.605-16.956,16.956v8.478
	c0.025,9.351,7.605,16.931,16.956,16.956h16.956v0.254l-19.16-0.17c-9.411-0.051-18.38-4.01-24.756-10.937l-14.243-15.6
	l-45.358-49.512l-15.6-17.041c-11.378-12.437-10.521-31.742,1.916-43.12c5.621-5.138,12.946-7.986,20.551-8.003h23.908
	c8.554-0.017,16.719,3.586,22.467,9.919L489.57,101.483z"/>
<path style="fill:#FFD24A;" d="M405.552,126.154l-2.204,2.035C389.927,284.677,264.934,408.305,108.31,420.004l-51.547,3.9v3.137
	c-14.684-5.468-28.868-12.183-42.39-20.093v-42.39l51.547-3.815C219.585,349.17,343.23,229.807,360.194,76.642L405.552,126.154z"/>
<path style="fill:#F0C546;" d="M453.428,152.767v25.273c0.076,58.516-15.489,115.997-45.095,166.476
	c-51.513,86.705-145.196,139.524-246.051,138.735c-36.091-0.051-71.86-6.757-105.518-19.788v2.832
	c41.619,24.256,88.918,37.041,137.091,37.049c93.479,0.729,180.312-48.24,228.06-128.613
	c27.435-46.791,41.873-100.058,41.797-154.301v-67.57L453.428,152.767z"/>
<path style="fill:#FFD24A;" d="M408.333,344.49c29.605-50.47,45.171-107.943,45.095-166.45v-25.273l-8.877-0.076
	c-9.411-0.051-18.38-4.01-24.756-10.937l-14.243-15.6l-2.204,2.035C389.927,284.677,264.934,408.305,108.31,420.004l-51.547,3.9
	v39.559c33.658,13.031,69.427,19.737,105.518,19.788C263.137,484.039,356.828,431.204,408.333,344.49z"/>
<path style="fill:#F0C546;" d="M56.764,415.426l50.911-3.849c152.741-10.818,274.732-131.487,287.221-284.101l0.992-24.324
	l15.905,25.714c-13.15,160.931-141.779,288.179-302.846,299.59l-43.705,3.306l-8.478,0.314V415.426z"/>
<path d="M10.134,414.282c12.234,7.113,24.985,13.302,38.151,18.508v33.505c0.008,3.027,1.619,5.816,4.239,7.325
	c42.882,25.104,91.682,38.346,141.372,38.372c96.481,0.619,186.052-49.987,235.301-132.953
	c28.181-48.105,43.026-102.856,42.992-158.608v-59.016l8.283,0.068h0.195c14.048,0,25.434-11.386,25.434-25.434v-13.963
	c0.008-9.758-3.646-19.16-10.25-26.35l-76.167-83.085C412.301,4.604,401.872,0.008,390.944,0h-23.883
	c-21.543,0-38.999,17.465-38.999,38.999c0,9.758,3.654,19.16,10.25,26.35l12.938,14.116
	C333.276,227.001,213.515,341.243,65.293,352.247l-51.555,3.832c-4.434,0.331-7.851,4.036-7.842,8.478v42.39
	C5.904,409.975,7.514,412.772,10.134,414.282z M455.234,220.43c0.025,52.751-14.023,104.552-40.695,150.062
	c-70.241,119.651-226.068,159.82-349.297,90.885v-29.605l43.705-3.281c155.412-11.047,281.464-130.189,301.235-284.736l3.391,3.705
	c7.961,8.656,19.16,13.633,30.92,13.743l10.742,0.085L455.234,220.43L455.234,220.43z M489.146,127.171v8.478
	c0,4.68-3.798,8.478-8.478,8.478h-33.912c-4.68,0-8.478-3.798-8.478-8.478v-8.478c0-4.68,3.798-8.478,8.478-8.478h33.912
	C485.356,118.693,489.146,122.491,489.146,127.171z M350.817,53.887c-8.224-8.978-7.613-22.925,1.365-31.14
	c4.069-3.722,9.377-5.791,14.879-5.791h23.883c6.181,0,12.073,2.594,16.244,7.147l71.157,77.634h-31.589
	c-14.048,0-25.434,11.386-25.434,25.434v3.637L350.817,53.887z M22.851,372.434l43.705-3.281
	c150.961-11.216,274.681-124.204,299.505-273.537l29.232,31.895h-0.407C382.339,280.082,260.39,400.708,107.683,411.586
	l-51.555,3.841c-1.077,0.085-2.128,0.373-3.103,0.848c-10.343-4.112-20.424-8.86-30.174-14.235
	C22.851,402.039,22.851,372.434,22.851,372.434z"/>
<g>
</g>
<g>
</g>
<g>
</g>
<g>
</g>
<g>
</g>
<g>
</g>
<g>
</g>
<g>
</g>
<g>
</g>
<g>
</g>
<g>
</g>
<g>
</g>
<g>
</g>
<g>
</g>
<g>
</g>
</svg>
