<?xml version="1.0" encoding="iso-8859-1"?>
<!-- Generator: Adobe Illustrator 19.0.0, SVG Export Plug-In . SVG Version: 6.00 Build 0)  -->
<svg version="1.1" id="Capa_1" xmlns="http://www.w3.org/2000/svg" xmlns:xlink="http://www.w3.org/1999/xlink" x="0px" y="0px"
	 viewBox="0 0 512 512" style="enable-background:new 0 0 512 512;" xml:space="preserve">
<path style="fill:#FDB62F;" d="M477.867,418.133H34.133c-14.507,0-25.6-11.093-25.6-25.6v-307.2c0-14.507,11.093-25.6,25.6-25.6
	h443.733c14.507,0,25.6,11.093,25.6,25.6v307.2C503.467,407.04,492.373,418.133,477.867,418.133z"/>
<path style="fill:#FFA83D;" d="M477.867,59.733h-5.12C341.333,274.773,123.733,352.427,8.533,378.88v13.653
	c0,14.507,11.093,25.6,25.6,25.6h443.733c14.507,0,25.6-11.093,25.6-25.6v-307.2C503.467,70.827,492.373,59.733,477.867,59.733z"/>
<circle style="fill:#6B962A;" cx="119.467" cy="298.667" r="42.667"/>
<path style="fill:#FA962A;" d="M8.533,409.6v17.067c0,14.507,11.093,25.6,25.6,25.6h443.733c14.507,0,25.6-11.093,25.6-25.6V409.6
	H8.533z"/>
<path style="fill:#E5E5E5;" d="M452.267,281.6h-51.2V176.64c0-34.987,19.627-67.413,51.2-82.773l0,0V281.6z"/>
<path style="fill:#DE4C3C;" d="M452.267,281.6h-34.133v82.773c0,1.707,0,3.413-0.853,4.267l0,0
	c-2.56,5.12-0.853,11.093,4.267,13.653c1.707,1.707,3.413,1.707,5.12,1.707h15.36c5.12,0,10.24-5.12,10.24-10.24V281.6z"/>
<path style="fill:#6B962A;" d="M197.12,117.76c-34.133,0-68.267,5.12-100.693,16.213l-25.6,8.533
	c-21.333,6.827-32.427,29.867-25.6,51.2s29.867,32.427,51.2,25.6c32.427-11.093,66.56-16.213,100.693-16.213h50.347V117.76
	C247.467,117.76,197.12,117.76,197.12,117.76z"/>
<circle style="fill:#88B337;" cx="247.467" cy="160.427" r="42.667"/>
<g>
	<rect x="85.333" y="162.133" style="fill:#597D1A;" width="17.067" height="17.067"/>
	<rect x="136.533" y="145.067" style="fill:#597D1A;" width="17.067" height="17.067"/>
	<rect x="162.133" y="170.667" style="fill:#597D1A;" width="17.067" height="17.067"/>
</g>
<circle style="fill:#88B337;" cx="307.2" cy="298.667" r="42.667"/>
<circle style="fill:#78A82F;" cx="170.667" cy="298.667" r="42.667"/>
<circle style="fill:#88B337;" cx="221.867" cy="298.667" r="42.667"/>
<path d="M477.867,51.2H34.133C15.36,51.2,0,66.56,0,85.333v341.333C0,445.44,15.36,460.8,34.133,460.8h443.733
	c18.773,0,34.133-15.36,34.133-34.133V85.333C512,66.56,496.64,51.2,477.867,51.2z M494.933,426.667
	c0,9.387-7.68,17.067-17.067,17.067H34.133c-9.387,0-17.067-7.68-17.067-17.067v-5.12c5.12,3.413,11.093,5.12,17.067,5.12h443.733
	c5.973,0,11.947-1.707,17.067-5.12V426.667z M494.933,392.533c0,9.387-7.68,17.067-17.067,17.067H34.133
	c-9.387,0-17.067-7.68-17.067-17.067v-307.2c0-9.387,7.68-17.067,17.067-17.067h443.733c9.387,0,17.067,7.68,17.067,17.067V392.533z
	"/>
<path d="M456.533,86.187c-2.56-1.707-5.973-1.707-8.533,0c-34.133,17.067-55.467,52.053-55.467,90.453V281.6
	c0,5.12,3.413,8.533,8.533,8.533h8.533v75.093c-4.267,9.387-0.853,20.48,8.533,25.6c2.56,1.707,5.973,1.707,8.533,1.707h15.36
	c10.24,0,18.773-8.533,18.773-18.773V93.867C460.8,91.307,459.093,87.893,456.533,86.187z M443.733,373.76
	c0,0.853-0.853,1.707-1.707,1.707h-15.36c-0.853,0-0.853,0-1.707-0.853c0-0.853,0-0.853,0-1.707c1.707-2.56,1.707-5.973,1.707-8.533
	v-74.24h17.067V373.76z M443.733,273.067H409.6V176.64c0-26.453,12.8-52.053,34.133-67.413V273.067z"/>
<path d="M98.987,227.84c31.573-10.24,64.853-16.213,98.133-16.213h50.347c28.16,0,51.2-23.04,51.2-51.2s-23.04-51.2-51.2-51.2
	H197.12c-34.987,0-69.973,5.973-103.253,17.067l-25.6,8.533c-19.627,6.827-33.28,25.6-33.28,46.08
	c0,27.307,22.187,48.64,48.64,49.493C88.747,230.4,93.867,229.547,98.987,227.84z M247.467,126.293
	c18.773,0,34.133,15.36,34.133,34.133s-15.36,34.133-34.133,34.133s-34.133-15.36-34.133-34.133S228.693,126.293,247.467,126.293z
	 M51.2,180.907c0-13.653,8.533-25.6,22.187-29.867l25.6-8.533c31.573-10.24,64.853-16.213,98.133-16.213h12.8
	c-17.067,19.627-17.067,48.64,0,68.267h-12.8c-34.987,0-69.973,5.973-103.253,17.067C76.8,217.6,58.88,208.213,53.76,191.147
	C52.053,188.587,51.2,185.173,51.2,180.907z"/>
<rect x="85.333" y="162.133" width="17.067" height="17.067"/>
<rect x="136.533" y="145.067" width="17.067" height="17.067"/>
<rect x="162.133" y="170.667" width="17.067" height="17.067"/>
<path d="M307.2,247.467c-17.067,0-33.28,8.533-42.667,23.04c-15.36-22.187-45.227-29.867-68.267-16.213
	c-6.827-4.267-14.507-5.973-22.187-6.827c-10.24-0.853-20.48,1.707-29.013,6.827c-24.747-13.653-55.467-5.12-69.973,19.627
	s-5.12,55.467,19.627,69.973c6.827,3.413,13.653,5.973,21.333,6.827h3.413c9.387,0,17.92-2.56,25.6-6.827
	c6.827,4.267,14.507,5.973,22.187,6.827h3.413c9.387,0,17.92-2.56,25.6-6.827c7.68,4.267,16.213,6.827,25.6,6.827
	c17.067,0,33.28-8.533,42.667-23.04c15.36,23.893,47.787,29.867,70.827,14.507c23.893-15.36,29.867-47.787,14.507-70.827
	C340.48,256,324.267,247.467,307.2,247.467z M130.56,331.093c-4.267,1.707-9.387,2.56-13.653,1.707
	c-18.773-1.707-33.28-17.92-31.573-36.693c0.853-8.533,5.12-17.067,11.947-23.04c9.387-7.68,22.187-10.24,33.28-5.973
	c-6.827,7.68-10.24,17.92-11.093,28.16C118.613,308.053,122.88,320.853,130.56,331.093z M181.76,331.093
	c-4.267,1.707-9.387,2.56-13.653,1.707c-18.773-1.707-33.28-17.92-31.573-36.693c0.853-8.533,5.12-17.067,11.947-23.04
	c6.827-5.973,15.36-9.387,24.747-8.533c3.413,0,5.973,0.853,8.533,1.707C167.253,285.013,167.253,311.467,181.76,331.093
	L181.76,331.093z M221.867,332.8c-18.773,0-34.133-15.36-34.133-34.133s15.36-34.133,34.133-34.133S256,279.893,256,298.667
	S240.64,332.8,221.867,332.8z M307.2,332.8c-18.773,0-34.133-15.36-34.133-34.133s15.36-34.133,34.133-34.133
	s34.133,15.36,34.133,34.133S325.973,332.8,307.2,332.8z"/>
<g>
</g>
<g>
</g>
<g>
</g>
<g>
</g>
<g>
</g>
<g>
</g>
<g>
</g>
<g>
</g>
<g>
</g>
<g>
</g>
<g>
</g>
<g>
</g>
<g>
</g>
<g>
</g>
<g>
</g>
</svg>
